<svg width="32" height="32" viewBox="4 4 56 56" xmlns="http://www.w3.org/2000/svg">
<path d="M56.5 42.5H53V56.5H56.5V42.5Z" fill="#1A1919"/>
<path d="M49.5 35.5H46V56.5H49.5V35.5Z" fill="#1A1919"/>
<path d="M42.5 49.5H39V56.5H42.5V49.5Z" fill="#1A1919"/>
<path d="M19.75 32C17.32 32 14.95 32.71 12.94 34.06C10.92 35.41 9.35 37.32 8.43 39.56C7.50 41.80 7.26 44.26 7.73 46.63C8.20 49.01 9.37 51.19 11.08 52.91C12.80 54.62 14.98 55.79 17.36 56.26C19.73 56.73 22.19 56.49 24.43 55.56C26.67 54.64 28.58 53.07 29.93 51.05C31.28 49.04 32 46.67 32 44.25C31.99 41.00 30.70 37.88 28.40 35.59C26.11 33.29 22.99 32.00 19.75 32ZM28.32 42.5H21.5V35.67C23.17 36.02 24.72 36.85 25.93 38.06C27.14 39.27 27.97 40.82 28.32 42.5ZM19.75 53C17.58 52.99 15.49 52.19 13.88 50.74C12.27 49.28 11.26 47.28 11.04 45.12C10.82 42.97 11.41 40.81 12.70 39.06C13.98 37.31 15.87 36.11 18 35.67V42.5C18 43.42 18.36 44.31 19.02 44.97C19.68 45.63 20.57 46 21.5 46H28.32C27.91 47.97 26.84 49.74 25.28 51.02C23.71 52.29 21.76 52.99 19.75 53Z" fill="#1A1919"/>
<path d="M43.43 25L50.43 14.5H56.5V11H48.56L41.56 21.5H35.5V7.5H32V28.5C32 29.42 32.36 30.31 33.02 30.97C33.68 31.63 34.57 32 35.5 32H56.5V28.5H35.5V25H43.43Z" fill="#1A1919"/>
<path d="M23.25 18C24.21 18 25 17.21 25 16.25C25 15.28 24.21 14.5 23.25 14.5C22.28 14.5 21.5 15.28 21.5 16.25C21.5 17.21 22.28 18 23.25 18Z" fill="#1A1919"/>
<path d="M19.75 25C20.71 25 21.5 24.21 21.5 23.25C21.5 22.28 20.71 21.5 19.75 21.5C18.78 21.5 18 22.28 18 23.25C18 24.21 18.78 25 19.75 25Z" fill="#1A1919"/>
<path d="M16.25 14.5C17.21 14.5 18 13.71 18 12.75C18 11.78 17.21 11 16.25 11C15.28 11 14.5 11.78 14.5 12.75C14.5 13.71 15.28 14.5 16.25 14.5Z" fill="#1A1919"/>
<path d="M12.75 21.5C13.71 21.5 14.5 20.71 14.5 19.75C14.5 18.78 13.71 18 12.75 18C11.78 18 11 18.78 11 19.75C11 20.71 11.78 21.5 12.75 21.5Z" fill="#1A1919"/>
<path d="M9.25 28.5C10.21 28.5 11 27.71 11 26.75C11 25.78 10.21 25 9.25 25C8.28 25 7.5 25.78 7.5 26.75C7.5 27.71 8.28 28.5 9.25 28.5Z" fill="#1A1919"/>
</svg>
