<svg width="32" height="32" viewBox="4 4 56 56" xmlns="http://www.w3.org/2000/svg">
<path d="M22.43 56.5V52.99H18.41C17.08 52.99 15.87 52.25 15.26 51.06C14.66 49.88 14.77 48.46 15.55 47.38L21.65 38.99H21.65L24.19 35.49L24.20 35.49L28.87 29.06V11.00H35.87V29.06L37.97 31.95L42.31 31.96L39.37 27.93V11H42.87V7.5H21.87V11H25.37V27.93L12.72 45.33C11.16 47.47 10.94 50.30 12.14 52.65C13.34 55.01 15.76 56.50 18.41 56.5H22.43Z" fill="#1A1919"/>
<path d="M39.87 60H29.37C28.45 60 27.56 59.63 26.90 58.97C26.24 58.31 25.87 57.42 25.87 56.5V39C25.87 38.07 26.24 37.18 26.90 36.52C27.56 35.86 28.45 35.5 29.37 35.5H39.87V39H29.37V56.5H39.87V60Z" fill="#1A1919"/>
<path d="M57.37 60H46.87C45.95 60 45.06 59.63 44.40 58.97C43.74 58.31 43.37 57.42 43.37 56.5V39C43.37 38.07 43.74 37.18 44.40 36.52C45.06 35.86 45.95 35.5 46.87 35.5H57.37V39H46.87V56.5H57.37V60Z" fill="#1A1919"/>
</svg>
