<svg width="32" height="32" viewBox="4 4 56 56" xmlns="http://www.w3.org/2000/svg">
<path d="M22.43 56.5V52.99H18.41C17.08 52.99 15.87 52.25 15.26 51.06C14.66 49.88 14.77 48.46 15.55 47.38L21.65 38.99H21.65L24.19 35.49L24.20 35.49L28.87 29.06V11.00H35.87V29.06L37.97 31.95L42.31 31.96L39.37 27.93V11H42.87V7.5H21.87V11H25.37V27.93L12.72 45.33C11.16 47.47 10.94 50.30 12.14 52.65C13.34 55.01 15.76 56.50 18.41 56.5H22.43Z" fill="#1A1919"/>
<path d="M50.37 60H43.37V35.5H50.37C52.23 35.5 54.01 36.23 55.32 37.55C56.64 38.86 57.37 40.64 57.37 42.5V53C57.37 54.85 56.64 56.63 55.32 57.94C54.01 59.26 52.23 60 50.37 60ZM46.87 56.5H50.37C51.30 56.5 52.19 56.13 52.85 55.47C53.51 54.81 53.87 53.92 53.87 53V42.5C53.87 41.57 53.51 40.68 52.85 40.02C52.19 39.36 51.30 39 50.37 39H46.87V56.5Z" fill="#1A1919"/>
<path d="M39.87 60H29.37C28.45 60 27.56 59.63 26.90 58.97C26.24 58.31 25.87 57.42 25.87 56.5V39C25.87 38.07 26.24 37.18 26.90 36.52C27.56 35.86 28.45 35.5 29.37 35.5H39.87V39H29.37V56.5H39.87V60Z" fill="#1A1919"/>
</svg>
