<svg width="32" height="32" viewBox="4 4 56 56" xmlns="http://www.w3.org/2000/svg">
<path d="M37.25 7.5C39.09 7.5 40.60 8.92 40.74 10.73L40.75 11L40.75 11.72C48.67 13.96 54.52 21.15 54.74 29.74L54.75 30.25L54.75 37.54C56.69 38.23 58.11 40.04 58.24 42.19L58.25 42.5V43.17C58.25 45.53 56.66 47.59 54.41 48.22L54.1 48.30L32.36 52.96C32.20 52.99 32.04 53.00 31.87 52.99L31.63 52.96L9.89 48.30C7.58 47.80 5.90 45.82 5.75 43.49L5.75 43.17V42.5C5.75 40.21 7.21 38.26 9.25 37.54L9.25 30.25C9.25 21.43 15.17 14.00 23.25 11.72L23.25 11C23.25 9.15 24.67 7.64 26.48 7.50L26.75 7.5H37.25ZM53 40.75L40.58 40.75C39.78 44.76 36.24 47.78 32 47.78C27.88 47.78 24.43 44.94 23.50 41.12L23.41 40.75L11 40.75C10.10 40.75 9.36 41.42 9.26 42.29L9.25 42.5V43.17C9.25 43.92 9.73 44.58 10.43 44.82L10.63 44.88L31.99 49.45L53.36 44.88C54.03 44.73 54.54 44.22 54.69 43.59L54.73 43.37L54.75 43.17V42.5C54.75 41.60 54.07 40.86 53.20 40.76L53 40.75ZM32 33.78C29.10 33.78 26.75 36.13 26.75 39.03C26.75 41.93 29.10 44.28 32 44.28C34.89 44.28 37.25 41.93 37.25 39.03C37.25 36.13 34.89 33.78 32 33.78ZM37.25 11H26.75V26.75H23.25L23.25 15.39C17.27 17.50 12.94 23.12 12.75 29.78L12.75 30.25V37.25L23.43 37.24C24.25 33.27 27.77 30.28 32 30.28C36.22 30.28 39.74 33.27 40.56 37.24L51.25 37.25V30.25C51.25 23.39 46.86 17.55 40.75 15.39L40.75 26.75H37.25V11Z" fill="#1A1919"/>
</svg>
