<svg width="32" height="32" viewBox="4 4 56 56" xmlns="http://www.w3.org/2000/svg">
<path d="M33.03 10.02C32.73 9.78 32.36 9.65 31.98 9.65C31.60 9.65 31.23 9.78 30.93 10.02L6.68 29.28L8.78 31.98L11.75 29.62V50.90C11.75 51.81 12.10 52.69 12.74 53.33C13.37 53.97 14.23 54.34 15.12 54.34H48.87C49.76 54.34 50.62 53.97 51.25 53.33C51.89 52.69 52.24 51.81 52.25 50.90V29.64L55.21 31.99L57.31 29.29L33.03 10.02ZM35.37 50.90H28.62V37.15H35.37V50.90ZM38.75 50.90V37.15C38.74 36.24 38.39 35.37 37.76 34.72C37.12 34.08 36.26 33.71 35.37 33.71H28.62C27.73 33.71 26.87 34.08 26.23 34.72C25.60 35.37 25.25 36.24 25.25 37.15V50.90H15.12V26.94L32 13.56L48.87 26.96V50.90H38.75Z" fill="#1A1919"/>
</svg>
