<svg width="32" height="32" viewBox="4 4 56 56" xmlns="http://www.w3.org/2000/svg">
<path d="M40.82 34.94H23.17V37.88H40.82V34.94Z" fill="#1A1919"/>
<path d="M40.82 27.58H23.17V30.52H40.82V27.58Z" fill="#1A1919"/>
<path d="M30.52 42.29H23.17V45.23H30.52V42.29Z" fill="#1A1919"/>
<path d="M40.32 15.82V16.32H40.82H45.23C45.88 16.32 46.50 16.58 46.96 17.03C47.41 17.49 47.67 18.11 47.67 18.76V35.91H45.73V18.76V18.26H45.23H40.82H40.32V18.76V22.67H23.67V18.76V18.26H23.17H18.76H18.26V18.76V49.64V50.14H18.76H34.44V52.08H18.76C18.11 52.08 17.49 51.83 17.03 51.37C16.58 50.91 16.32 50.29 16.32 49.64V18.76C16.32 18.11 16.58 17.49 17.03 17.03C17.49 16.58 18.11 16.32 18.76 16.32H23.17H23.67V15.82V14.35C23.67 13.70 23.93 13.08 24.39 12.62C24.84 12.16 25.47 11.91 26.11 11.91H37.88C38.52 11.91 39.15 12.16 39.60 12.62C40.06 13.08 40.32 13.70 40.32 14.35V15.82ZM38.38 14.35V13.85H37.88H26.11H25.61V14.35V20.23V20.73H26.11H37.88H38.38V20.23V14.35Z" fill="#1A1919" stroke="#1A1919"/>
<path d="M54.05 46.70H48.17V40.82H45.23V46.70H39.35V49.64H45.23V55.52H48.17V49.64H54.05V46.70Z" fill="#1A1919"/>
</svg>
