<svg width="32" height="32" viewBox="4 4 56 56" xmlns="http://www.w3.org/2000/svg">
<path d="M52.12 24.12H41.62V17.12C41.62 14.15 39.35 11.87 36.37 11.87H25.87C22.9 11.87 20.62 14.15 20.62 17.12V24.12H10.12C9.07 24.12 8.37 24.82 8.37 25.87C8.37 26.05 8.37 26.05 8.37 26.22L11.7 47.4C11.87 49.15 13.45 50.37 15.2 50.37H29.37V46.87H15.2L12.22 27.62H52.12V24.12ZM24.12 17.12C24.12 16.07 24.82 15.37 25.87 15.37H36.37C37.42 15.37 38.12 16.07 38.12 17.12V24.12H24.12V17.12Z" fill="#1A1919"/>
<path d="M55.62 41.62H48.62V34.62H45.12V41.62H38.12V45.12H45.12V52.12H48.62V45.12H55.62V41.62Z" fill="#1A1919"/>
</svg>
