<svg width="32" height="32" viewBox="4 4 56 56" xmlns="http://www.w3.org/2000/svg">
<path d="M50.08 29.26C52.02 29.26 53.58 27.70 53.58 25.76V15.26C53.58 13.33 52.02 11.76 50.08 11.76H39.58C37.65 11.76 36.08 13.33 36.08 15.26V25.76C36.08 27.70 37.65 29.26 39.58 29.26H43.08V36.44C39.65 37.14 36.96 39.83 36.26 43.26H29.08V39.76C29.08 37.83 27.52 36.26 25.58 36.26H22.08V29.09C26.49 28.19 29.49 24.10 29.04 19.63C28.59 15.17 24.83 11.76 20.33 11.76C15.84 11.76 12.08 15.17 11.63 19.63C11.18 24.10 14.18 28.19 18.58 29.09V36.26H15.08C13.15 36.26 11.58 37.83 11.58 39.76V50.26C11.58 52.20 13.15 53.76 15.08 53.76H25.58C27.52 53.76 29.08 52.20 29.08 50.26V46.76H36.26C37.14 51.05 41.05 54.03 45.42 53.74C49.79 53.45 53.27 49.97 53.56 45.60C53.86 41.23 50.88 37.31 46.58 36.44V29.26H50.08ZM15.08 20.51C15.08 17.61 17.44 15.26 20.33 15.26C23.23 15.26 25.58 17.61 25.58 20.51C25.58 23.41 23.23 25.76 20.33 25.76C17.44 25.76 15.08 23.41 15.08 20.51ZM25.58 50.26H15.08V39.76H25.58V50.26ZM50.08 45.01C50.08 47.91 47.73 50.26 44.83 50.26C41.94 50.26 39.58 47.91 39.58 45.01C39.58 42.11 41.94 39.76 44.83 39.76C47.73 39.76 50.08 42.11 50.08 45.01ZM39.58 15.26H50.08V25.76H39.58V15.26Z" fill="#1A1919"/>
</svg>
