<svg width="32" height="32" viewBox="4 4 56 56" xmlns="http://www.w3.org/2000/svg">
<path d="M39 14.5H18V18H39V14.5Z" fill="#1A1919"/>
<path d="M39 21.5H18V25H39V21.5Z" fill="#1A1919"/>
<path d="M28.5 28.5H18V32H28.5V28.5Z" fill="#1A1919"/>
<path d="M25 46H18V49.5H25V46Z" fill="#1A1919"/>
<path d="M30 46.33C30 54.06 36.26 60.33 44 60.33C51.73 60.33 58 54.06 58 46.33C58 38.60 51.73 32.33 44 32.33C36.26 32.33 30 38.60 30 46.33ZM33.5 46.33C33.5 40.53 38.20 35.83 44 35.83C49.79 35.83 54.5 40.53 54.5 46.33C54.5 52.13 49.79 56.83 44 56.83C38.20 56.83 33.5 52.13 33.5 46.33Z" fill="#1A1919"/>
<path d="M42.37 52.80L52.02 43.26L49.19 40.57L42.37 47.31L39.65 44.61L36.89 47.29L42.37 52.80Z" fill="#1A1919"/>
<path d="M29.5 56.5H14.5C13.57 56.49 12.68 56.13 12.02 55.47C11.37 54.81 11.00 53.92 11 53V11C11.00 10.07 11.37 9.18 12.02 8.52C12.68 7.87 13.57 7.50 14.5 7.5H42.5C43.42 7.50 44.31 7.87 44.97 8.52C45.63 9.18 45.99 10.07 46 11V30.62H42.5V11H14.5V53H29.5V56.5Z" fill="#1A1919"/>
</svg>
