<svg width="32" height="32" viewBox="4 4 56 56" xmlns="http://www.w3.org/2000/svg">
<path d="M39 14.18H18V17.57H39V14.18Z" fill="#1A1919"/>
<path d="M39 20.96H18V24.36H39V20.96Z" fill="#1A1919"/>
<path d="M26.75 27.75H18V31.15H26.75V27.75Z" fill="#1A1919"/>
<path d="M26.75 54.90H14.5C13.57 54.90 12.68 54.54 12.02 53.91C11.37 53.27 11.00 52.41 11 51.51V10.78C11.00 9.88 11.37 9.02 12.02 8.38C12.68 7.75 13.57 7.39 14.5 7.39H42.5C43.42 7.39 44.31 7.75 44.97 8.38C45.63 9.02 45.99 9.88 46 10.78V27.75H42.5V10.78H14.5V51.51H26.75V54.90Z" fill="#1A1919"/>
<path d="M35.50 31.15C37.42 31.14 39.31 31.66 40.96 32.63C42.61 33.60 43.95 34.99 44.83 36.65C45.71 38.31 46.11 40.18 45.97 42.04C45.83 43.91 45.16 45.70 44.04 47.22L53.00 55.90L50.52 58.30L41.57 49.62C40.22 50.55 38.67 51.15 37.04 51.39C35.40 51.62 33.73 51.48 32.17 50.98C30.60 50.47 29.18 49.61 28.02 48.47C26.86 47.33 25.99 45.94 25.49 44.41C24.99 42.89 24.87 41.27 25.13 39.69C25.40 38.11 26.04 36.61 27.02 35.32C27.99 34.02 29.27 32.97 30.74 32.25C32.21 31.52 33.84 31.15 35.50 31.15ZM35.50 48.12C36.88 48.12 38.23 47.72 39.38 46.97C40.54 46.23 41.43 45.17 41.96 43.93C42.49 42.69 42.63 41.32 42.36 40.00C42.09 38.69 41.42 37.48 40.45 36.53C39.47 35.58 38.22 34.93 36.86 34.67C35.50 34.41 34.10 34.54 32.82 35.06C31.54 35.57 30.44 36.44 29.68 37.56C28.91 38.67 28.50 39.99 28.50 41.33C28.50 43.13 29.24 44.85 30.55 46.13C31.86 47.40 33.64 48.11 35.50 48.12Z" fill="#1A1919"/>
</svg>
