<svg width="32" height="32" viewBox="4 4 56 56" xmlns="http://www.w3.org/2000/svg">
<path d="M32 56.5C37.79 56.5 42.74 54.44 46.84 50.34C50.94 46.24 53 41.29 53 35.5V14.5L32 7.5L11 14.5V35.5C11 41.29 13.05 46.24 17.15 50.34C21.25 54.44 26.20 56.5 32 56.5ZM32 52.56C27.29 52.56 23.27 50.89 19.94 47.55C16.60 44.22 14.93 40.20 14.93 35.5V17.45L32 11.43L49.06 17.45V35.5C49.06 40.20 47.39 44.22 44.05 47.55C40.72 50.89 36.70 52.56 32 52.56ZM30.41 41.21L45.31 26.41L42.48 23.73L30.41 35.71L23.32 28.65L20.55 31.32L30.41 41.21Z" fill="#1A1919"/>
</svg>
