<svg width="32" height="32" viewBox="4 4 56 56" xmlns="http://www.w3.org/2000/svg">
<path d="M31.12 26.75C32.57 26.75 33.75 25.57 33.75 24.12C33.75 22.67 32.57 21.5 31.12 21.5C29.67 21.5 28.5 22.67 28.5 24.12C28.5 25.57 29.67 26.75 31.12 26.75Z" fill="#1A1919"/>
<path d="M39.87 33.75C41.32 33.75 42.5 32.57 42.5 31.12C42.5 29.67 41.32 28.5 39.87 28.5C38.42 28.5 37.25 29.67 37.25 31.12C37.25 32.57 38.42 33.75 39.87 33.75Z" fill="#1A1919"/>
<path d="M32 33.75C32.96 33.75 33.75 32.96 33.75 32C33.75 31.03 32.96 30.25 32 30.25C31.03 30.25 30.25 31.03 30.25 32C30.25 32.96 31.03 33.75 32 33.75Z" fill="#1A1919"/>
<path d="M32.87 42.5C34.32 42.5 35.5 41.32 35.5 39.87C35.5 38.42 34.32 37.25 32.87 37.25C31.42 37.25 30.25 38.42 30.25 39.87C30.25 41.32 31.42 42.5 32.87 42.5Z" fill="#1A1919"/>
<path d="M24.12 35.5C25.57 35.5 26.75 34.32 26.75 32.87C26.75 31.42 25.57 30.25 24.12 30.25C22.67 30.25 21.5 31.42 21.5 32.87C21.5 34.32 22.67 35.5 24.12 35.5Z" fill="#1A1919"/>
<path d="M53 26.75V30.25H49.41C49.06 26.83 47.71 23.59 45.53 20.93L48.05 18.42L50.52 20.89L53 18.42L45.57 11L43.10 13.47L45.57 15.94L43.06 18.46C40.40 16.28 37.16 14.93 33.75 14.58V11H37.25V7.5H26.75V11H30.25V14.58C26.83 14.93 23.59 16.28 20.93 18.46L18.42 15.94L20.89 13.47L18.42 11L11 18.42L13.47 20.89L15.94 18.42L18.46 20.93C16.28 23.59 14.93 26.83 14.58 30.25H11V26.75H7.5V37.25H11V33.75H14.58C14.93 37.16 16.28 40.40 18.46 43.06L15.94 45.57L13.47 43.10L11 45.57L18.42 53L20.89 50.52L18.42 48.05L20.93 45.53C23.59 47.71 26.83 49.06 30.25 49.41V53H26.75V56.5H37.25V53H33.75V49.41C37.16 49.06 40.40 47.71 43.06 45.53L45.57 48.05L43.10 50.52L45.57 53L53 45.57L50.52 43.10L48.05 45.57L45.53 43.06C47.71 40.40 49.06 37.16 49.41 33.75H53V37.25H56.5V26.75H53ZM32 46C29.23 46 26.52 45.17 24.22 43.64C21.91 42.10 20.12 39.91 19.06 37.35C18.00 34.79 17.72 31.98 18.26 29.26C18.80 26.55 20.14 24.05 22.10 22.10C24.05 20.14 26.55 18.80 29.26 18.26C31.98 17.72 34.79 18.00 37.35 19.06C39.91 20.12 42.10 21.91 43.64 24.22C45.17 26.52 46 29.23 46 32C45.99 35.71 44.51 39.27 41.89 41.89C39.27 44.51 35.71 45.99 32 46Z" fill="#1A1919"/>
</svg>
