<svg width="32" height="32" viewBox="4 4 56 56" xmlns="http://www.w3.org/2000/svg">
<path d="M47.75 7.5C39.52 7.5 32.70 12.57 29.90 19.75C27.62 16.6 23.95 14.5 19.75 14.5H14.50V19.75C14.50 26.57 19.92 32 26.75 32H28.50V47.75C24.47 48.1 20.80 49.85 17.82 52.82L20.27 55.27C22.90 52.65 26.40 51.25 30.25 51.25C34.97 51.25 39.35 53.52 41.97 57.55L44.95 55.62C41.97 51.25 37.25 48.45 32.17 47.92V32H33.92C44.60 32 53.17 23.42 53.17 12.75V7.5H47.75ZM26.75 28.5C21.85 28.5 18.00 24.65 18.00 19.75V18H19.75C24.65 18 28.50 21.85 28.50 26.75V28.5H26.75ZM49.50 12.75C49.50 21.5 42.50 28.5 33.75 28.5H32.00V26.75C32.00 18 39.00 11 47.75 11H49.50V12.75Z" fill="#1A1919"/>
</svg>
