<svg width="32" height="32" viewBox="4 4 56 56" xmlns="http://www.w3.org/2000/svg">
<path d="M44.25 19.75H54.75C56.68 19.75 58.25 18.19 58.25 16.25V9.25C58.25 7.32 56.68 5.75 54.75 5.75H44.25C42.31 5.75 40.75 7.32 40.75 9.25V11.00H23.25V9.25C23.25 7.32 21.68 5.75 19.75 5.75H9.25C7.31 5.75 5.75 7.32 5.75 9.25V16.25C5.75 18.19 7.31 19.75 9.25 19.75H19.75C21.68 19.75 23.25 18.19 23.25 16.25V14.50H30.25V49.50C30.25 51.44 31.81 53.00 33.75 53.00H40.75V54.75C40.75 56.69 42.31 58.25 44.25 58.25H54.75C56.68 58.25 58.25 56.69 58.25 54.75V47.75C58.25 45.82 56.68 44.25 54.75 44.25H44.25C42.31 44.25 40.75 45.82 40.75 47.75V49.50H33.75V33.75H40.75V35.50C40.75 37.44 42.31 39.00 44.25 39.00H54.75C56.68 39.00 58.25 37.44 58.25 35.50V28.50C58.25 26.57 56.68 25.00 54.75 25.00H44.25C42.31 25.00 40.75 26.57 40.75 28.50V30.25H33.75V14.50H40.75V16.25C40.75 18.19 42.31 19.75 44.25 19.75ZM44.25 9.25H54.75V16.25H44.25V9.25ZM19.75 16.25H9.25V9.25H19.75V16.25ZM44.25 47.75H54.75V54.75H44.25V47.75ZM44.25 28.50H54.75V35.50H44.25V28.50Z" fill="#1A1919"/>
</svg>
