<svg width="32" height="32" viewBox="4 4 56 56" xmlns="http://www.w3.org/2000/svg">
<path d="M11 11H53C54.93 11 56.5 12.56 56.5 14.5V49.5C56.5 51.43 54.93 53 53 53H11C9.06 53 7.5 51.43 7.5 49.5V14.5C7.5 12.56 9.06 11 11 11ZM53 49.5V14.5H11V49.5H53Z" fill="#1A1919"/>
<path d="M14.5 21.5H26.75V25H14.5V21.5ZM14.5 28.5H21.5V32H14.5V28.5ZM33.75 35.5H44.25C47.14 35.5 49.5 37.85 49.5 40.75V44.25H46V40.75C46 39.78 45.21 39 44.25 39H33.75C32.78 39 32 39.78 32 40.75V44.25H28.5V40.75C28.5 37.85 30.85 35.5 33.75 35.5Z" fill="#1A1919"/>
<path d="M46 26.75C46 30.61 42.86 33.75 39 33.75C35.13 33.75 32 30.61 32 26.75C32 22.88 35.13 19.75 39 19.75C42.86 19.75 46 22.88 46 26.75ZM42.5 26.75C42.5 24.81 40.93 23.25 39 23.25C37.06 23.25 35.5 24.81 35.5 26.75C35.5 28.68 37.06 30.25 39 30.25C40.93 30.25 42.5 28.68 42.5 26.75Z" fill="#1A1919"/>
</svg>
