<svg width="32" height="32" viewBox="4 4 56 56" xmlns="http://www.w3.org/2000/svg">
<path d="M33.64 33.64H20.47V36.94H33.64V33.64Z" fill="#1A1919"/>
<path d="M40.23 25.41H20.47V28.70H40.23V25.41Z" fill="#1A1919"/>
<path d="M28.70 41.88H20.47V45.17H28.70V41.88Z" fill="#1A1919"/>
<path fill-rule="evenodd" clip-rule="evenodd" d="M45.17 12.23H40.23V10.58C40.23 9.71 39.88 8.87 39.27 8.25C38.65 7.64 37.81 7.29 36.94 7.29H23.76C22.89 7.29 22.05 7.64 21.43 8.25C20.81 8.87 20.47 9.71 20.47 10.58V12.23H15.52C14.65 12.23 13.81 12.58 13.20 13.19C12.58 13.81 12.23 14.65 12.23 15.52V50.11C12.23 50.99 12.58 51.82 13.20 52.44C13.81 53.06 14.65 53.41 15.52 53.41H29.52V50.11H15.52V15.52H20.47V20.47H40.23V15.52H45.17V30.35H48.47V15.52C48.47 14.65 48.12 13.81 47.50 13.19C46.88 12.58 46.05 12.23 45.17 12.23ZM36.94 10.58H23.76V17.17H36.94V10.58Z" fill="#1A1919"/>
<path d="M49.43 51.76L45.17 47.50V40.23H48.47V46.14L51.76 49.43L49.43 51.76Z" fill="#1A1919"/>
<path d="M46.82 59.99C44.21 59.99 41.66 59.22 39.50 57.77C37.33 56.33 35.64 54.27 34.65 51.86C33.65 49.45 33.39 46.80 33.90 44.25C34.40 41.69 35.66 39.34 37.50 37.50C39.34 35.66 41.69 34.40 44.25 33.90C46.80 33.39 49.45 33.65 51.86 34.65C54.27 35.64 56.33 37.33 57.77 39.50C59.22 41.66 60 44.21 60 46.82C59.99 50.31 58.60 53.66 56.13 56.13C53.66 58.60 50.31 59.99 46.82 59.99ZM46.82 36.94C44.86 36.94 42.95 37.52 41.33 38.60C39.70 39.69 38.44 41.23 37.69 43.04C36.94 44.84 36.74 46.83 37.13 48.75C37.51 50.66 38.45 52.42 39.83 53.81C41.21 55.19 42.97 56.13 44.89 56.51C46.81 56.89 48.79 56.70 50.60 55.95C52.41 55.20 53.95 53.93 55.04 52.31C56.12 50.68 56.70 48.77 56.70 46.82C56.70 44.20 55.66 41.69 53.80 39.83C51.95 37.98 49.44 36.94 46.82 36.94Z" fill="#1A1919"/>

</svg>
