<svg width="32" height="32" viewBox="4 4 56 56" xmlns="http://www.w3.org/2000/svg">
<path fill-rule="evenodd" clip-rule="evenodd" d="M36.72 8.02L48.97 20.27C49.32 20.58 49.51 21.03 49.5 21.50V53.00C49.5 54.93 47.93 56.50 46 56.50H18C16.06 56.50 14.5 54.93 14.5 53.00V11.00C14.5 9.06 16.06 7.50 18 7.50H35.5C35.96 7.48 36.41 7.67 36.72 8.02ZM23.96 38.28L28.5 42.81L40.03 31.28L42.5 33.74L28.5 47.74L21.5 40.74L23.96 38.28ZM35.5 11.70L45.3 21.50H35.5V11.70ZM18 53.00H46V25.00H35.5C33.56 25.00 32 23.43 32 21.50V11.00H18V53.00Z" fill="#1A1919"/>
</svg>
