<svg width="32" height="32" viewBox="4 4 56 56" xmlns="http://www.w3.org/2000/svg">
<path d="M33.75 39H30.25V46H33.75V39Z" fill="#1A1919"/>
<path d="M42.5 35.5H39V46H42.5V35.5Z" fill="#1A1919"/>
<path d="M25 28.5H21.5V46H25V28.5Z" fill="#1A1919"/>
<path d="M47.75 12.75H42.5V11C42.5 10.07 42.13 9.18 41.47 8.52C40.81 7.86 39.92 7.5 39 7.5H25C24.07 7.5 23.18 7.86 22.52 8.52C21.86 9.18 21.5 10.07 21.5 11V12.75H16.25C15.32 12.75 14.43 13.11 13.77 13.77C13.11 14.43 12.75 15.32 12.75 16.25V53C12.75 53.92 13.11 54.81 13.77 55.47C14.43 56.13 15.32 56.5 16.25 56.5H47.75C48.67 56.5 49.56 56.13 50.22 55.47C50.88 54.81 51.25 53.92 51.25 53V16.25C51.25 15.32 50.88 14.43 50.22 13.77C49.56 13.11 48.67 12.75 47.75 12.75ZM25 11H39V18H25V11ZM47.75 53H16.25V16.25H21.5V21.5H42.5V16.25H47.75V53Z" fill="#1A1919"/>
</svg>
