<svg width="32" height="32" viewBox="4 4 56 56" xmlns="http://www.w3.org/2000/svg">
<path d="M38.99 35.5H21.49V39H38.99V35.5Z" fill="#1A1919"/>
<path d="M42.49 26.75H21.49V30.25H42.49V26.75Z" fill="#1A1919"/>
<path d="M30.24 44.25H21.49V47.75H30.24V44.25Z" fill="#1A1919"/>
<path fill-rule="evenodd" clip-rule="evenodd" d="M47.75 12.75H42.5V11C42.5 10.07 42.13 9.18 41.47 8.52C40.81 7.86 39.92 7.5 39 7.5H25C24.07 7.5 23.18 7.86 22.52 8.52C21.86 9.18 21.5 10.07 21.5 11V12.75H16.25C15.32 12.75 14.43 13.11 13.77 13.77C13.11 14.43 12.75 15.32 12.75 16.25V53C12.75 53.92 13.11 54.81 13.77 55.47C14.43 56.13 15.32 56.5 16.25 56.5H31.12V53H16.25V16.25H21.5V21.5H42.5V16.25H47.75V32H51.25V16.25C51.25 15.32 50.88 14.43 50.22 13.77C49.56 13.11 48.67 12.75 47.75 12.75ZM39 11H25V18H39V11Z" fill="#1A1919"/>
<path d="M58.16 56.12L47.69 36.84C47.59 36.66 47.43 36.50 47.25 36.39C47.07 36.28 46.86 36.23 46.64 36.23C46.43 36.23 46.22 36.28 46.03 36.39C45.85 36.50 45.70 36.66 45.59 36.84L35.12 56.12C35.02 56.30 34.97 56.51 34.98 56.71C34.98 56.92 35.04 57.13 35.14 57.31C35.25 57.48 35.40 57.63 35.58 57.74C35.76 57.84 35.97 57.89 36.17 57.89H57.11C57.32 57.89 57.52 57.84 57.70 57.74C57.88 57.63 58.03 57.48 58.14 57.31C58.25 57.13 58.30 56.92 58.31 56.71C58.31 56.51 58.26 56.30 58.16 56.12ZM45.39 42.89H47.89V49.56H45.39V42.89ZM46.64 54.56C46.31 54.56 45.99 54.46 45.72 54.28C45.44 54.10 45.23 53.84 45.10 53.53C44.98 53.23 44.94 52.89 45.01 52.57C45.07 52.24 45.23 51.95 45.46 51.71C45.70 51.48 45.99 51.32 46.32 51.26C46.64 51.19 46.97 51.23 47.28 51.35C47.58 51.48 47.84 51.69 48.03 51.97C48.21 52.24 48.31 52.56 48.31 52.89C48.31 53.33 48.13 53.76 47.82 54.07C47.51 54.38 47.08 54.56 46.64 54.56Z" fill="#1A1919"/>
</svg>
