<svg width="32" height="32" viewBox="4 4 56 56" xmlns="http://www.w3.org/2000/svg">
<path d="M49.50 11C51.43 11 53.00 12.56 53.00 14.5V25H49.50V14.5H42.50V18H39.00V14.5H25.00V18H21.50V14.5H14.50V49.5H21.50V53H14.50C12.56 53 11.00 51.43 11.00 49.5V14.5C11.00 12.56 12.56 11 14.50 11H21.50V7.5H25.00V11H39.00V7.5H42.50V11H49.50ZM26.75 40.75C26.75 48.48 33.01 54.75 40.75 54.75C48.48 54.75 54.75 48.48 54.75 40.75C54.75 33.01 48.48 26.75 40.75 26.75C33.01 26.75 26.75 33.01 26.75 40.75ZM39.12 47.21L48.77 37.67L45.94 34.98L39.12 41.72L36.40 39.03L33.64 41.70L39.12 47.21ZM30.25 40.75C30.25 34.95 34.95 30.25 40.75 30.25C46.54 30.25 51.25 34.95 51.25 40.75C51.25 46.54 46.54 51.25 40.75 51.25C34.95 51.25 30.25 46.54 30.25 40.75Z" fill="#1A1919"/>
</svg>
