<svg width="32" height="32" viewBox="4 4 56 56" xmlns="http://www.w3.org/2000/svg">
<path d="M57.11 10.77L54.63 8.29L31.37 31.56C31.05 31.89 30.87 32.33 30.88 32.79C30.88 33.25 31.07 33.68 31.39 34.01C31.71 34.33 32.15 34.52 32.61 34.52C33.07 34.53 33.51 34.35 33.84 34.03L41.16 26.72C42.52 28.64 43.19 30.96 43.08 33.30C42.96 35.65 42.06 37.89 40.52 39.67C38.97 41.44 36.88 42.65 34.57 43.09C32.26 43.53 29.87 43.19 27.78 42.10C25.69 41.02 24.02 39.27 23.05 37.13C22.08 34.99 21.85 32.59 22.41 30.30C22.96 28.02 24.27 25.98 26.12 24.53C27.97 23.08 30.25 22.29 32.61 22.29V18.79C29.44 18.79 26.36 19.86 23.88 21.83C21.39 23.80 19.65 26.55 18.93 29.63C18.21 32.72 18.56 35.96 19.92 38.82C21.28 41.69 23.57 44.00 26.41 45.40C29.26 46.79 32.49 47.18 35.59 46.51C38.68 45.83 41.46 44.12 43.46 41.66C45.46 39.21 46.57 36.14 46.61 32.97C46.64 29.80 45.60 26.72 43.66 24.21L48.64 19.23C51.86 23.01 53.62 27.82 53.61 32.79C53.61 36.95 52.37 41.01 50.07 44.46C47.76 47.91 44.48 50.60 40.64 52.19C36.81 53.78 32.58 54.20 28.51 53.39C24.44 52.58 20.69 50.58 17.76 47.64C14.82 44.71 12.82 40.96 12.01 36.89C11.20 32.82 11.62 28.59 13.20 24.76C14.79 20.92 17.49 17.64 20.94 15.33C24.39 13.02 28.45 11.79 32.61 11.79V8.29C27.76 8.29 23.02 9.73 18.99 12.42C14.97 15.11 11.83 18.94 9.97 23.42C8.12 27.89 7.63 32.82 8.58 37.57C9.52 42.33 11.86 46.69 15.28 50.12C18.71 53.54 23.07 55.88 27.83 56.82C32.58 57.77 37.51 57.28 41.98 55.43C46.46 53.57 50.29 50.43 52.98 46.40C55.67 42.38 57.11 37.64 57.11 32.79C57.13 26.90 55.00 21.20 51.12 16.76L57.11 10.77Z" fill="#1A1919"/>
</svg>
