<svg width="64" height="64" viewBox="0 0 64 64" xmlns="http://www.w3.org/2000/svg">
<path class="seg-large" d="M56.31 47.71C44.82 61.02 24.62 62.42 11.19 50.83C-2.23 39.24 -3.80 19.05 7.68 5.74C8.00 5.38 8.32 5.02 8.64 4.68C15.70 3.07 23.06 2.93 30.23 4.29L33.65 5.02C36.07 5.49 38.78 6.42 41.77 7.78C46.26 9.84 51.04 12.85 54.97 16.24L63.84 23.90C64.66 32.26 62.20 40.89 56.31 47.71Z" fill="#8AC3FF"/>
<path class="seg-little" d="M39.45 38.24C33.52 40.30 27.23 39.08 22.51 35.51C20.47 27.22 23.94 18.67 30.85 14.24C30.98 14.16 31.12 14.11 31.27 14.09C36.64 13.55 41.95 15.33 45.98 18.83L46.94 19.71C47.64 20.32 48.34 21.12 49.05 22.13C49.78 23.16 50.46 24.35 51.03 25.58C49.54 31.31 45.38 36.17 39.45 38.24Z" fill="#92D65C"/>
<path d="M51.25 30.65V33.33L54.55 36.35C55.81 37.46 56.11 39.30 55.27 40.75L51.28 47.75C50.66 48.83 49.50 49.49 48.25 49.5C47.87 49.50 47.49 49.44 47.13 49.32L42.90 47.89C42.16 48.37 41.39 48.81 40.59 49.20L39.7 53.61C39.36 55.27 37.89 56.46 36.2 56.43H27.94C26.24 56.46 24.77 55.27 24.44 53.61L23.54 49.20C22.75 48.81 21.98 48.37 21.25 47.89L17.00 49.32C16.64 49.44 16.26 49.50 15.88 49.5C14.63 49.49 13.47 48.83 12.85 47.75L8.72 40.75C7.84 39.28 8.14 37.40 9.44 36.28L12.75 33.34V30.67L9.44 27.64C8.18 26.53 7.88 24.69 8.72 23.25L12.85 16.25C13.47 15.16 14.63 14.50 15.88 14.5C16.25 14.47 16.63 14.50 17.00 14.60L21.16 16.11C21.90 15.62 22.67 15.18 23.47 14.79L24.37 10.38C24.70 8.72 26.17 7.53 27.87 7.56H36.06C37.75 7.53 39.22 8.72 39.56 10.38L40.45 14.79C41.24 15.18 42.01 15.62 42.74 16.11L46.99 14.67C47.35 14.55 47.73 14.49 48.11 14.5C49.36 14.50 50.52 15.16 51.14 16.25L55.27 23.25C56.16 24.70 55.88 26.58 54.61 27.71L51.25 30.65ZM42.11 43.97L48.11 46L52.24 39L47.48 34.67C47.81 32.86 47.81 31.01 47.48 29.2L52.24 25L48.11 18L42.09 19.96C40.68 18.78 39.09 17.85 37.37 17.21L36.12 11H27.86L26.62 17.28C24.89 17.90 23.29 18.83 21.88 20.03L15.88 18L11.75 25L16.51 29.32C16.18 31.13 16.18 32.98 16.51 34.8L11.75 39L15.88 46L21.90 44.04C23.31 45.21 24.90 46.14 26.62 46.78L27.86 53H36.12L37.37 46.71C39.10 46.09 40.70 45.16 42.11 43.97Z" fill="#1A1919"/>
<path d="M21.5 32C21.5 37.79 26.20 42.5 32 42.5C34.79 42.52 37.48 41.43 39.45 39.45C41.43 37.48 42.52 34.79 42.5 32C42.5 26.20 37.79 21.5 32 21.5C26.20 21.5 21.5 26.20 21.5 32ZM27.00 27.00C28.32 25.68 30.13 24.95 32 25C33.86 24.95 35.67 25.68 36.99 27.00C38.32 28.32 39.04 30.13 39 32C39.04 33.86 38.32 35.67 36.99 36.99C35.67 38.32 33.86 39.04 32 39C30.13 39.04 28.32 38.32 27.00 36.99C25.67 35.67 24.95 33.86 25 32C24.95 30.13 25.67 28.32 27.00 27.00Z" fill="#1A1919"/>
</svg>
