<svg width="64" height="64" viewBox="0 0 64 64" xmlns="http://www.w3.org/2000/svg">
<path class="seg-large" d="M2.07 27.00C2.07 18.10 5.36 9.97 10.78 3.76H27.50C45.21 3.76 60.06 16.12 63.95 32.69C64.01 32.97 64.01 33.26 63.95 33.54C61.57 43.69 55.09 52.25 46.34 57.37L44.16 58.58C42.64 59.46 40.76 60.23 38.51 60.89C36.86 61.38 35.06 61.77 33.22 62.04C15.69 60.04 2.07 45.12 2.07 27.00Z" fill="#FAD7D1"/>
<path class="seg-little" d="M33.25 43.98C27.39 46.21 21.14 45.08 16.44 41.54C14.35 33.11 17.72 24.32 24.54 19.65C24.66 19.57 24.80 19.51 24.95 19.49C30.27 18.83 35.55 20.54 39.57 24.03L40.53 24.91C41.23 25.52 41.93 26.33 42.64 27.34C43.37 28.37 44.06 29.58 44.63 30.83C43.20 36.70 39.11 41.75 33.25 43.98Z" fill="#47C9EB"/>
<path d="M32 56.5C37.79 56.5 42.74 54.44 46.84 50.34C50.94 46.24 53 41.29 53 35.5V14.5L32 7.5L11 14.5V35.5C11 41.29 13.05 46.24 17.15 50.34C21.25 54.44 26.20 56.5 32 56.5ZM32 52.56C27.29 52.56 23.27 50.89 19.94 47.55C16.60 44.22 14.93 40.20 14.93 35.5V17.45L32 11.43L49.06 17.45V35.5C49.06 40.20 47.39 44.22 44.05 47.55C40.72 50.89 36.70 52.56 32 52.56ZM30.41 41.21L45.31 26.41L42.48 23.73L30.41 35.71L23.32 28.65L20.55 31.32L30.41 41.21Z" fill="#1A1919"/>
</svg>
