<svg width="64" height="64" viewBox="0 0 64 64" xmlns="http://www.w3.org/2000/svg">
<path class="seg-large" d="M59.69 43.06C50.86 58.17 31.29 63.35 15.99 54.63C0.69 45.90 -4.54 26.58 4.29 11.46C4.53 11.05 4.78 10.65 5.03 10.25C11.66 7.35 18.86 5.82 26.14 5.79L29.64 5.85C32.10 5.86 34.92 6.24 38.11 7.00C42.88 8.15 48.13 10.18 52.61 12.73L62.72 18.50C65.05 26.46 64.22 35.32 59.69 43.06Z" fill="#D8D0FB"/>
<path class="seg-little" d="M58.96 8.29C59.66 8.22 60.31 8.72 60.39 9.42L63.01 30.89C63.27 32.99 63.25 35.06 63.00 37.07C61.65 37.47 60.24 37.75 58.78 37.91C45.64 39.35 33.70 29.95 32.11 16.92C31.87 14.99 31.88 13.08 32.10 11.23L58.96 8.29Z" fill="#F6D965"/>
<path d="M9.24 9.25V12.74H19.74V16.24H9.24L9.24 33.74L14.5 33.75L25.69 53.05C24.09 53.97 22.06 53.49 21.04 51.99L20.90 51.77L12.48 37.24H9.24L9.24 40.74H5.75V9.25H9.24ZM27.35 42.02L32.68 51.26C31.08 52.18 29.05 51.70 28.03 50.20L27.89 49.98L24.31 43.77L27.35 42.02ZM32.44 36.94L39.67 49.48C38.07 50.40 36.04 49.92 35.02 48.42L34.88 48.20L29.41 38.69L32.44 36.94ZM44.65 11.00L54.74 16.80L54.74 12.74H58.24V44.24H54.74L54.74 40.74H50.74L50.98 41.16C51.90 42.75 51.42 44.77 49.93 45.79L49.70 45.94L46.67 47.69C45.07 48.61 43.06 48.13 42.03 46.64L41.89 46.41L34.55 33.69L37.58 31.94L44.92 44.66L47.95 42.91L36.93 23.81L32.35 23.81L27.30 28.86C25.34 30.83 22.19 30.91 20.13 29.09L19.88 28.86L18.64 27.62C17.35 26.33 17.28 24.27 18.44 22.89L18.64 22.67L29.29 12.02C29.89 11.43 30.67 11.07 31.50 11.01L31.81 11.00L44.65 11.00ZM43.71 14.50L31.77 14.50L21.12 25.15L22.36 26.38C22.99 27.01 23.98 27.06 24.66 26.53L24.83 26.38L29.88 21.33C30.46 20.75 31.23 20.39 32.05 20.32L32.36 20.31L36.98 20.31C38.11 20.33 39.16 20.89 39.80 21.82L39.96 22.06L48.72 37.24H54.74V20.84L43.71 14.50Z" fill="#1A1919"/>
</svg>
