<svg width="64" height="64" viewBox="0 0 64 64" xmlns="http://www.w3.org/2000/svg">
<path class="seg-large" d="M31.97 0.44C45.28 0.44 57.02 7.45 63.98 18.12C62.27 36.58 49.37 51.63 32.45 55.78C32.14 55.85 31.82 55.85 31.51 55.78C20.38 53.05 11.00 45.62 5.38 35.58L4.05 33.08C3.09 31.34 2.25 29.18 1.53 26.60C0.79 23.99 0.25 21.05 -0.01 18.11C6.94 7.44 18.67 0.44 31.97 0.44Z" fill="#FCF3CF"/>
<path class="seg-little" d="M10.68 25.77C10.68 19.49 13.91 13.95 18.83 10.67C27.33 11.47 34.26 17.56 36.18 25.55C36.21 25.69 36.21 25.84 36.18 25.99C34.92 31.24 31.49 35.67 26.87 38.32L25.72 38.95C24.92 39.40 23.92 39.80 22.74 40.14C21.53 40.49 20.18 40.74 18.82 40.87C13.91 37.59 10.68 32.05 10.68 25.77Z" fill="#92D65C"/>
<path d="M47.75 7.5C39.52 7.5 32.70 12.57 29.90 19.75C27.62 16.6 23.95 14.5 19.75 14.5H14.50V19.75C14.50 26.57 19.92 32 26.75 32H28.50V47.75C24.47 48.1 20.80 49.85 17.82 52.82L20.27 55.27C22.90 52.65 26.40 51.25 30.25 51.25C34.97 51.25 39.35 53.52 41.97 57.55L44.95 55.62C41.97 51.25 37.25 48.45 32.17 47.92V32H33.92C44.60 32 53.17 23.42 53.17 12.75V7.5H47.75ZM26.75 28.5C21.85 28.5 18.00 24.65 18.00 19.75V18H19.75C24.65 18 28.50 21.85 28.50 26.75V28.5H26.75ZM49.50 12.75C49.50 21.5 42.50 28.5 33.75 28.5H32.00V26.75C32.00 18 39.00 11 47.75 11H49.50V12.75Z" fill="#1A1919"/>
</svg>
