<svg width="64" height="64" viewBox="0 0 64 64" fill="none" xmlns="http://www.w3.org/2000/svg">
<path d="M42.31 49.63C30.96 57.09 17.12 57.83 5.33996 52.85C-3.29004 36.52 -0.520043 16.76 11.63 3.82001C11.85 3.59001 12.13 3.41001 12.43 3.30001C23.41 -0.659985 35.49 0.260015 45.77 5.47001L48.27 6.81001C50.04 7.72001 51.94 9.05001 53.96 10.78C56.02 12.55 58.09 14.69 59.93 16.99C59.83 29.77 53.66 42.18 42.31 49.63Z" fill="#FCF3CF"/>
<path d="M48.7101 33.56C49.3201 33.21 50.1101 33.41 50.4701 34.01L61.5101 52.61C62.5901 54.43 63.4201 56.33 63.9901 58.27C62.9101 59.18 61.7401 60.01 60.4701 60.74C49.0201 67.35 34.3101 63.56 27.6001 52.27C26.6101 50.6 25.8401 48.85 25.3101 47.07L48.7101 33.56Z" fill="#EB6047"/>
<path d="M42.73 14.43V21.31H10.93V14.43H42.73ZM42.73 11H10.93C10.02 11 9.15 11.36 8.5 12C7.86 12.65 7.5 13.52 7.5 14.43V21.31C7.5 22.22 7.86 23.09 8.5 23.74C9.15 24.38 10.02 24.75 10.93 24.75H42.73C43.64 24.75 44.52 24.38 45.16 23.74C45.8 23.09 46.17 22.22 46.17 21.31V14.43C46.17 13.52 45.8 12.65 45.16 12C44.52 11.36 43.64 11 42.73 11Z" fill="#1A1919"/>
<path d="M17.81 31.62V48.81H10.93V31.62H17.81ZM17.81 28.18H10.93C10.02 28.18 9.15 28.54 8.5 29.19C7.86 29.83 7.5 30.71 7.5 31.62V48.81C7.5 49.72 7.86 50.59 8.5 51.24C9.15 51.88 10.02 52.25 10.93 52.25H17.81C18.72 52.25 19.59 51.88 20.24 51.24C20.88 50.59 21.25 49.72 21.25 48.81V31.62C21.25 30.71 20.88 29.83 20.24 29.19C19.59 28.54 18.72 28.18 17.81 28.18Z" fill="#1A1919"/>
<path d="M28.1202 31.62V48.81H30.7002V52.25H28.1202C27.2102 52.25 26.3302 51.88 25.6902 51.24C25.0402 50.59 24.6802 49.72 24.6802 48.81V31.62C24.6802 30.71 25.0402 29.83 25.6902 29.19C26.3302 28.54 27.2102 28.18 28.1202 28.18H42.8802C43.7902 28.18 44.6602 28.54 45.3102 29.19C45.9502 29.83 46.3102 30.71 46.3102 31.62V33.34H42.8802V31.62H28.1202Z" fill="#1A1919"/>
<path d="M56.69 55.63L46.21 36.35C46.11 36.16 45.96 36.01 45.77 35.9C45.59 35.79 45.38 35.73 45.17 35.73C44.95 35.73 44.74 35.79 44.56 35.9C44.37 36.01 44.22 36.16 44.12 36.35L33.65 55.63C33.55 55.81 33.5 56.01 33.5 56.22C33.5 56.43 33.56 56.63 33.67 56.81C33.78 56.99 33.93 57.14 34.11 57.24C34.29 57.35 34.49 57.4 34.7 57.4H55.63C55.84 57.4 56.05 57.35 56.23 57.24C56.41 57.14 56.56 56.99 56.66 56.81C56.77 56.63 56.83 56.43 56.83 56.22C56.84 56.01 56.79 55.81 56.69 55.63ZM43.92 42.4H46.42V49.07H43.92V42.4ZM45.17 54.07C44.84 54.07 44.51 53.97 44.24 53.79C43.97 53.6 43.75 53.34 43.63 53.04C43.5 52.73 43.47 52.4 43.53 52.08C43.6 51.75 43.76 51.46 43.99 51.22C44.22 50.99 44.52 50.83 44.84 50.77C45.17 50.7 45.5 50.73 45.8 50.86C46.11 50.99 46.37 51.2 46.55 51.47C46.74 51.75 46.83 52.07 46.83 52.4C46.83 52.84 46.66 53.27 46.35 53.58C46.03 53.89 45.61 54.07 45.17 54.07Z" fill="#1A1919"/>
</svg>
