<svg width="64" height="64" viewBox="0 0 64 64" xmlns="http://www.w3.org/2000/svg">
<path class="seg-large" d="M59.49 44.12C50.69 59.18 31.19 64.34 15.94 55.64C0.69 46.95 -4.52 27.69 4.27 12.62C4.51 12.21 4.76 11.81 5.02 11.41C11.62 8.52 18.79 7.00 26.06 6.97L29.54 7.03C31.99 7.03 34.80 7.42 37.98 8.18C42.74 9.32 47.97 11.34 52.43 13.89L62.51 19.64C64.83 27.57 64.01 36.40 59.49 44.12Z" fill="#B0E8E3"/>
<path class="seg-little" d="M20.68 32.77C20.68 26.49 23.91 20.95 28.83 17.67C37.33 18.47 44.26 24.56 46.18 32.55C46.21 32.69 46.21 32.84 46.18 32.99C44.92 38.24 41.49 42.67 36.87 45.32L35.72 45.95C34.92 46.40 33.92 46.80 32.74 47.14C31.53 47.49 30.18 47.74 28.82 47.87C23.91 44.59 20.68 39.05 20.68 32.77Z" fill="#EB6047"/>
<path d="M32.00 40.75C31.48 40.75 30.97 40.90 30.54 41.19C30.11 41.48 29.77 41.89 29.57 42.37C29.37 42.85 29.32 43.37 29.42 43.88C29.52 44.39 29.77 44.86 30.14 45.23C30.51 45.59 30.97 45.84 31.48 45.94C31.99 46.05 32.52 45.99 33.00 45.80C33.48 45.60 33.89 45.26 34.18 44.83C34.47 44.40 34.62 43.89 34.62 43.37C34.62 42.67 34.34 42.01 33.85 41.51C33.36 41.02 32.69 40.75 32.00 40.75Z" fill="#1A1919"/>
<path d="M33.75 18H30.25V35.5H33.75V18Z" fill="#1A1919"/>
<path d="M44.25 54.75H19.75C19.44 54.75 19.14 54.66 18.87 54.51C18.61 54.36 18.39 54.14 18.23 53.88L5.98 32.88C5.83 32.61 5.74 32.30 5.74 32C5.74 31.69 5.83 31.38 5.98 31.11L18.23 10.11C18.39 9.85 18.61 9.63 18.87 9.48C19.14 9.33 19.44 9.24 19.75 9.25H44.25C44.55 9.24 44.85 9.33 45.12 9.48C45.38 9.63 45.60 9.85 45.76 10.11L58.01 31.11C58.16 31.38 58.25 31.69 58.25 32C58.25 32.30 58.16 32.61 58.01 32.88L45.76 53.88C45.60 54.14 45.38 54.36 45.12 54.51C44.85 54.66 44.55 54.75 44.25 54.75ZM20.75 51.25H43.24L54.47 32L43.24 12.75H20.75L9.52 32L20.75 51.25Z" fill="#1A1919"/>
</svg>
