<svg width="64" height="64" viewBox="0 0 64 64" xmlns="http://www.w3.org/2000/svg">
<path class="seg-large" d="M38.69 1.33C39.70 0.75 41.01 1.10 41.59 2.11L59.61 33.31C61.37 36.37 62.71 39.55 63.64 42.80C61.85 44.31 59.90 45.69 57.81 46.90C38.87 57.83 14.66 51.34 3.73 32.40C2.11 29.59 0.87 26.66 0 23.68L38.69 1.33Z" fill="#D8D0FB"/>
<path class="seg-little" d="M19.21 26.12C24.65 22.98 31.06 23.01 36.36 25.62C39.92 33.39 38.11 42.44 32.15 48.08C32.04 48.19 31.91 48.26 31.77 48.30C26.59 49.84 21.05 49.09 16.44 46.41L15.32 45.73C14.53 45.26 13.69 44.60 12.80 43.74C11.89 42.87 11.00 41.83 10.21 40.72C10.60 34.82 13.78 29.26 19.21 26.12Z" fill="#34B2A7"/>
<path d="M12.17 53L23.35 32L36.13 43.35C36.94 44.07 38.03 44.38 39.10 44.18C40.18 43.97 41.09 43.28 41.59 42.30L51.25 23.07L48.06 21.5L38.45 40.75L25.68 29.39C24.89 28.65 23.80 28.32 22.74 28.5C21.69 28.67 20.77 29.31 20.25 30.25L11 47.75V7.5H7.5V53C7.5 54.93 9.06 56.5 11 56.5H56.5V53H12.17Z" fill="#1A1919"/>
</svg>
