<svg width="64" height="64" viewBox="0 0 64 64" xmlns="http://www.w3.org/2000/svg">
<path class="seg-large" d="M43.05 7.62C55.46 14.79 62.82 27.32 63.84 40.54C52.80 55.99 33.06 62.39 15.16 56.96C14.84 56.86 14.54 56.69 14.29 56.46C5.30 48.05 0.36 36.40 0.26 24.47L0.30 21.54C0.30 19.48 0.62 17.11 1.26 14.44C1.92 11.72 2.92 8.82 4.17 6.07C16.12 0.36 30.65 0.46 43.05 7.62Z" fill="#B0E8E3"/>
<path class="seg-little" d="M45.19 29.55C45.19 35.56 40.55 40.42 34.81 40.42C29.08 40.42 24.43 35.56 24.43 29.55C24.43 29.39 24.44 29.22 24.44 29.06C25.83 27.07 27.60 25.39 29.64 24.14L30.64 23.57C31.33 23.15 32.18 22.79 33.21 22.47C34.74 22.00 36.54 21.71 38.22 21.71H42.01C43.97 23.69 45.19 26.47 45.19 29.55Z" fill="#92D65C"/>
<path d="M58.14 31.40C56.08 26.08 52.51 21.47 47.86 18.16C43.22 14.84 37.70 12.96 32 12.75C26.29 12.96 20.77 14.84 16.13 18.16C11.48 21.47 7.91 26.08 5.85 31.40C5.71 31.78 5.71 32.21 5.85 32.59C7.91 37.91 11.48 42.52 16.13 45.83C20.77 49.15 26.29 51.03 32 51.25C37.70 51.03 43.22 49.15 47.86 45.83C52.51 42.52 56.08 37.91 58.14 32.59C58.28 32.21 58.28 31.78 58.14 31.40ZM32 47.75C22.72 47.75 12.92 40.87 9.37 32C12.92 23.12 22.72 16.25 32 16.25C41.27 16.25 51.07 23.12 54.62 32C51.07 40.87 41.27 47.75 32 47.75Z" fill="#1A1919"/>
<path d="M32 21.5C29.92 21.5 27.89 22.11 26.16 23.26C24.43 24.42 23.09 26.06 22.29 27.98C21.50 29.90 21.29 32.01 21.70 34.04C22.10 36.08 23.10 37.95 24.57 39.42C26.04 40.89 27.91 41.89 29.95 42.29C31.98 42.70 34.09 42.49 36.01 41.70C37.93 40.90 39.57 39.56 40.73 37.83C41.88 36.10 42.5 34.07 42.5 32C42.5 29.21 41.39 26.54 39.42 24.57C37.45 22.60 34.78 21.5 32 21.5ZM32 39C30.61 39 29.26 38.58 28.11 37.82C26.95 37.05 26.06 35.95 25.53 34.67C25.00 33.39 24.86 31.99 25.13 30.63C25.40 29.27 26.07 28.02 27.05 27.05C28.02 26.07 29.27 25.40 30.63 25.13C31.99 24.86 33.39 25.00 34.67 25.53C35.95 26.06 37.05 26.95 37.82 28.11C38.58 29.26 39 30.61 39 32C39 33.85 38.26 35.63 36.94 36.94C35.63 38.26 33.85 39 32 39Z" fill="#1A1919"/>
</svg>
