<svg width="64" height="64" viewBox="0 0 64 64" xmlns="http://www.w3.org/2000/svg">
<path class="seg-large" d="M25.14 62.67C24.13 63.25 22.82 62.90 22.24 61.89L4.23 30.69C2.46 27.63 1.13 24.45 0.19 21.20C1.98 19.69 3.93 18.32 6.03 17.10C24.96 6.17 49.17 12.66 60.10 31.60C61.73 34.41 62.97 37.34 63.84 40.32L25.14 62.67Z" fill="#FCF3CF"/>
<path class="seg-little" d="M21.06 35.00C21.06 28.73 24.34 23.29 29.32 20.15C37.94 21.19 44.96 27.47 46.90 35.50C46.93 35.65 46.93 35.80 46.90 35.94C45.63 41.15 42.16 45.48 37.47 47.99L36.30 48.58C35.49 49.01 34.48 49.38 33.28 49.69C32.06 50.00 30.69 50.22 29.32 50.31C24.33 46.89 21.06 41.27 21.06 35.00Z" fill="#007CFF"/>
<path fill-rule="evenodd" clip-rule="evenodd" d="M36.72 8.02L48.97 20.27C49.32 20.58 49.51 21.03 49.5 21.50V53.00C49.5 54.93 47.93 56.50 46 56.50H18C16.06 56.50 14.5 54.93 14.5 53.00V11.00C14.5 9.06 16.06 7.50 18 7.50H35.5C35.96 7.48 36.41 7.67 36.72 8.02ZM23.96 38.28L28.5 42.81L40.03 31.28L42.5 33.74L28.5 47.74L21.5 40.74L23.96 38.28ZM35.5 11.70L45.3 21.50H35.5V11.70ZM18 53.00H46V25.00H35.5C33.56 25.00 32 23.43 32 21.50V11.00H18V53.00Z" fill="#1A1919"/>
</svg>
