<svg width="64" height="64" viewBox="0 0 64 64" xmlns="http://www.w3.org/2000/svg">
<path class="seg-large" d="M40.76 1.84C49.66 1.84 57.79 5.12 64 10.55V27.26C64 44.98 51.64 59.83 35.07 63.72C34.79 63.78 34.50 63.78 34.22 63.72C24.07 61.34 15.51 54.86 10.38 46.11L9.18 43.93C8.30 42.41 7.53 40.53 6.87 38.28C6.38 36.63 5.99 34.83 5.72 32.99C7.72 15.45 22.64 1.84 40.76 1.84Z" fill="#B0E8E3"/>
<path class="seg-little" d="M52.32 58.84C47.96 60.49 43.32 59.66 39.82 57.02C38.27 50.76 40.78 44.22 45.84 40.76C45.94 40.69 46.04 40.65 46.15 40.64C50.11 40.15 54.03 41.42 57.01 44.01L57.73 44.66C58.25 45.11 58.77 45.72 59.30 46.47C59.84 47.24 60.35 48.13 60.78 49.06C59.72 53.42 56.68 57.18 52.32 58.84Z" fill="#8A72F3"/>
<path d="M33.75 33.75H42.74C43.62 37.16 46.91 39.38 50.40 38.94C53.90 38.50 56.52 35.52 56.52 32C56.52 28.47 53.90 25.5 50.40 25.05C46.91 24.61 43.62 26.83 42.74 30.25H33.75V16.25H42.74C43.62 19.66 46.91 21.88 50.40 21.44C53.90 21.00 56.52 18.02 56.52 14.5C56.52 10.97 53.90 7.99 50.40 7.55C46.91 7.11 43.62 9.33 42.74 12.75H33.75C31.81 12.75 30.25 14.31 30.25 16.25V30.25H21.25C20.37 26.83 17.08 24.61 13.59 25.05C10.09 25.5 7.47 28.47 7.47 32C7.47 35.52 10.09 38.50 13.59 38.94C17.08 39.38 20.37 37.16 21.25 33.75H30.25V47.75C30.25 49.68 31.81 51.24 33.75 51.25H42.74C43.62 54.66 46.91 56.88 50.40 56.44C53.90 56.00 56.52 53.02 56.52 49.5C56.52 45.97 53.90 43 50.40 42.55C46.91 42.11 43.62 44.33 42.74 47.75H33.75V33.75ZM49.5 28.5C51.43 28.5 53 30.06 53 32C53 33.93 51.43 35.5 49.5 35.5C47.56 35.5 46 33.93 46 32C46.00 30.06 47.56 28.50 49.5 28.5ZM49.5 11C51.43 11 53 12.56 53 14.5C53 16.43 51.43 18 49.5 18C47.56 18 46 16.43 46 14.5C46.00 12.56 47.56 11.00 49.5 11ZM14.5 35.5C12.56 35.5 11 33.93 11 32C11 30.06 12.56 28.5 14.5 28.5C16.43 28.5 18 30.06 18 32C17.99 33.93 16.43 35.49 14.5 35.5ZM49.5 46C51.43 46 53 47.56 53 49.5C53 51.43 51.43 53 49.5 53C47.56 53 46 51.43 46 49.5C46.00 47.56 47.56 46.00 49.5 46Z" fill="#1A1919"/>
</svg>
