<svg width="64" height="64" viewBox="0 0 64 64" xmlns="http://www.w3.org/2000/svg">
<path class="seg-large" d="M35.04 0.17C43.94 0.17 52.07 3.46 58.27 8.88V25.60C58.27 43.32 45.92 58.16 29.35 62.05C29.07 62.11 28.78 62.11 28.50 62.05C18.34 59.68 9.79 53.19 4.66 44.44L3.45 42.26C2.58 40.74 1.81 38.86 1.15 36.62C0.66 34.96 0.27 33.16 0 31.32C2.00 13.79 16.92 0.17 35.04 0.17Z" fill="#D8D0FB"/>
<path class="seg-little" d="M52.61 28.40C46.75 30.63 40.50 29.50 35.80 25.96C33.71 17.54 37.08 8.74 43.90 4.07C44.02 3.99 44.16 3.94 44.31 3.92C49.63 3.26 54.91 4.96 58.93 8.45L59.89 9.33C60.58 9.94 61.29 10.75 62.00 11.76C62.73 12.79 63.42 14.00 63.99 15.25C62.56 21.12 58.47 26.18 52.61 28.40Z" fill="#92D65C"/>
<path d="M42.5 42.5V53H14.5V11H32V7.5H14.5C13.57 7.5 12.68 7.86 12.02 8.52C11.36 9.18 11 10.07 11 11V53C11 53.92 11.36 54.81 12.02 55.47C12.68 56.13 13.57 56.5 14.5 56.5H42.5C43.42 56.5 44.31 56.13 44.97 55.47C45.63 54.81 46 53.92 46 53V42.5H42.5Z" fill="#1A1919"/>
<path d="M55.69 14.08L49.92 8.30C49.39 7.79 48.69 7.50 47.96 7.50C47.22 7.50 46.52 7.79 46 8.30L21.5 32.80V42.50H31.17L55.67 18.00C56.19 17.47 56.47 16.77 56.47 16.04C56.47 15.30 56.19 14.60 55.67 14.08H55.69ZM29.72 39.00H25V34.27L41.52 17.73L46.26 22.48L29.72 39.00ZM48.73 20.01L43.98 15.27L47.96 11.29L52.70 16.04L48.73 20.01Z" fill="#1A1919"/>
</svg>
