<svg width="64" height="64" viewBox="0 0 64 64" xmlns="http://www.w3.org/2000/svg">
<path class="seg-large" d="M15.07 4.51C30.38 -4.32 50.01 1.02 58.92 16.46C67.83 31.89 62.65 51.57 47.35 60.41C46.93 60.65 46.51 60.88 46.08 61.10C38.85 60.29 31.82 58.00 25.47 54.33L22.46 52.51C20.32 51.26 18.06 49.49 15.67 47.20C12.09 43.77 8.55 39.33 5.94 34.81L0.05 24.61C2.04 16.41 7.23 9.04 15.07 4.51Z" fill="#FAD7D1"/>
<path class="seg-little" d="M21.73 38.26C28.01 38.26 33.55 41.49 36.83 46.41C36.03 54.91 29.94 61.84 21.96 63.76C21.81 63.79 21.66 63.79 21.52 63.76C16.26 62.50 11.84 59.08 9.19 54.45L8.56 53.30C8.11 52.50 7.71 51.50 7.37 50.32C7.02 49.11 6.77 47.76 6.64 46.41C9.92 41.49 15.46 38.26 21.73 38.26Z" fill="#007CFF"/>
<path fill-rule="evenodd" clip-rule="evenodd" d="M7.5 32C7.5 18.46 18.46 7.5 32 7.5C38.49 7.5 44.72 10.08 49.32 14.67C53.91 19.27 56.5 25.50 56.5 32C56.5 45.53 45.53 56.5 32 56.5C18.46 56.5 7.5 45.53 7.5 32ZM34.62 45.12C34.62 46.57 33.44 47.75 32 47.75C30.55 47.75 29.37 46.57 29.37 45.12C29.37 43.67 30.55 42.5 32 42.5C33.44 42.5 34.62 43.67 34.62 45.12ZM33.75 18H31.12C29.03 17.99 27.02 18.82 25.55 20.30C24.07 21.77 23.24 23.78 23.25 25.87V26.75H26.75V25.87C26.75 23.45 28.70 21.5 31.12 21.5H33.75C36.16 21.5 38.12 23.45 38.12 25.87C38.12 28.29 36.16 30.25 33.75 30.25H30.25V38.12H33.75V33.75C38.09 33.75 41.62 30.22 41.62 25.87C41.62 21.52 38.09 18 33.75 18ZM11 32C11 43.59 20.40 53 32 53C43.59 53 53 43.59 53 32C53 20.40 43.59 11 32 11C20.40 11 11 20.40 11 32Z" fill="#1A1919"/>
</svg>
