<svg width="64" height="64" viewBox="0 0 64 64" xmlns="http://www.w3.org/2000/svg">
<path class="seg-large" d="M5.97 32.00C5.97 18.69 12.81 6.95 23.22 0C41.22 1.70 55.89 14.60 59.94 31.52C60.01 31.83 60.01 32.15 59.94 32.46C57.28 43.59 50.03 52.97 40.24 58.59L37.80 59.92C36.10 60.88 34.00 61.72 31.49 62.44C28.94 63.18 26.07 63.72 23.21 64C12.80 57.04 5.97 45.30 5.97 32.00Z" fill="#D1F2FA"/>
<path class="seg-little" d="M31.59 15.15C37.87 15.15 43.41 18.38 46.69 23.30C45.89 31.80 39.80 38.73 31.82 40.64C31.67 40.68 31.52 40.68 31.38 40.64C26.12 39.39 21.69 35.96 19.04 31.34L18.42 30.19C17.97 29.38 17.57 28.39 17.23 27.20C16.88 26.00 16.62 24.65 16.5 23.29C19.78 18.38 25.32 15.15 31.59 15.15Z" fill="#F6D965"/>
<path fill-rule="evenodd" clip-rule="evenodd" d="M12.75 25.84C12.89 15.54 21.51 7.30 32 7.43C42.48 7.30 51.10 15.54 51.25 25.84C51.24 29.84 49.89 33.73 47.4 36.89L32 58.99L16.6 36.89C14.10 33.73 12.75 29.84 12.75 25.84ZM47.75 25.84C47.58 17.44 40.54 10.75 32 10.87C23.45 10.75 16.41 17.44 16.25 25.84C16.24 29.14 17.38 32.35 19.48 34.93L32 52.91L44.61 34.79C46.64 32.24 47.75 29.08 47.75 25.84ZM32 21.18C34.89 21.18 37.25 23.49 37.25 26.34C37.25 29.19 34.89 31.49 32 31.49C29.10 31.49 26.75 29.19 26.75 26.34C26.75 23.49 29.10 21.18 32 21.18ZM23.25 26.34C23.25 21.59 27.16 17.74 32 17.74C36.83 17.74 40.75 21.59 40.75 26.34C40.75 31.08 36.83 34.93 32 34.93C27.16 34.93 23.25 31.08 23.25 26.34Z" fill="#1A1919"/>
</svg>
