<svg width="64" height="64" viewBox="0 0 64 64" xmlns="http://www.w3.org/2000/svg">
<path class="seg-large" d="M59.66 42.06C50.83 57.17 31.28 62.35 15.99 53.63C0.69 44.90 -4.53 25.58 4.28 10.47C4.52 10.05 4.77 9.65 5.03 9.25C11.66 6.35 18.85 4.82 26.13 4.79L29.62 4.85C32.08 4.86 34.90 5.24 38.08 6.01C42.86 7.15 48.10 9.18 52.58 11.73L62.69 17.50C65.01 25.46 64.18 34.32 59.66 42.06Z" fill="#FCF3CF"/>
<path class="seg-little" d="M25.68 48.59C25.07 48.94 24.28 48.74 23.92 48.14L12.88 29.54C11.80 27.72 10.97 25.82 10.40 23.88C11.48 22.97 12.65 22.14 13.92 21.41C25.37 14.80 40.08 18.59 46.79 29.87C47.78 31.55 48.54 33.30 49.08 35.08L25.68 48.59Z" fill="#B1A1F7"/>
<path d="M32 51.25C33.93 51.25 35.5 49.68 35.5 47.75C35.5 45.81 33.93 44.25 32 44.25C30.06 44.25 28.5 45.81 28.5 47.75C28.5 49.68 30.06 51.25 32 51.25Z" fill="#1A1919"/>
<path d="M56.5 9.97L54.02 7.5L7.5 54.02L9.97 56.5L28.66 37.80C30.46 37.19 32.39 37.08 34.24 37.49C36.10 37.89 37.81 38.80 39.18 40.11L41.66 37.64C39.23 35.31 36.04 33.94 32.69 33.78L38.61 27.85C41.61 28.84 44.34 30.50 46.60 32.69L49.08 30.22C46.84 28.04 44.21 26.32 41.33 25.14L46.57 19.89C49.31 21.31 51.81 23.12 54.02 25.27L56.5 22.80V22.79C54.30 20.65 51.84 18.80 49.16 17.30L56.5 9.97Z" fill="#1A1919"/>
<path d="M29.68 26.88L33.26 23.31C32.84 23.29 32.42 23.25 31.99 23.25C25.60 23.24 19.46 25.75 14.90 30.23L17.37 32.71C20.71 29.45 25.05 27.40 29.68 26.88Z" fill="#1A1919"/>
<path d="M32 16.25C34.49 16.25 36.98 16.56 39.40 17.16L42.28 14.29C36.25 12.44 29.84 12.25 23.71 13.74C17.59 15.24 11.99 18.37 7.5 22.79V22.83L9.95 25.29C15.82 19.49 23.74 16.24 32 16.25Z" fill="#1A1919"/>
</svg>
