<svg width="64" height="64" viewBox="0 0 64 64" xmlns="http://www.w3.org/2000/svg">
<path class="seg-large" d="M34.39 6.90C43.29 16.02 43.05 30.68 33.86 39.65C24.67 48.63 10.00 48.52 1.10 39.40C0.86 39.15 0.62 38.90 0.40 38.64C-0.32 33.45 0.02 28.13 1.45 23.04L2.19 20.62C2.68 18.90 3.51 17.01 4.68 14.93C6.44 11.82 8.91 8.56 11.60 5.93L17.68 0.00C23.76 -0.06 29.83 2.23 34.39 6.90Z" fill="#E4F5D6"/>
<path class="seg-large" d="M39.31 51.52C37.69 45.46 39.37 39.27 43.27 34.83C51.69 33.40 59.96 37.49 63.88 44.71C63.94 44.84 63.98 44.98 63.99 45.13C64.14 50.53 61.97 55.69 58.19 59.45L57.24 60.35C56.58 61.00 55.73 61.64 54.67 62.28C53.60 62.93 52.36 63.52 51.08 64.00C45.49 62.10 40.94 57.58 39.31 51.52Z" fill="#007CFF"/>
<path d="M12.75 47.75V31.69L6.47 37.97L4 35.5L14.5 25L25 35.5L22.52 37.97L16.25 31.69V47.75H37.25V51.25H16.25C15.32 51.24 14.43 50.87 13.77 50.22C13.12 49.56 12.75 48.67 12.75 47.75Z" fill="#1A1919"/>
<path d="M46 42.5H53C53.92 42.50 54.81 42.87 55.47 43.52C56.13 44.18 56.49 45.07 56.5 46V53C56.49 53.92 56.13 54.81 55.47 55.47C54.81 56.13 53.92 56.49 53 56.5H46C45.07 56.49 44.18 56.13 43.52 55.47C42.87 54.81 42.50 53.92 42.5 53V46C42.50 45.07 42.87 44.18 43.52 43.52C44.18 42.87 45.07 42.50 46 42.5ZM53 53V46H45.99L46 53H53Z" fill="#1A1919"/>
<path d="M51.25 14.5V30.55L57.52 24.27L60 26.75L49.5 37.25L39 26.75L41.47 24.27L47.75 30.55V14.5H26.75V11H47.75C48.67 11.00 49.56 11.37 50.22 12.02C50.87 12.68 51.24 13.57 51.25 14.5Z" fill="#1A1919"/>
<path d="M21.50 23.17H7.50C7.20 23.17 6.90 23.09 6.64 22.95C6.38 22.80 6.16 22.59 6.01 22.34C5.85 22.08 5.76 21.79 5.75 21.50C5.73 21.20 5.80 20.90 5.93 20.63L12.93 6.63C13.09 6.36 13.32 6.14 13.59 5.98C13.87 5.83 14.18 5.75 14.50 5.75C14.81 5.75 15.12 5.83 15.40 5.98C15.67 6.14 15.90 6.36 16.06 6.63L23.06 20.63C23.19 20.90 23.26 21.20 23.24 21.50C23.23 21.79 23.14 22.08 22.98 22.34C22.83 22.59 22.61 22.80 22.35 22.95C22.09 23.09 21.79 23.17 21.50 23.17ZM10.33 19.67H18.66L14.50 11.33L10.33 19.67Z" fill="#1A1919"/>
</svg>
