<svg width="37" height="39" viewBox="0 0 37 39" fill="none" xmlns="http://www.w3.org/2000/svg">
<style>
    path {
        fill: #1a1919;
    }
    @media (prefers-color-scheme:dark) {
        path {
            fill: #fff;
        }
    }
</style>
<path d="M18.7623 14.8053L19.3523 13.4853C19.7923 12.5153 20.7623 11.8953 21.8223 11.8953C22.5423 11.8953 23.2223 12.1753 23.7323 12.6853L24.4323 13.3853C23.1923 14.0653 22.3523 15.3853 22.3523 16.8953V18.7753C22.3523 22.1353 19.9623 25.0253 16.6623 25.6553L9.76229 26.9753C9.41229 27.0453 9.13229 27.2853 9.01229 27.6153C8.89229 27.9453 8.9523 28.3153 9.1723 28.5853C13.0423 33.3753 18.8623 34.8153 19.1123 34.8753C19.1923 34.8853 19.2723 34.8953 19.3523 34.8953C19.4323 34.8953 19.5123 34.8853 19.5823 34.8653C19.7223 34.8353 32.8523 31.5353 32.8523 18.8953V6.89532C32.8523 5.79532 31.9523 4.89532 30.8523 4.89532H7.85229C6.75229 4.89532 5.85229 5.79532 5.85229 6.89532V22.1553L7.85229 20.1553V6.89532H30.8523V18.8953C30.8523 29.1953 21.0723 32.3853 19.3523 32.8553C18.4123 32.5853 14.8123 31.4053 11.9023 28.5953L17.0423 27.6153C21.2823 26.8053 24.3523 23.0853 24.3523 18.7753V16.8953C24.3523 15.7953 25.2523 14.8953 26.3523 14.8953H27.2023C27.7823 14.8953 28.0723 14.1953 27.6623 13.7853L25.1523 11.2753C24.2623 10.3853 23.0823 9.89532 21.8223 9.89532C19.9723 9.89532 18.2923 10.9853 17.5323 12.6653L17.0123 13.8153L2.85229 27.9853V30.8153L18.5623 15.1053C18.6523 15.0153 18.7123 14.9153 18.7623 14.8053Z"/>
</svg>