<?xml version="1.0" encoding="utf-8"?>
<svg version="1.1" xmlns="http://www.w3.org/2000/svg" xmlns:xlink="http://www.w3.org/1999/xlink" x="0px"
	 y="0px" viewBox="0 0 256 256" style="enable-background:new 0 0 256 256;" xml:space="preserve">
<g>
	<path fill="red" stroke="green" d="M127.31,87.27l4.75-10.54C135.55,69,143.28,64,151.77,64c5.77,0,11.2,2.25,15.27,6.33l5.6,5.61
		C162.73,81.38,156,91.92,156,104v15.05c0,26.84-19.14,49.98-45.51,55.01l-55.16,10.52c-2.76,0.53-5.04,2.47-6.01,5.11
		s-0.48,5.59,1.29,7.78c30.97,38.3,77.55,49.83,79.52,50.3c0.61,0.15,1.24,0.22,1.87,0.22s1.25-0.07,1.87-0.22
		C134.93,247.52,240,221.14,240,120V24c0-8.82-7.18-16-16-16H40c-8.82,0-16,7.18-16,16v122.08l16-16V24h184v96
		c0,82.41-78.26,107.89-91.96,111.72c-7.49-2.16-36.31-11.59-59.62-34.1l41.08-7.84c33.9-6.47,58.51-36.21,58.51-70.73V104
		c0-8.82,7.18-16,16-16h6.79c4.63,0,6.95-5.6,3.68-8.88l-20.11-20.11c-7.1-7.1-16.54-11.02-26.59-11.02
		c-14.77,0-28.23,8.7-34.29,22.17l-4.14,9.2L0,192.71v22.63L125.68,89.65C126.36,88.96,126.92,88.16,127.31,87.27z"/>
</g>
</svg>
