<svg width="64" height="64" viewBox="0 0 64 64" xmlns="http://www.w3.org/2000/svg">
<path class="seg-large" d="M43.38 12.24C55.09 18.91 62.03 30.60 63 42.91C52.58 57.32 33.95 63.28 17.05 58.22C16.75 58.13 16.47 57.97 16.23 57.75C7.75 49.91 3.09 39.06 3 27.94L3.04 25.21C3.03 23.29 3.34 21.08 3.94 18.59C4.56 16.06 5.50 13.36 6.68 10.79C17.96 5.47 31.67 5.56 43.38 12.24Z" fill="#D1F2FA"/>
<path class="seg-little" d="M48.95 36.77C48.95 44.96 42.52 51.60 34.59 51.60C26.66 51.60 20.24 44.96 20.24 36.77C20.24 36.54 20.24 36.32 20.25 36.10C22.17 33.38 24.62 31.09 27.44 29.39L28.81 28.61C29.77 28.04 30.96 27.54 32.37 27.11C34.49 26.47 36.98 26.08 39.30 26.08H44.54C47.26 28.78 48.95 32.57 48.95 36.77Z" fill="#8A72F3"/>
<path d="M58.25 14.5V18H47.75V33.75C47.75 42.44 40.69 49.5 32 49.5C23.45 49.5 16.50 42.69 16.25 34.21L16.25 33.75V18H5.75V14.5H58.25ZM44.25 28.5H19.75V33.75C19.75 40.51 25.23 46 32 46C38.62 46 44.02 40.74 44.24 34.17L44.25 33.75V28.5ZM11 21.5C11.96 21.5 12.75 22.28 12.75 23.25V42.5H9.25V23.25C9.25 22.28 10.03 21.5 11 21.5ZM44.25 18H19.75V25H44.25V18Z" fill="#1A1919"/>
</svg>
