<svg width="64" height="64" viewBox="0 0 64 64" xmlns="http://www.w3.org/2000/svg">
<path class="seg-large" d="M59.70 44.50C50.87 59.62 31.30 64.79 16.00 56.07C0.69 47.34 -4.54 28.01 4.29 12.89C4.53 12.48 4.78 12.08 5.03 11.68C11.66 8.78 18.86 7.25 26.15 7.22L29.64 7.28C32.10 7.29 34.93 7.67 38.11 8.43C42.90 9.58 48.14 11.61 52.62 14.16L62.73 19.93C65.06 27.90 64.23 36.75 59.70 44.50Z" fill="#E4F5D6"/>
<path class="seg-little" d="M23 37.50C23 30.64 26.41 24.58 31.61 21C40.61 21.87 47.94 28.53 49.97 37.25C50.00 37.41 50.00 37.58 49.97 37.73C48.64 43.47 45.02 48.31 40.12 51.21L38.91 51.89C38.06 52.39 37.00 52.82 35.75 53.20C34.47 53.58 33.04 53.85 31.61 54C26.41 50.41 23 44.36 23 37.50Z" fill="#47C9EB"/>
<path d="M33.03 10.02C32.73 9.78 32.36 9.65 31.98 9.65C31.60 9.65 31.23 9.78 30.93 10.02L6.68 29.28L8.78 31.98L11.75 29.62V50.90C11.75 51.81 12.10 52.69 12.74 53.33C13.37 53.97 14.23 54.34 15.12 54.34H48.87C49.76 54.34 50.62 53.97 51.25 53.33C51.89 52.69 52.24 51.81 52.25 50.90V29.64L55.21 31.99L57.31 29.29L33.03 10.02ZM35.37 50.90H28.62V37.15H35.37V50.90ZM38.75 50.90V37.15C38.74 36.24 38.39 35.37 37.76 34.72C37.12 34.08 36.26 33.71 35.37 33.71H28.62C27.73 33.71 26.87 34.08 26.23 34.72C25.60 35.37 25.25 36.24 25.25 37.15V50.90H15.12V26.94L32 13.56L48.87 26.96V50.90H38.75Z" fill="#1A1919"/>
</svg>
