<svg width="64" height="64" viewBox="0 0 64 64" xmlns="http://www.w3.org/2000/svg">
<path class="seg-large" d="M42.79 11.22C55.20 18.39 62.55 30.92 63.58 44.14C52.54 59.59 32.80 65.99 14.89 60.56C14.57 60.46 14.27 60.29 14.02 60.06C5.04 51.65 0.09 40.00 0 28.07L0.04 25.14C0.04 23.08 0.36 20.71 1.00 18.04C1.65 15.32 2.65 12.42 3.90 9.67C15.86 3.96 30.38 4.06 42.79 11.22Z" fill="#B0E8E3"/>
<path class="seg-little" d="M52.08 34.02C56.41 34.93 60.06 37.39 62.55 40.71L60.93 48.96C59.22 57.71 51.76 63.77 43.31 63.99C43.17 64.00 43.03 63.97 42.90 63.91C38.18 61.69 34.64 57.61 32.99 52.77L32.62 51.57C32.34 50.72 32.14 49.72 32.04 48.54C31.96 47.67 31.95 46.74 31.99 45.81C34.66 37.36 43.25 32.16 52.08 34.02Z" fill="#92D65C"/>
<path d="M40.82 34.94H23.17V37.88H40.82V34.94Z" fill="#1A1919"/>
<path d="M40.82 27.58H23.17V30.52H40.82V27.58Z" fill="#1A1919"/>
<path d="M30.52 42.29H23.17V45.23H30.52V42.29Z" fill="#1A1919"/>
<path d="M40.32 15.82V16.32H40.82H45.23C45.88 16.32 46.50 16.58 46.96 17.03C47.41 17.49 47.67 18.11 47.67 18.76V35.91H45.73V18.76V18.26H45.23H40.82H40.32V18.76V22.67H23.67V18.76V18.26H23.17H18.76H18.26V18.76V49.64V50.14H18.76H34.44V52.08H18.76C18.11 52.08 17.49 51.83 17.03 51.37C16.58 50.91 16.32 50.29 16.32 49.64V18.76C16.32 18.11 16.58 17.49 17.03 17.03C17.49 16.58 18.11 16.32 18.76 16.32H23.17H23.67V15.82V14.35C23.67 13.70 23.93 13.08 24.39 12.62C24.84 12.16 25.47 11.91 26.11 11.91H37.88C38.52 11.91 39.15 12.16 39.60 12.62C40.06 13.08 40.32 13.70 40.32 14.35V15.82ZM38.38 14.35V13.85H37.88H26.11H25.61V14.35V20.23V20.73H26.11H37.88H38.38V20.23V14.35Z" fill="#1A1919" stroke="#1A1919"/>
<path d="M54.05 46.70H48.17V40.82H45.23V46.70H39.35V49.64H45.23V55.52H48.17V49.64H54.05V46.70Z" fill="#1A1919"/>
</svg>
