<svg width="64" height="64" viewBox="0 0 64 64" xmlns="http://www.w3.org/2000/svg">
<path class="seg-large" d="M23.19 -0.34C40.96 -0.34 55.37 13.92 55.37 31.52C55.37 49.12 40.96 63.39 23.19 63.39C22.70 63.39 22.22 63.38 21.74 63.36C15.85 59.10 10.88 53.66 7.18 47.39L5.48 44.35C4.25 42.22 3.17 39.59 2.24 36.46C0.84 31.76 -0.00 26.21 -0.00 21.06V9.43C5.85 3.40 14.08 -0.34 23.19 -0.34Z" fill="#D1F2FA"/>
<path class="seg-little" d="M28.44 37.66C28.19 37.00 28.53 36.25 29.18 36.00L49.40 28.31C51.38 27.56 53.39 27.07 55.40 26.84C56.11 28.06 56.73 29.36 57.23 30.74C61.78 43.15 55.52 56.99 43.25 61.66C41.43 62.35 39.58 62.81 37.73 63.03L28.44 37.66Z" fill="#007CFF"/>
<path d="M52.12 24.12H41.62V17.12C41.62 14.15 39.35 11.87 36.37 11.87H25.87C22.9 11.87 20.62 14.15 20.62 17.12V24.12H10.12C9.07 24.12 8.37 24.82 8.37 25.87C8.37 26.05 8.37 26.05 8.37 26.22L11.7 47.4C11.87 49.15 13.45 50.37 15.2 50.37H29.37V46.87H15.2L12.22 27.62H52.12V24.12ZM24.12 17.12C24.12 16.07 24.82 15.37 25.87 15.37H36.37C37.42 15.37 38.12 16.07 38.12 17.12V24.12H24.12V17.12Z" fill="#1A1919"/>
<path d="M55.62 41.62H48.62V34.62H45.12V41.62H38.12V45.12H45.12V52.12H48.62V45.12H55.62V41.62Z" fill="#1A1919"/>
</svg>
