<svg width="64" height="64" viewBox="0 0 64 64" xmlns="http://www.w3.org/2000/svg">
<path class="seg-large" d="M47.38 15.86C57.95 25.75 62.33 39.76 60.31 52.99C45.93 65.67 25.05 67.46 8.67 58.03C8.38 57.85 8.12 57.62 7.93 57.33C1.01 47.01 -1.17 34.42 1.44 22.67L2.15 19.79C2.62 17.76 3.48 15.51 4.72 13.02C5.98 10.5 7.63 7.88 9.49 5.46C22.55 2.57 36.82 5.99 47.38 15.86Z" fill="#FCF3CF"/>
<path class="seg-little" d="M56.72 42.66C56.72 50.83 50.74 57.46 43.37 57.46C36.00 57.46 30.03 50.83 30.03 42.66C30.03 42.44 30.03 42.21 30.05 41.99C31.83 39.28 34.10 36.99 36.73 35.29L38.00 34.52C38.89 33.95 39.99 33.45 41.30 33.03C43.27 32.38 45.59 32 47.75 32H52.62C55.14 34.69 56.72 38.47 56.72 42.66Z" fill="#EB6047"/>
<path d="M41.11 10.73C40.97 8.92 39.46 7.5 37.62 7.5H26.85C25.04 7.64 23.62 9.15 23.62 11V11.72C15.54 14 9.62 21.43 9.62 30.25V37.54C7.58 38.26 6.12 40.21 6.12 42.5V43.49C6.27 45.82 7.95 47.8 10.26 48.3L23.62 51.16V47.58L11.00 44.88L10.80 44.82C10.10 44.58 9.62 43.92 9.62 43.17V42.5L9.63 42.29C9.73 41.42 10.47 40.75 11.37 40.75H23.62V37.24L13.12 37.25V29.78C13.31 23.12 17.64 17.5 23.62 15.39V26.75H27.12V11H37.62V26.75H41.12V15.39C46.55 17.30 50.63 22.13 51.47 28H54.99C54.09 20.19 48.50 13.80 41.12 11.72V11L41.11 10.73Z" fill="#1A1919"/>
<path d="M37.62 56H27.12V52.5H37.62V45.5H30.62C29.70 45.5 28.81 45.13 28.15 44.47C27.49 43.81 27.12 42.92 27.12 42V35C27.12 34.07 27.49 33.18 28.15 32.52C28.81 31.86 29.70 31.5 30.62 31.5H41.12V35H30.62V42H37.62C38.55 42 39.44 42.36 40.10 43.02C40.76 43.68 41.12 44.57 41.12 45.5V52.5C41.12 53.42 40.76 54.31 40.10 54.97C39.44 55.63 38.55 56 37.62 56Z" fill="#1A1919"/>
<path d="M55.12 31.5L52.46 40.25L51.62 43.71L50.82 40.25L48.12 31.5H44.62V56H48.12V42L47.84 38.5L48.86 42L51.62 50.10L54.39 42L55.40 38.5L55.12 42V56H58.62V31.5H55.12Z" fill="#1A1919"/>
</svg>
