<svg width="64" height="64" viewBox="0 0 64 64" xmlns="http://www.w3.org/2000/svg">
<path class="seg-large" d="M1.46 44.13C-3.08 27.16 7.10 9.69 24.21 5.11C41.33 0.52 58.89 10.56 63.44 27.53C63.56 27.99 63.67 28.45 63.78 28.92C61.14 35.65 57.13 41.81 51.97 46.97L49.45 49.39C47.70 51.12 45.42 52.84 42.61 54.54C38.39 57.10 33.22 59.35 28.21 60.69L16.89 63.73C9.54 59.71 3.79 52.83 1.46 44.13Z" fill="#FAD7D1"/>
<path class="seg-little" d="M30.84 48.97C29.21 42.91 30.90 36.72 34.80 32.28C43.22 30.85 51.49 34.94 55.40 42.16C55.47 42.29 55.51 42.43 55.52 42.58C55.67 47.98 53.50 53.14 49.72 56.90L48.77 57.80C48.11 58.45 47.26 59.09 46.20 59.73C45.13 60.38 43.89 60.97 42.61 61.45C37.01 59.55 32.46 55.03 30.84 48.97Z" fill="#F6D965"/>
<path d="M22.43 56.5V52.99H18.41C17.08 52.99 15.87 52.25 15.26 51.06C14.66 49.88 14.77 48.46 15.55 47.38L21.65 38.99H21.65L24.19 35.49L24.20 35.49L28.87 29.06V11.00H35.87V29.06L37.97 31.95L42.31 31.96L39.37 27.93V11H42.87V7.5H21.87V11H25.37V27.93L12.72 45.33C11.16 47.47 10.94 50.30 12.14 52.65C13.34 55.01 15.76 56.50 18.41 56.5H22.43Z" fill="#1A1919"/>
<path d="M50.37 60H43.37V35.5H50.37C52.23 35.5 54.01 36.23 55.32 37.55C56.64 38.86 57.37 40.64 57.37 42.5V53C57.37 54.85 56.64 56.63 55.32 57.94C54.01 59.26 52.23 60 50.37 60ZM46.87 56.5H50.37C51.30 56.5 52.19 56.13 52.85 55.47C53.51 54.81 53.87 53.92 53.87 53V42.5C53.87 41.57 53.51 40.68 52.85 40.02C52.19 39.36 51.30 39 50.37 39H46.87V56.5Z" fill="#1A1919"/>
<path d="M36.37 60H25.87V56.5H36.37V49.5H29.37C28.45 49.5 27.56 49.13 26.90 48.47C26.24 47.81 25.87 46.92 25.87 46V39C25.87 38.07 26.24 37.18 26.90 36.52C27.56 35.86 28.45 35.5 29.37 35.5H39.87V39H29.37V46H36.37C37.30 46 38.19 46.36 38.85 47.02C39.51 47.68 39.87 48.57 39.87 49.5V56.5C39.87 57.42 39.51 58.31 38.85 58.97C38.19 59.63 37.30 60 36.37 60Z" fill="#1A1919"/>
</svg>
