<svg width="32" height="32" viewBox="4 4 56 56" xmlns="http://www.w3.org/2000/svg">
<path d="M23.41 57.09C22.71 56.74 22.19 56.04 22.36 55.16L25.51 34.51H17.11C16.59 34.51 16.06 34.34 15.71 33.81C15.36 33.46 15.36 32.94 15.36 32.41L20.61 9.66C20.79 8.79 21.49 8.26 22.36 8.26H39.86C40.39 8.26 40.91 8.44 41.26 8.96C41.61 9.31 41.61 9.84 41.61 10.36L38.46 24.01H46.86C47.56 24.01 48.09 24.36 48.44 25.06C48.79 25.59 48.61 26.29 48.26 26.99L25.51 56.74C25.16 57.09 24.64 57.26 24.11 57.26C23.94 57.26 23.59 57.26 23.41 57.09ZM34.26 27.51L37.76 11.76H23.76L19.39 31.01H29.71L26.91 49.04L43.36 27.51H34.26Z" fill="#1A1919"/>
</svg>
