<svg width="32" height="32" viewBox="0 0 32 32" fill="none" xmlns="http://www.w3.org/2000/svg">
<path d="M26.9998 15.2285V16.76L28.8856 18.4857C29.6056 19.12 29.777 20.1714 29.297 21L27.017 25C26.6627 25.6171 25.9998 25.9943 25.2856 26C25.0684 26 24.8513 25.9657 24.6456 25.8971L22.2284 25.08C21.8056 25.3543 21.3656 25.6057 20.9084 25.8285L20.3998 28.3485C20.2056 29.2971 19.3656 29.9771 18.3998 29.96H13.6798C12.7084 29.9771 11.8684 29.2971 11.6798 28.3485L11.1656 25.8285C10.7141 25.6057 10.2741 25.3543 9.85699 25.08L7.42842 25.8971C7.2227 25.9657 7.00556 26 6.78842 26C6.07413 25.9943 5.41128 25.6171 5.05699 25L2.69699 21C2.19413 20.16 2.36556 19.0857 3.10842 18.4457L4.99985 16.7657V15.24L3.10842 13.5085C2.38842 12.8743 2.21699 11.8228 2.69699 11L5.05699 6.99997C5.41128 6.37711 6.07413 5.99997 6.78842 5.99997C6.99985 5.98282 7.21699 5.99997 7.42842 6.05711L9.80556 6.91997C10.2284 6.63997 10.6684 6.38854 11.1256 6.16568L11.6398 3.64568C11.8284 2.69711 12.6684 2.01711 13.6398 2.03425H18.3198C19.2856 2.01711 20.1256 2.69711 20.3198 3.64568L20.8284 6.16568C21.2798 6.38854 21.7198 6.63997 22.137 6.91997L24.5656 6.09711C24.7713 6.02854 24.9884 5.99425 25.2056 5.99997C25.9198 5.99997 26.5827 6.37711 26.937 6.99997L29.297 11C29.8056 11.8285 29.6456 12.9028 28.9198 13.5485L26.9998 15.2285ZM21.777 22.84L25.2056 24L27.5656 20L24.8456 17.5257C25.0341 16.4914 25.0341 15.4343 24.8456 14.4L27.5656 12L25.2056 7.99997L21.7656 9.11997C20.9598 8.44568 20.0513 7.91425 19.0684 7.54854L18.3541 3.99997H13.6341L12.9256 7.58854C11.937 7.94282 11.0227 8.47425 10.217 9.15997L6.78842 7.99997L4.42842 12L7.14842 14.4685C6.95985 15.5028 6.95985 16.56 7.14842 17.6L4.42842 20L6.78842 24L10.2284 22.88C11.0341 23.5485 11.9427 24.08 12.9256 24.4457L13.6341 28H18.3541L19.0684 24.4057C20.057 24.0514 20.9713 23.52 21.777 22.84Z" fill="#1A1919"/>
<path d="M10 16C10 19.3086 12.6857 22 16 22C17.5943 22.0114 19.1314 21.3886 20.2571 20.2571C21.3886 19.1314 22.0114 17.5943 22 16C22 12.6857 19.3086 10 16 10C12.6857 10 10 12.6857 10 16ZM13.1429 13.1429C13.8971 12.3886 14.9314 11.9714 16 12C17.0629 11.9714 18.0971 12.3886 18.8514 13.1429C19.6114 13.8971 20.0229 14.9314 20 16C20.0229 17.0629 19.6114 18.0971 18.8514 18.8514C18.0971 19.6114 17.0629 20.0229 16 20C14.9314 20.0229 13.8971 19.6114 13.1429 18.8514C12.3829 18.0971 11.9714 17.0629 12 16C11.9714 14.9314 12.3829 13.8971 13.1429 13.1429Z" fill="#1A1919"/>
</svg>
