<svg width="32" height="32" viewBox="0 0 32 32" fill="none" xmlns="http://www.w3.org/2000/svg">
<path d="M25 2C20.2971 2 16.4 4.89714 14.8 9C13.4971 7.2 11.4 6 9 6H6V9C6 12.8971 9.09714 16 13 16H14V25C11.6971 25.2 9.6 26.2 7.89714 27.8971L9.29714 29.2971C10.8 27.8 12.8 27 15 27C17.6971 27 20.2 28.2971 21.6971 30.6L23.4 29.4971C21.6971 27 19 25.4 16.0971 25.0971V16H17.0971C23.2 16 28.0971 11.0971 28.0971 5V2H25ZM13 14C10.2 14 8 11.8 8 9V8H9C11.8 8 14 10.2 14 13V14H13ZM26 5C26 10 22 14 17 14H16V13C16 8 20 4 25 4H26V5Z" fill="#1a1919"/>
</svg>