<svg width="32" height="32" viewBox="0 0 32 32" fill="none" xmlns="http://www.w3.org/2000/svg">
<path d="M27.9506 16.1348H24.7998V23.6996H27.9506V16.1348Z" fill="#1F4698"/>
<path d="M17.5469 18.3418H14.3961V26.8504H7.15078V16.1348H4V27.482H4.01486V30.0012H27.9504V26.8504H17.5469V18.3418Z" fill="#1F4698"/>
<path d="M15.9715 15.1891C17.0139 15.1891 17.859 14.344 17.859 13.3016C17.859 12.2591 17.0139 11.4141 15.9715 11.4141C14.929 11.4141 14.084 12.2591 14.084 13.3016C14.084 14.344 14.929 15.1891 15.9715 15.1891Z" fill="#1F4698"/>
<path d="M15.9715 4.16936C17.1305 4.16741 18.2785 4.39387 19.3499 4.83582C20.4213 5.27776 21.3951 5.92651 22.2156 6.745C23.0362 7.56348 23.6874 8.53565 24.1321 9.60594C24.5767 10.6762 24.8061 11.8237 24.807 12.9826H27.9653C27.9653 9.80464 26.7028 6.75681 24.4556 4.50963C22.2085 2.26245 19.1606 1 15.9826 1C12.8046 1 9.75681 2.26245 7.50963 4.50963C5.26245 6.75681 4 9.80464 4 12.9826H7.15821C7.16018 10.6458 8.08935 8.40526 9.74173 6.75288C11.3941 5.1005 13.6347 4.17133 15.9715 4.16936V4.16936Z" fill="#1F4698"/>
</svg>
