<svg width="32" height="32" viewBox="0 0 32 32" xmlns="http://www.w3.org/2000/svg">
<path d="M22.1314 5.96V9.89143H3.96V5.96H22.1314ZM22.1314 4H3.96C3.44 4 2.94286 4.20571 2.57143 4.57143C2.20571 4.94286 2 5.44 2 5.96V9.89143C2 10.4114 2.20571 10.9086 2.57143 11.28C2.94286 11.6457 3.44 11.8571 3.96 11.8571H22.1314C22.6514 11.8571 23.1543 11.6457 23.52 11.28C23.8857 10.9086 24.0971 10.4114 24.0971 9.89143V5.96C24.0971 5.44 23.8857 4.94286 23.52 4.57143C23.1543 4.20571 22.6514 4 22.1314 4Z" fill="#1A1919"/>
<path d="M7.89143 15.7829V25.6057H3.96V15.7829H7.89143ZM7.89143 13.8171H3.96C3.44 13.8171 2.94286 14.0229 2.57143 14.3943C2.20571 14.76 2 15.2629 2 15.7829V25.6057C2 26.1257 2.20571 26.6229 2.57143 26.9943C2.94286 27.36 3.44 27.5714 3.96 27.5714H7.89143C8.41143 27.5714 8.90857 27.36 9.28 26.9943C9.64571 26.6229 9.85714 26.1257 9.85714 25.6057V15.7829C9.85714 15.2629 9.64571 14.76 9.28 14.3943C8.90857 14.0229 8.41143 13.8171 7.89143 13.8171Z" fill="#1A1919"/>
<path d="M13.7831 15.7829V25.6057H15.2574V27.5714H13.7831C13.2631 27.5714 12.7602 27.36 12.3945 26.9943C12.0231 26.6229 11.8174 26.1257 11.8174 25.6057V15.7829C11.8174 15.2629 12.0231 14.76 12.3945 14.3943C12.7602 14.0229 13.2631 13.8171 13.7831 13.8171H22.2174C22.7374 13.8171 23.2345 14.0229 23.606 14.3943C23.9717 14.76 24.1774 15.2629 24.1774 15.7829V16.7657H22.2174V15.7829H13.7831Z" fill="#1A1919"/>
<path d="M30.1084 29.5028L24.1198 18.4857C24.0626 18.3771 23.9769 18.2914 23.8684 18.2286C23.7655 18.1657 23.6455 18.1314 23.5255 18.1314C23.3998 18.1314 23.2798 18.1657 23.1769 18.2286C23.0684 18.2914 22.9826 18.3771 22.9255 18.4857L16.9426 29.5028C16.8855 29.6057 16.8569 29.72 16.8569 29.84C16.8569 29.96 16.8912 30.0743 16.9541 30.1771C17.0169 30.28 17.1026 30.3657 17.2055 30.4228C17.3084 30.4857 17.4226 30.5143 17.5426 30.5143H29.5026C29.6226 30.5143 29.7426 30.4857 29.8455 30.4228C29.9484 30.3657 30.0341 30.28 30.0912 30.1771C30.1541 30.0743 30.1884 29.96 30.1884 29.84C30.1941 29.72 30.1655 29.6057 30.1084 29.5028ZM22.8112 21.9428H24.2398V25.7543H22.8112V21.9428ZM23.5255 28.6114C23.3369 28.6114 23.1484 28.5543 22.9941 28.4514C22.8398 28.3428 22.7141 28.1943 22.6455 28.0228C22.5712 27.8457 22.5541 27.6571 22.5884 27.4743C22.6284 27.2857 22.7198 27.12 22.8512 26.9828C22.9826 26.8514 23.1541 26.76 23.3369 26.7257C23.5255 26.6857 23.7141 26.7028 23.8855 26.7771C24.0626 26.8514 24.2112 26.9714 24.3141 27.1257C24.4226 27.2857 24.4741 27.4686 24.4741 27.6571C24.4741 27.9086 24.3769 28.1543 24.1998 28.3314C24.0169 28.5086 23.7769 28.6114 23.5255 28.6114Z" fill="#1A1919"/>
</svg>
