<svg width="32" height="32" viewBox="0 0 32 32" fill="none" xmlns="http://www.w3.org/2000/svg">
<path d="M19 2C20.0514 2 20.9143 2.81143 20.9943 3.84571L21 4V4.41143C25.5257 5.69143 28.8686 9.8 28.9943 14.7086L29 15V19.1657C30.1086 19.56 30.92 20.5943 30.9943 21.8229L31 22V22.3829C31 23.7314 30.0914 24.9086 28.8057 25.2686L28.6286 25.3143L16.2057 27.9771C16.1143 27.9943 16.0229 28 15.9257 27.9943L15.7886 27.9771L3.36571 25.3143C2.04571 25.0286 1.08571 23.8971 1 22.5657V22.3829V22C1 20.6914 1.83429 19.5771 3 19.1657V15C3 9.96 6.38286 5.71429 11 4.41143V4C11 2.94286 11.8114 2.08 12.8457 2H13H19ZM28 21H20.9029C20.4457 23.2914 18.4229 25.0171 16 25.0171C13.6457 25.0171 11.6743 23.3943 11.1429 21.2114L11.0914 21H4C3.48571 21 3.06286 21.3829 3.00571 21.88L3 22V22.3829C3 22.8114 3.27429 23.1886 3.67429 23.3257L3.78857 23.36L15.9943 25.9714L28.2057 23.36C28.5886 23.2743 28.88 22.9829 28.9657 22.6229L28.9886 22.4971L29 22.3829V22C29 21.4857 28.6114 21.0629 28.1143 21.0057L28 21ZM16 17.0171C14.3429 17.0171 13 18.36 13 20.0171C13 21.6743 14.3429 23.0171 16 23.0171C17.6514 23.0171 19 21.6743 19 20.0171C19 18.36 17.6514 17.0171 16 17.0171ZM19 4H13V13H11V6.50857C7.58286 7.71429 5.10857 10.9257 5 14.7314V15V19L11.1029 18.9943C11.5714 16.7257 13.5829 15.0171 16 15.0171C18.4114 15.0171 20.4229 16.7257 20.8914 18.9943L27 19V15C27 11.08 24.4914 7.74286 21 6.50857V13H19V4Z" fill="#1A1919"/>
</svg>
