<svg width="32" height="32" viewBox="0 0 40 40" fill="none" xmlns="http://www.w3.org/2000/svg">
<path d="M19.9 13.65L20.65 12C21.175 10.775 22.4 10 23.725 10C24.625 10 25.475 10.35 26.1 11L26.975 11.875C25.425 12.725 24.375 14.375 24.375 16.25V19.05C24.375 23.1 21.625 26.575 17.725 27.55L9.25 29.625C8.825 29.725 8.475 30.05 8.35 30.475C8.225 30.9 8.325 31.35 8.625 31.675C13.45 37 20.075 38.65 20.35 38.725C20.45 38.75 20.55 38.75 20.65 38.75C20.75 38.75 20.85 38.75 20.95 38.725C21.075 38.675 37.5 34.55 37.5 18.75V3.75C37.5 2.375 36.375 1.25 35 1.25H6.25C4.875 1.25 3.75 2.375 3.75 3.75V21.425L6.25 18.925V3.75H35V18.75C35 31.625 22.775 35.6 20.625 36.2C19.525 35.875 15.4 34.55 11.9 31.475L18.3 29.95C23.35 28.7 26.85 24.225 26.85 19.025V16.25C26.85 14.875 27.975 13.75 29.35 13.75H30.4C31.125 13.75 31.475 12.875 30.975 12.375L27.825 9.225C26.775 8.125 25.25 7.5 23.725 7.5C21.4 7.5 19.3 8.85 18.35 10.95L17.7 12.4L0 30.1V33.65L19.625 14C19.75 13.9 19.825 13.775 19.9 13.65Z" fill="#1A1919"/>
</svg>
