<svg width="32" height="32" viewBox="0 0 32 32" fill="none" xmlns="http://www.w3.org/2000/svg">
<path fill-rule="evenodd" clip-rule="evenodd" d="M6 28V28.0003C6.00153 28.5303 6.21274 29.0381 6.58748 29.4129C6.96222 29.7876 7.47004 29.9988 8 30.0003H18V30H24C24.53 29.9985 25.0378 29.7873 25.4125 29.4125C25.7873 29.0378 25.9985 28.53 26 28V15.0003V12V10.0003C26.0036 9.86891 25.9786 9.73827 25.9268 9.61742C25.875 9.49657 25.7976 9.38839 25.7 9.30034L18.7 2.30034C18.612 2.20267 18.5038 2.12527 18.3829 2.07347C18.2621 2.02168 18.1314 1.99673 18 2.00034H8C7.47004 2.00187 6.96222 2.21308 6.58748 2.58782C6.21274 2.96256 6.00153 3.47038 6 4.00034V22V28ZM8 22V4.00034H16V10.0003C16.0015 10.5303 16.2127 11.0381 16.5875 11.4129C16.9622 11.7876 17.47 11.9988 18 12.0003H24V15.0003V28H8V22ZM23.6 10.0003L18 4.40034V10.0003H23.6Z" fill="#1A1919"/>
<path d="M12 15H10V17H12V15Z" fill="#1A1919"/>
<path d="M17 15H15V17H17V15Z" fill="#1A1919"/>
<path d="M12 21H10V23H12V21Z" fill="#1A1919"/>
<path d="M17 21H15V23H17V21Z" fill="#1A1919"/>
<path d="M22 15H20V17H22V15Z" fill="#1A1919"/>
<path d="M22 21H20V23H22V21Z" fill="#1A1919"/>
</svg>
