<svg width="32" height="32" viewBox="0 0 32 32" fill="none" xmlns="http://www.w3.org/2000/svg">
<path d="M6 18H2V20H6V18Z" fill="#1A1919"/>
<path d="M30 18H26V20H30V18Z" fill="#1A1919"/>
<path d="M24 22V28H8V22H6V28C6.00153 28.53 6.21274 29.0378 6.58748 29.4125C6.96222 29.7873 7.47004 29.9985 8 30H24C24.53 29.9985 25.0378 29.7873 25.4125 29.4125C25.7873 29.0378 25.9985 28.53 26 28V22H24Z" fill="#1A1919"/>
<path d="M8 16.0003V4.00034H16V10.0003C16.0015 10.5303 16.2127 11.0381 16.5875 11.4129C16.9622 11.7876 17.47 11.9988 18 12.0003H24V16.0003H26V10.0003C26.0036 9.86891 25.9786 9.73827 25.9268 9.61742C25.875 9.49657 25.7976 9.38839 25.7 9.30034L18.7 2.30034C18.612 2.20267 18.5038 2.12527 18.3829 2.07347C18.2621 2.02168 18.1314 1.99673 18 2.00034H8C7.47004 2.00187 6.96222 2.21308 6.58748 2.58782C6.21274 2.96256 6.00153 3.47038 6 4.00034V16.0003H8ZM18 4.40034L23.6 10.0003H18V4.40034Z" fill="#1A1919"/>
<path d="M14 18H10V20H14V18Z" fill="#1A1919"/>
<path d="M22 18H18V20H22V18Z" fill="#1A1919"/>
</svg>
