<svg width="33" height="32" viewBox="0 0 33 32" fill="none" xmlns="http://www.w3.org/2000/svg">
<path d="M17.1123 2.21374C16.9348 2.07523 16.7161 2 16.4909 2C16.2658 2 16.0471 2.07523 15.8696 2.21374L1.5 13.4193L2.7427 14.991L4.5 13.6208V25.9999C4.50108 26.53 4.71215 27.0381 5.08698 27.413C5.46182 27.7878 5.9699 27.9989 6.5 27.9999H26.5C27.0301 27.999 27.5383 27.7879 27.9131 27.4131C28.288 27.0382 28.499 26.5301 28.5 25.9999V13.6299L30.2573 14.9999L31.5 13.4281L17.1123 2.21374ZM18.5 25.9999H14.5V17.9999H18.5V25.9999ZM20.5 25.9999V17.9999C20.4994 17.4697 20.2885 16.9613 19.9135 16.5864C19.5386 16.2115 19.0302 16.0006 18.5 15.9999H14.5C13.9697 16.0005 13.4613 16.2114 13.0864 16.5863C12.7114 16.9613 12.5005 17.4697 12.5 17.9999V25.9999H6.5V12.0614L16.5 4.27144L26.5 12.0719V25.9999H20.5Z" fill="#1A1919"/>
</svg>
