<svg width="24" height="24" viewBox="0 0 24 24" fill="none" xmlns="http://www.w3.org/2000/svg">
<path fill-rule="evenodd" clip-rule="evenodd" d="M21.09 7.08857H22.4957V1.92857C22.4957 1.68857 22.3071 1.5 22.0671 1.5H16.8729V2.89714H21.09V7.08857ZM2.90571 7.12714H1.5V1.96714C1.5 1.73143 1.68857 1.53857 1.92857 1.53857H7.12286V2.93571H2.90571V7.12714ZM1.5 22.0714C1.5 22.3071 1.68857 22.5 1.92857 22.5H7.12286V21.0986H2.90571V16.9071H1.5V22.0714ZM22.0671 22.4571C22.3071 22.4571 22.4957 22.2643 22.4957 22.0286V16.8686H21.09V21.06H16.8729V22.4571H22.0671ZM5.62286 10.1571C5.41714 10.1571 5.25 9.99 5.25 9.78429V5.62286C5.25 5.41714 5.41714 5.25 5.62286 5.25H9.78429C9.99 5.25 10.1571 5.41714 10.1571 5.62286V9.78429C10.1571 9.99 9.99 10.1571 9.78429 10.1571H5.62286ZM8.93143 6.47572H6.47571V8.93143H8.93143V6.47572ZM18.75 5.62286C18.75 5.41714 18.5786 5.25 18.3729 5.25H14.2114C14.0057 5.25 13.8386 5.41714 13.8386 5.62286V9.78429C13.8386 9.99 14.0057 10.1571 14.2114 10.1571H18.3729C18.5786 10.1571 18.75 9.99 18.75 9.78429V5.62286ZM17.52 8.93143H15.0643V6.47572H17.52V8.93143ZM9.78429 13.8386C9.99 13.8386 10.1571 14.0057 10.1571 14.2114V18.3729C10.1571 18.5786 9.99 18.75 9.78429 18.75H5.62286C5.41714 18.75 5.25 18.5786 5.25 18.3729V14.2114C5.25 14.0057 5.41714 13.8386 5.62286 13.8386H9.78429ZM6.47571 17.52H8.93143V15.0643H6.47571V17.52ZM12.6129 11.3829H18.75V12.6129H12.6129V18.75H11.3829V12.6129H5.25V11.3829H11.3829V5.25H12.6129V11.3829ZM18.75 13.8386H14.2114C14.0057 13.8386 13.8386 14.0057 13.8386 14.2114V18.75H15.0643V15.0643H18.75V13.8386ZM17.52 16.0371H16.2943V18.75H17.52V16.0371Z" fill="#1A1919"/>
</svg>
