<svg width="32" height="32" viewBox="0 0 32 32" fill="none" xmlns="http://www.w3.org/2000/svg">
<path d="M19.9943 18H9.99426V20H19.9943V18Z" fill="#1A1919"/>
<path d="M21.9943 13H9.99426V15H21.9943V13Z" fill="#1A1919"/>
<path d="M14.9943 23H9.99426V25H14.9943V23Z" fill="#1A1919"/>
<path fill-rule="evenodd" clip-rule="evenodd" d="M25 5H22V4C22 3.46857 21.7886 2.96 21.4114 2.58286C21.0343 2.20571 20.5257 2 20 2H12C11.4686 2 10.96 2.20571 10.5829 2.58286C10.2057 2.96 10 3.46857 10 4V5H7C6.46857 5 5.96 5.20571 5.58286 5.58286C5.20571 5.96 5 6.46857 5 7V28C5 28.5257 5.20571 29.0343 5.58286 29.4114C5.96 29.7886 6.46857 30 7 30H15.4971V28H7V7H10V10H22V7H25V16H27V7C27 6.46857 26.7886 5.96 26.4114 5.58286C26.0343 5.20571 25.5257 5 25 5ZM20 4H12V8H20V4Z" fill="#1A1919"/>
<path d="M30.9486 29.7828L24.9657 18.7657C24.9086 18.6628 24.8172 18.5714 24.7143 18.5085C24.6114 18.4457 24.4914 18.4171 24.3657 18.4171C24.2457 18.4171 24.1257 18.4457 24.0172 18.5085C23.9143 18.5714 23.8286 18.6628 23.7657 18.7657L17.7829 29.7828C17.7257 29.8857 17.6972 30.0057 17.7029 30.12C17.7029 30.24 17.7372 30.36 17.7943 30.4628C17.8572 30.56 17.9429 30.6457 18.0457 30.7085C18.1486 30.7657 18.2686 30.7943 18.3829 30.7943H30.3486C30.4686 30.7943 30.5829 30.7657 30.6857 30.7085C30.7886 30.6457 30.8743 30.56 30.9372 30.4628C31 30.36 31.0286 30.24 31.0343 30.12C31.0343 30.0057 31.0057 29.8857 30.9486 29.7828ZM23.6514 22.2228H25.08V26.0343H23.6514V22.2228ZM24.3657 28.8914C24.1772 28.8914 23.9943 28.8343 23.84 28.7314C23.68 28.6285 23.56 28.48 23.4857 28.3028C23.4172 28.1314 23.3943 27.9371 23.4343 27.7543C23.4686 27.5657 23.56 27.4 23.6914 27.2628C23.8286 27.1314 23.9943 27.04 24.1829 27.0057C24.3657 26.9657 24.5543 26.9885 24.7314 27.0571C24.9029 27.1314 25.0514 27.2514 25.16 27.4114C25.2629 27.5657 25.32 27.7485 25.32 27.9371C25.32 28.1885 25.2172 28.4343 25.04 28.6114C24.8629 28.7885 24.6172 28.8914 24.3657 28.8914Z" fill="#1A1919"/>
</svg>
