<svg width="25" height="25" viewBox="0 0 25 25" fill="none" xmlns="http://www.w3.org/2000/svg">
<path d="M22.918 6.09082H19.843C19.468 4.36582 17.968 3.09082 16.168 3.09082C14.368 3.09082 12.868 4.36582 12.493 6.09082H1.91797V7.59082H12.493C12.868 9.31582 14.368 10.5908 16.168 10.5908C17.968 10.5908 19.468 9.31582 19.843 7.59082H22.918V6.09082ZM16.168 9.09082C14.893 9.09082 13.918 8.11582 13.918 6.84082C13.918 5.56582 14.893 4.59082 16.168 4.59082C17.443 4.59082 18.418 5.56582 18.418 6.84082C18.418 8.11582 17.443 9.09082 16.168 9.09082Z" fill="#1A1919"/>
<path d="M1.91797 18.0908H4.99297C5.36797 19.8158 6.86797 21.0908 8.66797 21.0908C10.468 21.0908 11.968 19.8158 12.343 18.0908H22.918V16.5908H12.343C11.968 14.8658 10.468 13.5908 8.66797 13.5908C6.86797 13.5908 5.36797 14.8658 4.99297 16.5908H1.91797V18.0908ZM8.66797 15.0908C9.94297 15.0908 10.918 16.0658 10.918 17.3408C10.918 18.6158 9.94297 19.5908 8.66797 19.5908C7.39297 19.5908 6.41797 18.6158 6.41797 17.3408C6.41797 16.0658 7.39297 15.0908 8.66797 15.0908Z" fill="#1A1919"/>
</svg>
