<svg width="32" height="32" viewBox="0 0 32 32" fill="none" xmlns="http://www.w3.org/2000/svg"  shape-rendering="optimizeQuality">
<path d="M16 8C15.0111 8 14.0444 8.29325 13.2222 8.84265C12.3999 9.39206 11.759 10.173 11.3806 11.0866C11.0022 12.0002 10.9031 13.0055 11.0961 13.9755C11.289 14.9454 11.7652 15.8363 12.4645 16.5355C13.1637 17.2348 14.0546 17.711 15.0246 17.9039C15.9945 18.0969 16.9998 17.9978 17.9134 17.6194C18.8271 17.241 19.6079 16.6001 20.1574 15.7779C20.7068 14.9556 21 13.9889 21 13C21 11.6739 20.4732 10.4021 19.5355 9.46447C18.5979 8.52678 17.3261 8 16 8ZM16 16C15.4067 16 14.8266 15.8241 14.3333 15.4944C13.8399 15.1648 13.4554 14.6962 13.2284 14.1481C13.0013 13.5999 12.9419 12.9967 13.0576 12.4147C13.1734 11.8328 13.4591 11.2982 13.8787 10.8787C14.2982 10.4591 14.8328 10.1734 15.4147 10.0576C15.9967 9.94189 16.5999 10.0013 17.1481 10.2284C17.6962 10.4554 18.1648 10.8399 18.4944 11.3333C18.8241 11.8266 19 12.4067 19 13C18.9991 13.7954 18.6827 14.5579 18.1203 15.1203C17.5579 15.6827 16.7954 15.9991 16 16V16Z" fill="black"/>
<path d="M16 2C13.2311 2 10.5243 2.82109 8.22202 4.35943C5.91973 5.89777 4.12532 8.08427 3.06569 10.6424C2.00607 13.2006 1.72882 16.0155 2.26901 18.7313C2.80921 21.447 4.14258 23.9416 6.10051 25.8995C8.05845 27.8574 10.553 29.1908 13.2687 29.731C15.9845 30.2712 18.7994 29.9939 21.3576 28.9343C23.9157 27.8747 26.1022 26.0803 27.6406 23.778C29.1789 21.4757 30 18.7689 30 16C29.9958 12.2883 28.5195 8.72973 25.8949 6.10512C23.2703 3.48052 19.7118 2.00418 16 2V2ZM10 26.3765V25C10.0009 24.2046 10.3172 23.4421 10.8797 22.8796C11.4421 22.3172 12.2046 22.0009 13 22H19C19.7954 22.0009 20.5579 22.3172 21.1204 22.8796C21.6828 23.4421 21.9991 24.2046 22 25V26.3765C20.1792 27.4397 18.1085 28 16 28C13.8915 28 11.8208 27.4397 10 26.3765ZM23.9925 24.9258C23.9726 23.614 23.4382 22.3626 22.5043 21.4412C21.5704 20.5198 20.3119 20.0022 19 20H13C11.6881 20.0022 10.4296 20.5198 9.49573 21.4412C8.56186 22.3626 8.02739 23.614 8.00751 24.9258C6.19407 23.3065 4.91524 21.1747 4.34034 18.8125C3.76545 16.4503 3.92161 13.9691 4.78814 11.6977C5.65468 9.42618 7.19073 7.47147 9.19288 6.09237C11.195 4.71327 13.5688 3.97483 16 3.97483C18.4312 3.97483 20.805 4.71327 22.8071 6.09237C24.8093 7.47147 26.3453 9.42618 27.2119 11.6977C28.0784 13.9691 28.2346 16.4503 27.6597 18.8125C27.0848 21.1747 25.8059 23.3065 23.9925 24.9258V24.9258Z" fill="black"/>
</svg>
