<svg width="32" height="32" viewBox="0 0 32 32" fill="none" xmlns="http://www.w3.org/2000/svg">
    <path fill-rule="evenodd" clip-rule="evenodd" d="M30.94 15.66C28.536 9.4417 22.6621 5.25053 16 5C9.3379 5.25053 3.46397 9.4417 1.06 15.66C0.980569 15.8797 0.980569 16.1203 1.06 16.34C3.46397 22.5583 9.3379 26.7495 16 27C22.6621 26.7495 28.536 22.5583 30.94 16.34C31.0194 16.1203 31.0194 15.8797 30.94 15.66ZM10.0004 16C10.0004 12.6863 12.6867 10 16.0004 10C19.3141 10 22.0004 12.6863 22.0004 16C22.0004 19.3137 19.3141 22 16.0004 22C12.6867 22 10.0004 19.3137 10.0004 16ZM12.0004 16C12.0004 18.2091 13.7913 20 16.0004 20C17.0613 20 18.0787 19.5786 18.8289 18.8284C19.579 18.0783 20.0004 17.0609 20.0004 16C20.0004 13.7909 18.2096 12 16.0004 12C13.7913 12 12.0004 13.7909 12.0004 16ZM3.07 16C5.1 21.07 10.7 25 16 25C21.3 25 26.9 21.07 28.93 16C26.9 10.93 21.3 7 16 7C10.7 7 5.1 10.93 3.07 16Z" fill="#1A1919"/>
</svg>
