<svg width="64" height="64" viewBox="0 0 64 64" xmlns="http://www.w3.org/2000/svg">
<path class="seg-large" d="M0.26 28.63C-0.27 27.69 0.04 26.47 0.97 25.93L29.87 9.12C32.70 7.47 35.65 6.22 38.66 5.35C40.06 7.02 41.33 8.84 42.46 10.80C52.58 28.47 46.57 51.07 29.03 61.28C26.43 62.79 23.72 63.95 20.95 64.76L0.26 28.63Z" fill="#FCF3CF"/>
<path class="seg-little" d="M17.34 15.90C16.99 15.28 17.20 14.49 17.80 14.14L36.47 3.21C38.3 2.14 40.20 1.33 42.14 0.76C43.05 1.85 43.87 3.03 44.59 4.30C51.13 15.79 47.25 30.48 35.92 37.11C34.24 38.10 32.49 38.85 30.71 39.38L17.34 15.90Z" fill="#EB6047"/>
<path d="M23.41 57.09C22.71 56.74 22.19 56.04 22.36 55.16L25.51 34.51H17.11C16.59 34.51 16.06 34.34 15.71 33.81C15.36 33.46 15.36 32.94 15.36 32.41L20.61 9.66C20.79 8.79 21.49 8.26 22.36 8.26H39.86C40.39 8.26 40.91 8.44 41.26 8.96C41.61 9.31 41.61 9.84 41.61 10.36L38.46 24.01H46.86C47.56 24.01 48.09 24.36 48.44 25.06C48.79 25.59 48.61 26.29 48.26 26.99L25.51 56.74C25.16 57.09 24.64 57.26 24.11 57.26C23.94 57.26 23.59 57.26 23.41 57.09ZM34.26 27.51L37.76 11.76H23.76L19.39 31.01H29.71L26.91 49.04L43.36 27.51H34.26Z" fill="#1A1919"/>
</svg>
