<svg width="64" height="64" viewBox="0 0 64 64" fill="none" xmlns="http://www.w3.org/2000/svg">
<path d="M35.04 2C43.94 2 52.07 5.28 58.27 10.71V27.42C58.27 45.14 45.92 59.99 29.35 63.88C29.07 63.94 28.78 63.94 28.5 63.88C18.34 61.5 9.79 55.02 4.66 46.27L3.45 44.09C2.58 42.57 1.81 40.69 1.15 38.44C0.66 36.79 0.27 34.99 0 33.14C2 15.61 16.92 2 35.04 2Z" fill="#FAD7D1"/>
<path d="M39.42 30.0699C33.56 32.2999 27.31 31.1699 22.61 27.6299C20.52 19.1999 23.89 10.3999 30.71 5.73994C30.83 5.65994 30.97 5.59994 31.12 5.57994C36.44 4.91994 41.72 6.62994 45.74 10.1099L46.7 10.9999C47.39 11.5999 48.1 12.4099 48.81 13.4299C49.54 14.4599 50.23 15.6599 50.8 16.9099C49.37 22.7799 45.28 27.8399 39.42 30.0699Z" fill="#F6D965"/>
<path fill-rule="evenodd" clip-rule="evenodd" d="M19.75 9.25V30.25H9.25V54.75H54.75V30.25H44.25V9.25H19.75ZM40.75 30.25V12.75H23.25V30.25H40.75ZM12.75 33.75V51.25H30.25V33.75H12.75ZM33.75 33.75V51.25H51.25V33.75H33.75Z" fill="#1A1919"/>
<path d="M35.5 18V20.8869C35.4927 21.8582 35.1853 22.6152 34.7569 23.1992L34.7294 23.2363C34.7109 23.2608 34.6923 23.285 34.6734 23.309C34.6645 23.3285 34.6531 23.3471 34.6393 23.3641C33.9747 24.1867 33.0882 24.6282 32.5466 24.8371L32.5132 24.8498L32.4807 24.862L32.4354 24.8786L32.4063 24.8889C32.4016 24.8906 32.3968 24.8923 32.3922 24.8939L32.3511 24.9081L32.3124 24.9211L32.2761 24.933L32.2422 24.9437L32.2109 24.9534L32.169 24.9658L32.1446 24.9729L32.123 24.9789L32.0964 24.9861L32.0622 24.9948C32.0457 24.9969 32.0291 24.9989 32.0126 24.9997L32.0063 25H32L31.9874 24.9997C31.9709 24.9989 31.9543 24.9969 31.9378 24.9948L31.9175 24.9897L31.877 24.9789L31.8554 24.9729L31.831 24.9658L31.8037 24.9578L31.7738 24.9487L31.7412 24.9385C31.7356 24.9367 31.7298 24.9348 31.7239 24.933L31.6876 24.9211L31.6489 24.9081L31.6078 24.8939L31.5792 24.8838C31.5744 24.8821 31.5695 24.8803 31.5646 24.8786L31.5193 24.862L31.4868 24.8498L31.4534 24.8371C30.9118 24.6282 30.0253 24.1867 29.3607 23.3641C29.3469 23.3471 29.3355 23.3285 29.3266 23.3089C28.8552 22.711 28.5078 21.9202 28.5001 20.8866L28.5 20.8869V18H35.5Z" fill="#1A1919"/>
<path d="M25 39V41.8869C24.9927 42.8582 24.6853 43.6152 24.2569 44.1992L24.2294 44.2363C24.2109 44.2608 24.1923 44.285 24.1734 44.309C24.1645 44.3285 24.1531 44.3471 24.1393 44.3641C23.4747 45.1867 22.5882 45.6282 22.0466 45.8371L22.0132 45.8498L21.9807 45.862L21.9354 45.8786L21.9063 45.8889C21.9016 45.8906 21.8968 45.8923 21.8922 45.8939L21.8511 45.9081L21.8124 45.9211L21.7761 45.933L21.7422 45.9437L21.7109 45.9534L21.669 45.9658L21.6446 45.9729L21.623 45.9789L21.5964 45.9861L21.5622 45.9948C21.5457 45.9969 21.5291 45.9989 21.5126 45.9997L21.5063 46H21.5L21.4874 45.9997C21.4709 45.9989 21.4543 45.9969 21.4378 45.9948L21.4175 45.9897L21.377 45.9789L21.3554 45.9729L21.331 45.9658L21.3037 45.9578L21.2738 45.9487L21.2412 45.9385C21.2356 45.9367 21.2298 45.9348 21.2239 45.933L21.1876 45.9211L21.1489 45.9081L21.1078 45.8939L21.0792 45.8838C21.0744 45.8821 21.0695 45.8803 21.0646 45.8786L21.0193 45.862L20.9868 45.8498L20.9534 45.8371C20.4118 45.6282 19.5253 45.1867 18.8607 44.3641C18.8469 44.3471 18.8355 44.3285 18.8266 44.3089C18.3552 43.711 18.0078 42.9202 18.0001 41.8866L18 41.8869V39H25Z" fill="#1A1919"/>
<path d="M46 39V41.8869C45.9927 42.8582 45.6853 43.6152 45.2569 44.1992L45.2294 44.2363C45.2109 44.2608 45.1923 44.285 45.1734 44.309C45.1645 44.3285 45.1531 44.3471 45.1393 44.3641C44.4747 45.1867 43.5882 45.6282 43.0466 45.8371L43.0132 45.8498L42.9807 45.862L42.9354 45.8786L42.9063 45.8889C42.9016 45.8906 42.8968 45.8923 42.8922 45.8939L42.8511 45.9081L42.8124 45.9211L42.7761 45.933L42.7422 45.9437L42.7109 45.9534L42.669 45.9658L42.6446 45.9729L42.623 45.9789L42.5964 45.9861L42.5622 45.9948C42.5457 45.9969 42.5291 45.9989 42.5126 45.9997L42.5063 46H42.5L42.4874 45.9997C42.4709 45.9989 42.4543 45.9969 42.4378 45.9948L42.4175 45.9897L42.377 45.9789L42.3554 45.9729L42.331 45.9658L42.3037 45.9578L42.2738 45.9487L42.2412 45.9385C42.2356 45.9367 42.2298 45.9348 42.2239 45.933L42.1876 45.9211L42.1489 45.9081L42.1078 45.8939L42.0792 45.8838C42.0744 45.8821 42.0695 45.8803 42.0646 45.8786L42.0193 45.862L41.9868 45.8498L41.9534 45.8371C41.4118 45.6282 40.5253 45.1867 39.8607 44.3641C39.8469 44.3471 39.8355 44.3285 39.8266 44.3089C39.3552 43.711 39.0078 42.9202 39.0001 41.8866L39 41.8869V39H46Z" fill="#1A1919"/>
</svg>
