<svg width="64" height="64" viewBox="0 0 64 64" fill="none" xmlns="http://www.w3.org/2000/svg">
<g clip-path="url(#clip0_4124_93461)">
<path d="M17.5001 11.63C29.4401 2.73 44.4301 0.86 57.4701 5.32C67.6801 22.21 65.6701 43.69 53.1301 58.55C52.9001 58.81 52.6101 59.03 52.2901 59.17C40.5601 64.29 27.4101 64.22 15.9901 59.41L13.2101 58.16C11.2401 57.31 9.11006 56.03 6.82006 54.32C4.49006 52.58 2.14006 50.44 0.0300621 48.11C-0.499938 34.35 5.56006 20.52 17.5001 11.63Z" fill="#D8D0FB"/>
<path d="M6.67979 15.9799C10.1698 10.7599 15.9298 7.93994 21.8398 7.93994C28.4698 13.3199 30.8498 22.2399 28.0198 29.9399C27.9598 30.0799 27.8798 30.2099 27.7698 30.3099C23.8098 33.9799 18.5098 35.7599 13.1898 35.3999L11.8798 35.2899C10.9598 35.2199 9.91979 34.9999 8.73979 34.6199C7.53979 34.2399 6.27979 33.7099 5.07979 33.0599C2.80979 27.5999 3.19979 21.2099 6.67979 15.9799Z" fill="#34B1A7"/>
<path d="M56.5 42.5H53V56.5H56.5V42.5Z" fill="#1A1919"/>
<path d="M49.5 35.5H46V56.5H49.5V35.5Z" fill="#1A1919"/>
<path d="M42.5 49.5H39V56.5H42.5V49.5Z" fill="#1A1919"/>
<path d="M19.7502 32C17.3202 32 14.9502 32.71 12.9402 34.06C10.9202 35.41 9.35017 37.32 8.43017 39.56C7.50017 41.8 7.26017 44.26 7.73017 46.63C8.20017 49.01 9.37017 51.19 11.0802 52.91C12.8002 54.62 14.9802 55.79 17.3602 56.26C19.7302 56.73 22.1902 56.49 24.4302 55.56C26.6702 54.64 28.5802 53.07 29.9302 51.05C31.2802 49.04 32.0002 46.67 32.0002 44.25C31.9902 41 30.7002 37.88 28.4002 35.59C26.1102 33.29 22.9902 32 19.7502 32ZM28.3202 42.5H21.5002V35.67C23.1702 36.02 24.7202 36.85 25.9302 38.06C27.1402 39.27 27.9702 40.82 28.3202 42.5ZM19.7502 53C17.5802 52.99 15.4902 52.19 13.8802 50.74C12.2702 49.28 11.2602 47.28 11.0402 45.12C10.8202 42.97 11.4102 40.81 12.7002 39.06C13.9802 37.31 15.8702 36.11 18.0002 35.67V42.5C18.0002 43.42 18.3602 44.31 19.0202 44.97C19.6802 45.63 20.5702 46 21.5002 46H28.3202C27.9102 47.97 26.8402 49.74 25.2802 51.02C23.7102 52.29 21.7602 52.99 19.7502 53Z" fill="#1A1919"/>
<path d="M43.43 25L50.43 14.5H56.5V11H48.56L41.56 21.5H35.5V7.5H32V28.5C32 29.42 32.36 30.31 33.02 30.97C33.68 31.63 34.57 32 35.5 32H56.5V28.5H35.5V25H43.43Z" fill="#1A1919"/>
<path d="M23.25 18C24.21 18 25 17.21 25 16.25C25 15.28 24.21 14.5 23.25 14.5C22.28 14.5 21.5 15.28 21.5 16.25C21.5 17.21 22.28 18 23.25 18Z" fill="#1A1919"/>
<path d="M19.75 25C20.71 25 21.5 24.21 21.5 23.25C21.5 22.28 20.71 21.5 19.75 21.5C18.78 21.5 18 22.28 18 23.25C18 24.21 18.78 25 19.75 25Z" fill="#1A1919"/>
<path d="M16.25 14.5C17.21 14.5 18 13.71 18 12.75C18 11.78 17.21 11 16.25 11C15.28 11 14.5 11.78 14.5 12.75C14.5 13.71 15.28 14.5 16.25 14.5Z" fill="#1A1919"/>
<path d="M12.75 21.5C13.71 21.5 14.5 20.71 14.5 19.75C14.5 18.78 13.71 18 12.75 18C11.78 18 11 18.78 11 19.75C11 20.71 11.78 21.5 12.75 21.5Z" fill="#1A1919"/>
<path d="M9.25 28.5C10.21 28.5 11 27.71 11 26.75C11 25.78 10.21 25 9.25 25C8.28 25 7.5 25.78 7.5 26.75C7.5 27.71 8.28 28.5 9.25 28.5Z" fill="#1A1919"/>
</g>
<defs>
<clipPath id="clip0_4124_93461">
<rect width="64" height="64" fill="white"/>
</clipPath>
</defs>
</svg>
