<svg width="64" height="64" viewBox="0 0 64 64" fill="none" xmlns="http://www.w3.org/2000/svg">
<path d="M1.08066 42.1318C-3.45934 25.1618 6.72066 7.69178 23.8307 3.11178C40.9507 -1.47822 58.5107 8.56178 63.0607 25.5318C63.1807 25.9918 63.2907 26.4518 63.4007 26.9218C60.7607 33.6518 56.7507 39.8118 51.5907 44.9718L49.0707 47.3918C47.3207 49.1218 45.0407 50.8418 42.2307 52.5418C38.0107 55.1018 32.8407 57.3518 27.8307 58.6918L16.5107 61.7318C9.16066 57.7118 3.41066 50.8318 1.08066 42.1318Z" fill="#FCF3CF"/>
<path d="M30.4605 48.9733C28.8305 42.9133 30.5205 36.7233 34.4205 32.2833C42.8405 30.8533 51.1105 34.9433 55.0205 42.1633C55.0905 42.2933 55.1305 42.4333 55.1405 42.5833C55.2905 47.9833 53.1205 53.1433 49.3405 56.9033L48.3905 57.8033C47.7305 58.4533 46.8805 59.0933 45.8205 59.7333C44.7505 60.3833 43.5105 60.9733 42.2305 61.4533C36.6305 59.5533 32.0805 55.0333 30.4605 48.9733Z" fill="#92D65C"/>
<path d="M28.7344 45.8674C28.7344 53.1186 34.6066 59.0002 41.8671 59.0002C49.1183 59.0002 54.9999 53.1186 54.9999 45.8674C54.9999 38.6068 49.1183 32.7346 41.8671 32.7346C34.6066 32.7346 28.7344 38.6068 28.7344 45.8674ZM40.3381 51.9272L49.3903 42.9782L46.7356 40.4548L40.3381 46.7773L37.7866 44.2539L35.1976 46.7585L40.3381 51.9272ZM32.0176 45.8674C32.0176 40.4267 36.4264 36.0178 41.8671 36.0178C47.2985 36.0178 51.7167 40.4267 51.7167 45.8674C51.7167 51.2987 47.2985 55.717 41.8671 55.717C36.4264 55.717 32.0176 51.2987 32.0176 45.8674Z" fill="#1A1919"/>
<path d="M25.2168 51.9647V48.6721H20.3264C19.0788 48.6721 17.9437 47.978 17.3715 46.8617C16.8087 45.7548 16.9119 44.4227 17.6436 43.4096L23.3657 35.5393L25.7484 32.2562H25.7577L30.1385 26.2245V9.28319H36.7048V26.2245L38.6748 28.9354L42.7459 28.9448L39.988 25.1645V9.28319H43.2712V6H23.5721V9.28319H26.8553V25.1645L14.9889 41.4866C13.5255 43.4941 13.3191 46.1487 14.4448 48.3532C15.5705 50.567 17.8406 51.9647 20.3264 51.9647H25.2168Z" fill="#1A1919"/>
</svg>
