<svg width="65" height="65" viewBox="0 0 65 65" fill="none" xmlns="http://www.w3.org/2000/svg">
<path d="M63.15 40.7C58.62 57.63 41.1 67.65 24.02 63.07C6.93998 58.5 -3.21002 41.06 1.31998 24.13C1.43998 23.67 1.56998 23.21 1.71998 22.76C7.34998 18.26 13.89 14.94 20.92 13.05L24.31 12.22C26.69 11.6 29.51 11.25 32.79 11.18C37.71 11.08 43.3 11.71 48.3 13.05L59.59 16.07C63.94 23.22 65.48 32.03 63.15 40.7Z" fill="#FAD7D1"/>
<path d="M35.39 9.94995C41.66 9.94995 47.2 13.18 50.49 18.1C49.68 26.6 43.59 33.53 35.61 35.45C35.47 35.48 35.31 35.48 35.17 35.45C29.92 34.19 25.49 30.7699 22.84 26.1399L22.21 24.99C21.76 24.19 21.36 23.19 21.02 22.01C20.67 20.8 20.42 19.45 20.29 18.1C23.57 13.18 29.11 9.94995 35.39 9.94995Z" fill="#34B1A7"/>
<path d="M21.5 56.5H18V51.25H11V56.5H7.5V51.25C7.50107 50.3221 7.87016 49.4324 8.5263 48.7763C9.18245 48.1202 10.0721 47.7511 11 47.75H18C18.9279 47.7511 19.8175 48.1202 20.4737 48.7763C21.1298 49.4324 21.4989 50.3221 21.5 51.25V56.5Z" fill="#1A1919"/>
<path d="M56.5 56.5H53V51.25H46V56.5H42.5V51.25C42.5011 50.3221 42.8702 49.4324 43.5263 48.7763C44.1824 48.1202 45.0721 47.7511 46 47.75H53C53.9279 47.7511 54.8176 48.1202 55.4737 48.7763C56.1298 49.4324 56.4989 50.3221 56.5 51.25V56.5Z" fill="#1A1919"/>
<path d="M39 56.5H35.5V51.25H28.5V56.5H25V51.25C25.0011 50.3221 25.3702 49.4324 26.0263 48.7763C26.6825 48.1202 27.5721 47.7511 28.5 47.75H35.5C36.4279 47.7511 37.3176 48.1202 37.9737 48.7763C38.6298 49.4324 38.9989 50.3221 39 51.25V56.5Z" fill="#1A1919"/>
<path d="M32 46C33.933 46 35.5 44.433 35.5 42.5C35.5 40.567 33.933 39 32 39C30.067 39 28.5 40.567 28.5 42.5C28.5 44.433 30.067 46 32 46Z" fill="#1A1919"/>
<path d="M14.5 46C16.433 46 18 44.433 18 42.5C18 40.567 16.433 39 14.5 39C12.567 39 11 40.567 11 42.5C11 44.433 12.567 46 14.5 46Z" fill="#1A1919"/>
<path d="M49.5 46C51.433 46 53 44.433 53 42.5C53 40.567 51.433 39 49.5 39C47.567 39 46 40.567 46 42.5C46 44.433 47.567 46 49.5 46Z" fill="#1A1919"/>
<path d="M40.75 39C42.683 39 44.25 37.433 44.25 35.5C44.25 33.567 42.683 32 40.75 32C38.817 32 37.25 33.567 37.25 35.5C37.25 37.433 38.817 39 40.75 39Z" fill="#1A1919"/>
<path d="M23.25 39C25.183 39 26.75 37.433 26.75 35.5C26.75 33.567 25.183 32 23.25 32C21.317 32 19.75 33.567 19.75 35.5C19.75 37.433 21.317 39 23.25 39Z" fill="#1A1919"/>
<path d="M49.5 28.5H14.5C13.5721 28.4989 12.6824 28.1298 12.0263 27.4737C11.3702 26.8175 11.0011 25.9279 11 25V11C11.0011 10.0721 11.3702 9.18245 12.0263 8.5263C12.6824 7.87016 13.5721 7.50107 14.5 7.5H49.5C50.4279 7.50107 51.3176 7.87016 51.9737 8.5263C52.6298 9.18245 52.9989 10.0721 53 11V25C52.9989 25.9279 52.6298 26.8175 51.9737 27.4737C51.3176 28.1298 50.4279 28.4989 49.5 28.5V28.5ZM14.5 11V25H49.5V11H14.5Z" fill="#1A1919"/>
</svg>
