<svg width="64" height="64" viewBox="0 0 64 64" fill="none" xmlns="http://www.w3.org/2000/svg">
<g clip-path="url(#clip0_4104_91551)">
<path d="M1.07968 44.1298C-3.46032 27.1598 6.71968 9.68983 23.8297 5.10983C40.9497 0.519826 58.5097 10.5598 63.0597 27.5298C63.1797 27.9898 63.2897 28.4498 63.3997 28.9198C60.7597 35.6498 56.7497 41.8098 51.5897 46.9698L49.0697 49.3898C47.3197 51.1198 45.0397 52.8398 42.2297 54.5398C38.0097 57.0998 32.8397 59.3498 27.8297 60.6898L16.5097 63.7298C9.15968 59.7098 3.40968 52.8298 1.07968 44.1298Z" fill="#E3F5D6"/>
<path d="M23.0396 21.5797C21.4096 15.5097 23.0996 9.32971 26.9996 4.88971C35.4196 3.45971 43.6896 7.54971 47.5996 14.7697C47.6696 14.8997 47.7096 15.0397 47.7096 15.1897C47.8596 20.5897 45.6996 25.7497 41.9196 29.5097L40.9696 30.4097C40.3096 31.0597 39.4496 31.6997 38.3996 32.3397C37.3196 32.9797 36.0796 33.5797 34.8096 34.0597C29.2096 32.1597 24.6596 27.6397 23.0396 21.5797Z" fill="#EB6047"/>
<path d="M51.6499 45.33L38.9999 27.93V11H42.4999V7.5H21.4999V11H24.9999V27.93L12.3399 45.33C10.7799 47.47 10.5599 50.3 11.7599 52.65C12.9599 55.01 15.3799 56.5 18.0299 56.5H45.9599C48.6099 56.5 51.0299 55.01 52.2299 52.65C53.4299 50.3 53.1999 47.47 51.6499 45.33ZM28.4999 29.06V11H35.4999V29.06L40.1699 35.5H23.8199L28.4999 29.06ZM45.9599 52.99H18.0299C16.6999 52.99 15.4899 52.25 14.8799 51.06C14.2799 49.88 14.3899 48.46 15.1699 47.38L21.2699 38.99H42.7199L48.8199 47.38C49.5999 48.46 49.7099 49.88 49.1099 51.06C48.5099 52.25 47.2899 52.99 45.9599 52.99Z" fill="#1A1919"/>
</g>
<defs>
<clipPath id="clip0_4104_91551">
<rect width="64" height="64" fill="white"/>
</clipPath>
</defs>
</svg>
