<svg width="32" height="32" viewBox="0 0 32 32" fill="none" xmlns="http://www.w3.org/2000/svg">
<path d="M27.2285 23.6171L19.9999 13.6743V4H21.9999V2H9.99993V4H11.9999V13.6743L4.76564 23.6171C3.87421 24.84 3.7485 26.4571 4.43421 27.8C5.11993 29.1486 6.50278 30 8.01707 30H23.9771C25.4914 30 26.8742 29.1486 27.5599 27.8C28.2456 26.4571 28.1142 24.84 27.2285 23.6171ZM13.9999 14.32V4H17.9999V14.32L20.6685 18H11.3256L13.9999 14.32ZM23.9771 27.9943H8.01707C7.25707 27.9943 6.56564 27.5714 6.21707 26.8914C5.87421 26.2171 5.93707 25.4057 6.38278 24.7886L9.8685 19.9943H22.1256L25.6114 24.7886C26.0571 25.4057 26.1199 26.2171 25.7771 26.8914C25.4342 27.5714 24.7371 27.9943 23.9771 27.9943Z" fill="#1A1919"/>
</svg>
