<svg width="64" height="64" viewBox="0 0 64 64" xmlns="http://www.w3.org/2000/svg">
<path class="seg-large" d="M1.03 27.07C1.03 18.17 4.32 10.04 9.74 3.83H26.46C44.18 3.83 59.02 16.18 62.91 32.76C62.97 33.04 62.97 33.33 62.91 33.61C60.54 43.76 54.05 52.32 45.30 57.44L43.12 58.65C41.60 59.53 39.72 60.30 37.48 60.96C35.82 61.44 34.02 61.84 32.18 62.11C14.65 60.11 1.03 45.19 1.03 27.07Z" fill="#D1F2FA"/>
<path class="seg-little" d="M49.04 39.81C41.53 42.67 33.54 41.22 27.52 36.69C24.85 25.91 29.16 14.65 37.88 8.68C38.04 8.57 38.22 8.50 38.41 8.48C45.22 7.63 51.97 9.82 57.12 14.28L58.35 15.41C59.24 16.18 60.14 17.22 61.05 18.52C61.98 19.84 62.87 21.38 63.60 22.98C61.77 30.49 56.54 36.96 49.04 39.81Z" fill="#92D65C"/>
<path d="M12.73 9.64C17.38 7.43 22.96 8.35 26.66 12.04C30.01 15.40 31.08 20.31 29.60 24.66L29.54 24.81L31.89 27.13L37.44 21.59L37.43 21.41L37.42 20.64C37.26 17.97 34.80 15.60 29.65 13.57C28.17 12.99 28.17 10.90 29.66 10.32C36.21 7.75 41.55 7.86 45.91 10.53L46.30 10.77L46.60 11.01L52.79 17.20C53.11 17.53 53.30 17.97 53.30 18.44L53.30 19.83L57.28 21.82C58.28 22.32 58.55 23.61 57.88 24.46L57.74 24.63L50.31 32.05C49.47 32.89 48.04 32.66 47.51 31.60L45.76 28.11L39.36 34.51L54.08 49.04C55.30 50.26 55.43 52.17 54.46 53.53L54.28 53.77L54.08 53.99L51.60 56.47C50.24 57.83 48.02 57.83 46.66 56.47L31.93 41.93L17.45 56.41C16.23 57.63 14.32 57.76 12.96 56.80L12.72 56.61L12.50 56.41L10.02 53.94C8.66 52.57 8.66 50.35 10.02 48.99L24.46 34.55L22.12 32.24L21.95 32.30C17.75 33.74 13.03 32.79 9.69 29.71L9.34 29.37C5.63 25.67 4.72 20.07 6.94 15.42C7.47 14.33 8.91 14.08 9.76 14.94L16.89 22.08C17.58 22.76 18.68 22.76 19.37 22.08C20.05 21.39 20.05 20.28 19.36 19.60L12.25 12.46C11.39 11.60 11.64 10.16 12.73 9.64ZM36.88 36.98L34.41 39.46L49.13 53.99L51.60 51.52L36.88 36.98ZM44.08 13.51C41.70 12.05 38.87 11.59 35.40 12.25L35.07 12.31L35.58 12.63C38.94 14.77 40.77 17.39 40.91 20.48L40.96 21.28L40.98 22.10C41.03 22.62 40.84 23.13 40.47 23.50L12.50 51.46L14.97 53.94L44.30 24.62C44.63 24.30 45.07 24.11 45.54 24.11L46.60 24.11C47.26 24.11 47.87 24.49 48.16 25.08L49.55 27.86L53.54 23.87L50.77 22.48C50.24 22.21 49.88 21.71 49.81 21.13L49.80 20.91L49.80 19.16L44.26 13.62L44.08 13.51ZM23.85 14.20C21.93 12.47 19.39 11.72 16.92 12.02L16.77 12.04L21.84 17.13C23.81 19.09 23.89 22.24 22.08 24.30L21.84 24.55C19.79 26.60 16.47 26.60 14.42 24.55L9.33 19.46L9.31 19.61C9.00 22.10 9.77 24.66 11.52 26.59L11.81 26.89C14.45 29.54 18.45 30.19 21.77 28.60C22.44 28.29 23.23 28.42 23.75 28.94L26.93 32.08L29.41 29.61L26.25 26.48C25.71 25.95 25.57 25.15 25.90 24.48C27.48 21.16 26.83 17.16 24.18 14.52L23.85 14.20Z" fill="#1A1919"/>
</svg>
