<svg width="32" height="33" viewBox="0 0 32 33" fill="none" xmlns="http://www.w3.org/2000/svg">
<path d="M29.1189 25.9521V25.2565C29.1189 25.072 29.1948 24.8951 29.3298 24.7646C29.4648 24.6342 29.648 24.5609 29.8389 24.5609C30.0298 24.5609 30.213 24.6342 30.348 24.7646C30.483 24.8951 30.5589 25.072 30.5589 25.2565V32.2127H31.9988V25.2565C31.9982 24.7032 31.7704 24.1728 31.3655 23.7815C30.9606 23.3903 30.4115 23.1702 29.8389 23.1696C29.4668 23.1719 29.1017 23.2682 28.78 23.4488C28.4885 22.9931 28.0244 22.6653 27.4864 22.5353C26.9485 22.4054 26.3793 22.4836 25.9001 22.7532C25.7065 22.4554 25.438 22.2097 25.1196 22.0393C24.8012 21.8688 24.4432 21.779 24.0792 21.7784C23.8333 21.7807 23.5898 21.8242 23.3592 21.9068V18.3003C23.3592 17.7468 23.1317 17.216 22.7266 16.8246C22.3216 16.4332 21.7722 16.2134 21.1994 16.2134C20.6265 16.2134 20.0771 16.4332 19.6721 16.8246C19.267 17.216 19.0395 17.7468 19.0395 18.3003V26.0248L17.4304 24.961L17.4299 24.9617C16.9901 24.6522 16.4457 24.5146 15.9055 24.5762C15.3652 24.6379 14.869 24.8943 14.5159 25.2942C14.1629 25.6941 13.9791 26.208 14.0013 26.7331C14.0235 27.2583 14.2501 27.756 14.6357 28.1268L19.2715 32.2127L20.242 31.1846L15.6495 27.1372C15.5829 27.073 15.53 26.9967 15.494 26.9127C15.458 26.8287 15.4395 26.7387 15.4397 26.6477C15.4397 26.5186 15.4769 26.3919 15.5472 26.282C15.6175 26.1722 15.718 26.0833 15.8376 26.0255C15.9572 25.9677 16.091 25.9432 16.2242 25.9547C16.3573 25.9662 16.4846 26.0133 16.5916 26.0907L20.4794 28.6619V18.3003C20.4794 18.1158 20.5552 17.9388 20.6903 17.8084C20.8253 17.6779 21.0084 17.6046 21.1994 17.6046C21.3903 17.6046 21.5734 17.6779 21.7084 17.8084C21.8435 17.9388 21.9193 18.1158 21.9193 18.3003V18.3003V25.9521H23.3592V23.8652C23.3592 23.6808 23.4351 23.5038 23.5701 23.3734C23.7051 23.2429 23.8883 23.1696 24.0792 23.1696C24.2702 23.1696 24.4533 23.2429 24.5883 23.3734C24.7233 23.5038 24.7992 23.6808 24.7992 23.8652V25.9521H26.2391V24.5609C26.2391 24.3764 26.3149 24.1994 26.45 24.069C26.585 23.9385 26.7681 23.8652 26.9591 23.8652C27.15 23.8652 27.3331 23.9385 27.4681 24.069C27.6032 24.1994 27.679 24.3764 27.679 24.5609V25.9521H29.1189Z" fill="#1A1919"/>
<path d="M15.9995 20.6421C15.7028 20.6421 15.4128 20.7301 15.1661 20.8949C14.9195 21.0597 14.7272 21.294 14.6137 21.568C14.5002 21.8421 14.4705 22.1437 14.5283 22.4347C14.5862 22.7256 14.7291 22.9929 14.9388 23.2026C15.1486 23.4124 15.4159 23.5553 15.7068 23.6131C15.9978 23.671 16.2994 23.6413 16.5735 23.5278C16.8475 23.4143 17.0818 23.222 17.2466 22.9754C17.4114 22.7287 17.4994 22.4387 17.4994 22.142C17.4994 21.7442 17.3414 21.3627 17.0601 21.0814C16.7788 20.8001 16.3973 20.6421 15.9995 20.6421Z" fill="#1A1919"/>
<path d="M16.9994 9.64258H14.9995V18.6422H16.9994V9.64258Z" fill="#1A1919"/>
<path d="M2.99997 27.6418C2.82817 27.6418 2.65927 27.5975 2.50955 27.5132C2.35983 27.429 2.23434 27.3076 2.14519 27.1607C2.05603 27.0139 2.00622 26.8465 2.00055 26.6748C1.99487 26.5031 2.03354 26.3328 2.1128 26.1804L15.1123 1.18142C15.1967 1.01906 15.3241 0.88298 15.4805 0.788011C15.6369 0.693042 15.8164 0.642822 15.9994 0.642822C16.1824 0.642822 16.3619 0.693042 16.5184 0.788011C16.6748 0.88298 16.8022 1.01906 16.8866 1.18142L23.8118 14.4991H21.5577L16.0014 3.81411H15.9974L4.6486 25.6385L4.6506 25.6418H11.9996V27.6418H2.99997Z" fill="#1A1919"/>
</svg>
