<svg width="64" height="65" viewBox="0 0 64 65" fill="none" xmlns="http://www.w3.org/2000/svg">
<path d="M16.808 8.75465C28.2745 0.248722 42.67 -1.53848 55.1929 2.72404C64.998 18.8662 63.0677 39.3951 51.025 53.5972C50.8041 53.8457 50.5256 54.0559 50.2183 54.1897C38.9535 59.083 26.325 59.0161 15.3578 54.4191L12.6881 53.2244C10.7962 52.4121 8.75067 51.1887 6.55148 49.5545C4.31388 47.8915 2.05707 45.8463 0.0307456 43.6194C-0.478237 30.4687 5.34145 17.251 16.808 8.75465Z" fill="#D1F2FA"/>
<path d="M41.218 63.154C33.6637 60.4513 28.4164 54.2241 26.6377 46.953C31.3455 37.1561 41.7432 31.5092 52.1888 32.644C52.3813 32.6752 52.5674 32.734 52.7251 32.8388C58.4896 36.5923 62.3026 42.5704 63.4552 49.2254L63.7124 50.8707C63.9021 52.0239 63.941 53.3705 63.8227 54.9381C63.7104 56.5303 63.4293 58.2421 62.9805 59.9166C56.8608 64.3736 48.7817 65.8414 41.218 63.154Z" fill="#92D65C"/>
<path d="M54.958 49.0411V47.8237C54.958 47.5009 55.0908 47.1912 55.327 46.9629C55.5633 46.7347 55.8838 46.6064 56.218 46.6064C56.5521 46.6064 56.8726 46.7347 57.1089 46.9629C57.3451 47.1912 57.4779 47.5009 57.4779 47.8237V59.9972H59.9978V47.8237C59.9967 46.8555 59.5981 45.9272 58.8895 45.2425C58.1809 44.5579 57.2201 44.1728 56.218 44.1717C55.5667 44.1757 54.9279 44.3441 54.3648 44.6604C53.8548 43.8627 53.0425 43.2891 52.1011 43.0617C51.1597 42.8343 50.1636 42.9711 49.3251 43.443C48.9863 42.9218 48.5164 42.4919 47.9591 42.1936C47.4019 41.8953 46.7755 41.7382 46.1385 41.737C45.7082 41.7412 45.282 41.8172 44.8786 41.9617V35.6503C44.8786 34.6817 44.4803 33.7528 43.7715 33.0679C43.0626 32.3831 42.1012 31.9983 41.0988 31.9983C40.0963 31.9983 39.1349 32.3831 38.426 33.0679C37.7172 33.7528 37.319 34.6817 37.319 35.6503V49.1683L34.5031 47.3066L34.5021 47.3078C33.7326 46.7663 32.7799 46.5254 31.8344 46.6333C30.889 46.7411 30.0206 47.1898 29.4028 47.8897C28.785 48.5895 28.4633 49.4888 28.5022 50.4079C28.541 51.3269 28.9375 52.1979 29.6123 52.8467L37.725 59.9972L39.4233 58.1979L31.3866 51.1149C31.2699 51.0026 31.1774 50.8691 31.1143 50.7221C31.0513 50.5751 31.019 50.4175 31.0193 50.2584C31.0193 50.0324 31.0845 49.8108 31.2075 49.6185C31.3305 49.4261 31.5064 49.2707 31.7157 49.1695C31.9249 49.0683 32.1591 49.0254 32.3922 49.0456C32.6252 49.0657 32.8479 49.1481 33.0352 49.2836L39.8388 53.7832V35.6503C39.8388 35.3275 39.9716 35.0178 40.2078 34.7895C40.4441 34.5612 40.7646 34.433 41.0988 34.433C41.4329 34.433 41.7534 34.5612 41.9897 34.7895C42.2259 35.0178 42.3587 35.3275 42.3587 35.6503V35.6503V49.0411H44.8786V45.3891C44.8786 45.0662 45.0113 44.7566 45.2476 44.5283C45.4839 44.3 45.8043 44.1717 46.1385 44.1717C46.4726 44.1717 46.7931 44.3 47.0294 44.5283C47.2657 44.7566 47.3984 45.0662 47.3984 45.3891V49.0411H49.9183V46.6064C49.9183 46.2835 50.051 45.9739 50.2873 45.7456C50.5236 45.5173 50.8441 45.3891 51.1782 45.3891C51.5124 45.3891 51.8328 45.5173 52.0691 45.7456C52.3054 45.9739 52.4382 46.2835 52.4382 46.6064V49.0411H54.958Z" fill="#1A1919"/>
<path d="M31.9989 39.7485C31.4798 39.7485 30.9723 39.9025 30.5406 40.1909C30.1089 40.4793 29.7725 40.8893 29.5738 41.3689C29.3752 41.8486 29.3232 42.3763 29.4245 42.8855C29.5257 43.3947 29.7757 43.8624 30.1428 44.2295C30.5099 44.5966 30.9776 44.8466 31.4868 44.9479C31.996 45.0492 32.5238 44.9972 33.0034 44.7985C33.4831 44.5998 33.893 44.2634 34.1814 43.8317C34.4699 43.4001 34.6238 42.8926 34.6238 42.3734C34.6238 41.6773 34.3473 41.0096 33.855 40.5174C33.3627 40.0251 32.6951 39.7485 31.9989 39.7485Z" fill="#1A1919"/>
<path d="M33.7489 20.4993H30.249V36.2486H33.7489V20.4993Z" fill="#1A1919"/>
<path d="M9.24945 51.9979C8.94881 51.9979 8.65323 51.9204 8.39122 51.773C8.12921 51.6255 7.90961 51.4131 7.75359 51.1561C7.59757 50.8991 7.51039 50.6062 7.50047 50.3057C7.49054 50.0052 7.5582 49.7073 7.69692 49.4405L30.446 5.69229C30.5938 5.40816 30.8167 5.17003 31.0904 5.00384C31.3642 4.83764 31.6783 4.74976 31.9985 4.74976C32.3188 4.74976 32.6329 4.83764 32.9067 5.00384C33.1804 5.17003 33.4033 5.40816 33.5511 5.69229L45.6702 28.9983H41.7255L32.002 10.2995H31.995L12.1346 48.4922L12.1381 48.498H24.9988V51.9979H9.24945Z" fill="#1A1919"/>
</svg>
