<svg width="64" height="64" viewBox="0 0 64 64" xmlns="http://www.w3.org/2000/svg">
<path class="seg-large" d="M57.27 8.14C58.54 8.14 59.59 9.18 59.60 10.44L59.86 49.58C59.89 53.42 59.44 57.14 58.58 60.70C56.07 61.15 53.48 61.39 50.83 61.39C26.99 61.39 7.53 42.13 7.37 18.38C7.34 14.85 7.75 11.42 8.53 8.14H57.27Z" fill="#D1F2FA"/>
<path class="seg-little" d="M14.21 6.63C14.56 6.02 15.35 5.80 15.96 6.15L34.82 16.73C36.67 17.77 38.33 19.00 39.80 20.39C39.32 21.72 38.72 23.02 37.98 24.29C31.37 35.74 16.73 39.82 5.29 33.39C3.59 32.44 2.05 31.31 0.70 30.04L14.21 6.63Z" fill="#8A72F3"/>
<path d="M23.54 14.5L29.53 20.46L30.54 21.5H53V49.5H11V14.5H23.54ZM23.54 11H11C9.06 11 7.5 12.56 7.5 14.5V49.5C7.5 51.43 9.06 53 11 53H53C54.93 53 56.5 51.43 56.5 49.5V21.5C56.5 19.56 54.93 18 53 18H32L26.03 12.03C25.37 11.37 24.48 10.99 23.54 11Z" fill="#1A1919"/>
</svg>
