<svg width="64" height="64" viewBox="0 0 64 64" fill="none" xmlns="http://www.w3.org/2000/svg">
<path d="M0.660156 26.07C0.660156 17.17 3.95016 9.03996 9.37016 2.82996H26.0902C43.8102 2.82996 58.6502 15.18 62.5402 31.76C62.6002 32.04 62.6002 32.33 62.5402 32.61C60.1702 42.76 53.6802 51.32 44.9302 56.44L42.7502 57.65C41.2302 58.53 39.3502 59.3 37.1102 59.96C35.4502 60.44 33.6502 60.84 31.8102 61.11C14.2802 59.11 0.660156 44.19 0.660156 26.07Z" fill="#D1F2FA"/>
<path d="M34.6702 38.81C27.1602 41.67 19.1702 40.22 13.1502 35.69C10.4802 24.91 14.7902 13.65 23.5102 7.67997C23.6702 7.56997 23.8502 7.49997 24.0402 7.47997C30.8502 6.62997 37.6002 8.81997 42.7502 13.28L43.9802 14.41C44.8702 15.18 45.7702 16.22 46.6802 17.52C47.6102 18.84 48.5002 20.38 49.2302 21.98C47.4002 29.49 42.1702 35.96 34.6702 38.81Z" fill="#92D65C"/>
<path d="M49.5 56.5H14.5C13.5721 56.4989 12.6824 56.1298 12.0263 55.4737C11.3702 54.8175 11.0011 53.9279 11 53V11C11.0011 10.0721 11.3702 9.18245 12.0263 8.5263C12.6824 7.87016 13.5721 7.50107 14.5 7.5H49.5C50.4279 7.50107 51.3176 7.87016 51.9737 8.5263C52.6298 9.18245 52.9989 10.0721 53 11V53C52.9989 53.9279 52.6298 54.8175 51.9737 55.4737C51.3176 56.1298 50.4279 56.4989 49.5 56.5ZM14.5 11V53H49.5V11H14.5Z" fill="#1A1919"/>
<path fill-rule="evenodd" clip-rule="evenodd" d="M18 18C18 16.067 19.567 14.5 21.5 14.5H25C26.933 14.5 28.5 16.067 28.5 18V28.5H25V25H21.5V28.5H18V18ZM21.5 21.5H25V18L21.5 18V21.5Z" fill="#1A1919"/>
<path d="M32 51.25C33.933 51.25 35.5 49.683 35.5 47.75C35.5 45.817 33.933 44.25 32 44.25C30.067 44.25 28.5 45.817 28.5 47.75C28.5 49.683 30.067 51.25 32 51.25Z" fill="#1A1919"/>
<rect x="32" y="14.5" width="14" height="3.5" fill="#1A1919"/>
<rect x="32" y="21.5" width="7" height="3.5" fill="#1A1919"/>
</svg>
