<svg width="64" height="64" viewBox="0 0 64 64" fill="none" xmlns="http://www.w3.org/2000/svg">
<g clip-path="url(#clip0_4098_91540)">
<path d="M47.01 15.8598C57.58 25.7498 61.96 39.7598 59.94 52.9898C45.56 65.6698 24.68 67.4598 8.3 58.0298C8.01 57.8498 7.75 57.6198 7.56 57.3298C0.640001 47.0098 -1.55 34.4198 1.07 22.6698L1.78 19.7898C2.25 17.7598 3.11 15.5098 4.35 13.0198C5.61 10.4998 7.26 7.8798 9.12 5.4598C22.18 2.5698 36.45 5.9898 47.01 15.8598Z" fill="#FCF3CF"/>
<path d="M40 37.79C40 44.53 35.07 50 29 50C22.92 50 18 44.53 18 37.79C18 37.61 18 37.42 18.01 37.24C19.48 35.01 21.35 33.12 23.52 31.72L24.57 31.08C25.3 30.61 26.21 30.2 27.29 29.85C28.91 29.32 30.83 29 32.61 29H36.62C38.7 31.22 40 34.34 40 37.79Z" fill="#EB6047"/>
<path d="M37.25 7.5C39.09 7.5 40.6 8.92 40.74 10.73L40.75 11V11.72C48.67 13.96 54.52 21.15 54.74 29.74L54.75 30.25V37.54C56.69 38.23 58.11 40.04 58.24 42.19L58.25 42.5V43.17C58.25 45.53 56.66 47.59 54.41 48.22L54.1 48.3L32.36 52.96C32.2 52.99 32.04 53 31.87 52.99L31.63 52.96L9.89 48.3C7.58 47.8 5.9 45.82 5.75 43.49V43.17V42.5C5.75 40.21 7.21 38.26 9.25 37.54V30.25C9.25 21.43 15.17 14 23.25 11.72V11C23.25 9.15 24.67 7.64 26.48 7.5H26.75H37.25ZM53 40.75H40.58C39.78 44.76 36.24 47.78 32 47.78C27.88 47.78 24.43 44.94 23.5 41.12L23.41 40.75H11C10.1 40.75 9.36 41.42 9.26 42.29L9.25 42.5V43.17C9.25 43.92 9.73 44.58 10.43 44.82L10.63 44.88L31.99 49.45L53.36 44.88C54.03 44.73 54.54 44.22 54.69 43.59L54.73 43.37L54.75 43.17V42.5C54.75 41.6 54.07 40.86 53.2 40.76L53 40.75ZM32 33.78C29.1 33.78 26.75 36.13 26.75 39.03C26.75 41.93 29.1 44.28 32 44.28C34.89 44.28 37.25 41.93 37.25 39.03C37.25 36.13 34.89 33.78 32 33.78ZM37.25 11H26.75V26.75H23.25V15.39C17.27 17.5 12.94 23.12 12.75 29.78V30.25V37.25L23.43 37.24C24.25 33.27 27.77 30.28 32 30.28C36.22 30.28 39.74 33.27 40.56 37.24L51.25 37.25V30.25C51.25 23.39 46.86 17.55 40.75 15.39V26.75H37.25V11Z" fill="#1A1919"/>
</g>
<defs>
<clipPath id="clip0_4098_91540">
<rect width="64" height="64" fill="white"/>
</clipPath>
</defs>
</svg>
