<svg width="64" height="64" viewBox="0 0 64 64" xmlns="http://www.w3.org/2000/svg">
<path class="seg-large" d="M43.06 5.62C55.46 12.79 62.82 25.32 63.84 38.54C52.80 53.99 33.06 60.39 15.16 54.96C14.84 54.86 14.54 54.69 14.29 54.46C5.30 46.05 0.36 34.40 0.26 22.47L0.30 19.54C0.30 17.48 0.62 15.11 1.26 12.44C1.92 9.72 2.92 6.82 4.17 4.07C16.12 -1.63 30.65 -1.53 43.06 5.62Z" fill="#FAD7D1"/>
<path class="seg-little" d="M45.19 47.55C45.19 53.56 40.55 58.42 34.81 58.42C29.08 58.42 24.43 53.56 24.43 47.55C24.43 47.39 24.44 47.22 24.44 47.06C25.83 45.07 27.60 43.39 29.64 42.14L30.64 41.57C31.33 41.15 32.18 40.79 33.21 40.47C34.74 40.00 36.54 39.71 38.22 39.71H42.01C43.97 41.69 45.19 44.47 45.19 47.55Z" fill="#B1A1F7"/>
<path d="M39 14.5H18V18H39V14.5Z" fill="#1A1919"/>
<path d="M39 21.5H18V25H39V21.5Z" fill="#1A1919"/>
<path d="M28.5 28.5H18V32H28.5V28.5Z" fill="#1A1919"/>
<path d="M25 46H18V49.5H25V46Z" fill="#1A1919"/>
<path d="M28.5 56.5H14.5C13.57 56.49 12.68 56.13 12.02 55.47C11.37 54.81 11.00 53.92 11 53V11C11.00 10.07 11.37 9.18 12.02 8.52C12.68 7.87 13.57 7.50 14.5 7.5H42.5C43.42 7.50 44.31 7.87 44.97 8.52C45.63 9.18 45.99 10.07 46 11V34.62H42.5V11H14.5V53H28.5V56.5Z" fill="#1A1919"/>
<path d="M55.98 41.26L50.73 36.01C50.57 35.85 50.38 35.72 50.16 35.63C49.95 35.54 49.72 35.5 49.5 35.5C49.27 35.5 49.04 35.54 48.83 35.63C48.61 35.72 48.42 35.85 48.26 36.01L32 52.27V60.00H39.72L55.98 43.73C56.14 43.57 56.27 43.38 56.36 43.16C56.45 42.95 56.50 42.72 56.50 42.50C56.50 42.27 56.45 42.04 56.36 41.83C56.27 41.61 56.14 41.42 55.98 41.26ZM38.27 56.50H35.5V53.72L44.25 44.97L47.02 47.75L38.27 56.50ZM49.5 45.27L46.72 42.50L49.5 39.72L52.27 42.50L49.5 45.27Z" fill="#1A1919"/>
</svg>
