<svg width="64" height="64" viewBox="0 0 64 64" xmlns="http://www.w3.org/2000/svg">
<path class="seg-large" d="M28.95 61.92C20.05 61.92 11.92 58.63 5.72 53.21V36.49C5.72 18.78 18.07 3.93 34.64 0.04C34.92 -0.01 35.21 -0.01 35.49 0.04C45.65 2.42 54.20 8.90 59.33 17.65L60.54 19.83C61.41 21.35 62.18 23.23 62.84 25.48C63.33 27.13 63.72 28.93 63.99 30.77C61.99 48.30 47.07 61.92 28.95 61.92Z" fill="#E4F5D6"/>
<path class="seg-little" d="M2.34 18.53C-0.79 13.10 -0.67 6.76 2.06 1.55C10.05 -1.85 19.27 0.07 24.96 6.05C25.07 6.16 25.14 6.29 25.18 6.43C26.69 11.58 25.84 17.06 23.04 21.58L22.33 22.68C21.84 23.46 21.15 24.28 20.26 25.15C19.36 26.03 18.28 26.90 17.14 27.67C11.12 27.20 5.47 23.96 2.34 18.53Z" fill="#F6D965"/>
<path d="M44.25 19.75H54.75C56.68 19.75 58.25 18.19 58.25 16.25V9.25C58.25 7.32 56.68 5.75 54.75 5.75H44.25C42.31 5.75 40.75 7.32 40.75 9.25V11.00H23.25V9.25C23.25 7.32 21.68 5.75 19.75 5.75H9.25C7.31 5.75 5.75 7.32 5.75 9.25V16.25C5.75 18.19 7.31 19.75 9.25 19.75H19.75C21.68 19.75 23.25 18.19 23.25 16.25V14.50H30.25V49.50C30.25 51.44 31.81 53.00 33.75 53.00H40.75V54.75C40.75 56.69 42.31 58.25 44.25 58.25H54.75C56.68 58.25 58.25 56.69 58.25 54.75V47.75C58.25 45.82 56.68 44.25 54.75 44.25H44.25C42.31 44.25 40.75 45.82 40.75 47.75V49.50H33.75V33.75H40.75V35.50C40.75 37.44 42.31 39.00 44.25 39.00H54.75C56.68 39.00 58.25 37.44 58.25 35.50V28.50C58.25 26.57 56.68 25.00 54.75 25.00H44.25C42.31 25.00 40.75 26.57 40.75 28.50V30.25H33.75V14.50H40.75V16.25C40.75 18.19 42.31 19.75 44.25 19.75ZM44.25 9.25H54.75V16.25H44.25V9.25ZM19.75 16.25H9.25V9.25H19.75V16.25ZM44.25 47.75H54.75V54.75H44.25V47.75ZM44.25 28.50H54.75V35.50H44.25V28.50Z" fill="#1A1919"/>
</svg>
