<svg width="64" height="64" viewBox="0 0 64 64" fill="none" xmlns="http://www.w3.org/2000/svg">
<path d="M36.18 63.73C18.41 63.73 4 49.47 4 31.87C4 14.27 18.41 0 36.18 0C36.67 0 37.15 0.00999878 37.63 0.0299988C43.52 4.29 48.49 9.73 52.19 16L53.89 19.04C55.12 21.17 56.2 23.8 57.13 26.93C58.53 31.63 59.37 37.18 59.37 42.33V53.96C53.52 59.99 45.29 63.73 36.18 63.73Z" fill="#D1F2FA"/>
<path d="M9.43976 17.6601C9.18976 17.0001 9.52976 16.2501 10.1798 16.0001L30.3998 8.31009C32.3798 7.56009 34.3898 7.07009 36.3998 6.84009C37.1098 8.06009 37.7298 9.36009 38.2298 10.7401C42.7798 23.1501 36.5198 36.9901 24.2498 41.6601C22.4298 42.3501 20.5798 42.8101 18.7298 43.0301L9.43976 17.6601Z" fill="#F6D965"/>
<path d="M35.045 56.5L32 54.75L39 42.5H49.5C50.4283 42.5 51.3185 42.1313 51.9749 41.4749C52.6313 40.8185 53 39.9283 53 39V18C53 17.0717 52.6313 16.1815 51.9749 15.5251C51.3185 14.8687 50.4283 14.5 49.5 14.5H14.5C13.5717 14.5 12.6815 14.8687 12.0251 15.5251C11.3687 16.1815 11 17.0717 11 18V39C11 39.9283 11.3687 40.8185 12.0251 41.4749C12.6815 42.1313 13.5717 42.5 14.5 42.5H30.25V46H14.5C12.6435 46 10.863 45.2625 9.55025 43.9497C8.2375 42.637 7.5 40.8565 7.5 39V18C7.5 16.1435 8.2375 14.363 9.55025 13.0503C10.863 11.7375 12.6435 11 14.5 11H49.5C51.3565 11 53.137 11.7375 54.4497 13.0503C55.7625 14.363 56.5 16.1435 56.5 18V39C56.5 40.8565 55.7625 42.637 54.4497 43.9497C53.137 45.2625 51.3565 46 49.5 46H41.03L35.045 56.5Z" fill="#1A1919"/>
<path d="M33.75 19.75H30.25V26.75H23.25V30.25H30.25V37.25H33.75V30.25H40.75V26.75H33.75V19.75Z" fill="#1A1919"/>
</svg>
