<svg width="64" height="64" viewBox="0 0 64 64" fill="none" xmlns="http://www.w3.org/2000/svg">
<path d="M32.01 57.2102C18.7 57.2102 6.96 50.3702 0 39.9502C1.71 21.9302 14.61 7.2402 31.53 3.1902C31.84 3.1202 32.16 3.1202 32.47 3.1902C43.6 5.8502 52.98 13.1102 58.6 22.9102L59.93 25.3502C60.89 27.0502 61.73 29.1602 62.45 31.6702C63.19 34.2202 63.73 37.0902 64 39.9602C57.05 50.3702 45.31 57.2102 32.01 57.2102Z" fill="#D8D0FB"/>
<path d="M50.6044 36.12C43.2244 38.59 35.2344 34.56 32.7444 27.12C30.2544 19.68 34.2144 11.65 41.5844 9.18C41.7944 9.12 41.9944 9.05 42.1944 9C45.2444 9.98 48.0744 11.58 50.4944 13.72L51.6244 14.77C52.4444 15.5 53.2644 16.46 54.0844 17.66C55.3344 19.45 56.4644 21.67 57.1944 23.85L58.8444 28.77C57.2644 32.13 54.3844 34.85 50.6044 36.12Z" fill="#47C9EB"/>
<path fill-rule="evenodd" clip-rule="evenodd" d="M14.6433 20.0587L30.25 15.8769V14.5002C30.25 13.5337 31.0335 12.7502 32 12.7502C32.9665 12.7502 33.75 13.5337 33.75 14.5002V14.9391L48.4507 11L49.3566 14.3807L47.3136 14.9282L53.5922 25.803C54.382 25.2683 55.1209 24.6636 55.8 23.9979L58.2502 26.4972C54.7797 29.8993 50.021 32 44.7751 32C40.675 32 36.8724 30.7168 33.75 28.5318V49.5002H49.5V53.0002H14.5V49.5002H30.25V35.532C27.1276 37.7168 23.3251 39 19.2251 39C13.9792 39 9.22043 36.8993 5.75 33.4972L8.20016 30.9979C8.78252 31.5688 9.4088 32.0947 10.0735 32.5702L15.4845 23.198L14.6433 20.0587ZM30.25 19.5003L30.25 30.9979C29.5709 31.6636 28.832 32.2683 28.0422 32.803L21.6867 21.7949L30.25 19.5003ZM33.7502 23.9979C34.3325 24.5688 34.9588 25.0947 35.6235 25.5702L40.7527 16.6862L33.75 18.5625L33.7502 23.9979ZM38.6792 27.2775L44.5406 17.1252L50.4909 27.4313C48.7192 28.1215 46.7917 28.5 44.7751 28.5C42.6133 28.5 40.554 28.0651 38.6792 27.2775ZM18.9906 24.1252L13.1292 34.2775C15.004 35.0651 17.0633 35.5 19.2251 35.5C21.2417 35.5 23.1691 35.1215 24.9409 34.4313L18.9906 24.1252Z" fill="#1A1919"/>
</svg>
