<svg width="32" height="33" viewBox="0 0 32 33" fill="none" xmlns="http://www.w3.org/2000/svg">
<path fill-rule="evenodd" clip-rule="evenodd" d="M16 4.5C9.37258 4.5 4 9.87258 4 16.5C4 23.1274 9.37258 28.5 16 28.5C22.6274 28.5 28 23.1274 28 16.5C28 9.87258 22.6274 4.5 16 4.5ZM0 16.5C0 7.66344 7.16344 0.5 16 0.5C24.8366 0.5 32 7.66344 32 16.5C32 25.3366 24.8366 32.5 16 32.5C7.16344 32.5 0 25.3366 0 16.5Z" fill="#D6DCE0"/>
<path fill-rule="evenodd" clip-rule="evenodd" d="M28 16.5C28 23.1274 22.6274 28.5 16 28.5C11.6146 28.5 7.77627 26.1487 5.68044 22.6285L2.24347 24.6748C5.03065 29.3562 10.1472 32.5 16 32.5C24.8366 32.5 32 25.3366 32 16.5C32 7.66344 24.8366 0.5 16 0.5V4.5C22.6274 4.5 28 9.87258 28 16.5Z" fill="#1CD390"/>
</svg>
