<svg width="32" height="33" viewBox="0 0 32 33" fill="none" xmlns="http://www.w3.org/2000/svg">
<path fill-rule="evenodd" clip-rule="evenodd" d="M5 12.9801C5.08 7.09438 10.0057 2.38581 16 2.4601C21.9886 2.38581 26.9143 7.09438 27 12.9801C26.9943 15.2658 26.2229 17.4887 24.8 19.2944L16 31.923L7.2 19.2944C5.77143 17.4887 5 15.2658 5 12.9801ZM25 12.9801C24.9029 8.1801 20.88 4.35724 16 4.42581C11.1143 4.35724 7.09143 8.1801 7 12.9801C6.99429 14.8658 7.64571 16.7001 8.84571 18.1744L16 28.4487L23.2057 18.0944C24.3657 16.6372 25 14.8315 25 12.9801ZM16 10.3172C17.6514 10.3172 19 11.6372 19 13.2658C19 14.8944 17.6514 16.2087 16 16.2087C14.3429 16.2087 13 14.8944 13 13.2658C13 11.6372 14.3429 10.3172 16 10.3172ZM11 13.2658C11 10.5515 13.2343 8.35152 16 8.35152C18.76 8.35152 21 10.5515 21 13.2658C21 15.9744 18.76 18.1744 16 18.1744C13.2343 18.1744 11 15.9744 11 13.2658Z" fill="#1A1919"/>
</svg>
