<svg width="64" height="64" viewBox="0 0 64 64" xmlns="http://www.w3.org/2000/svg">
<path class="seg-large" d="M35.04 2C43.94 2 52.07 5.28 58.27 10.71V27.42C58.27 45.14 45.92 59.99 29.35 63.88C29.07 63.94 28.78 63.94 28.50 63.88C18.34 61.50 9.79 55.02 4.66 46.27L3.45 44.09C2.58 42.57 1.81 40.69 1.15 38.44C0.66 36.79 0.27 34.99 0 33.14C2.00 15.61 16.92 2 35.04 2Z" fill="#B0E8E3"/>
<path class="seg-little" d="M52.42 60.07C46.56 62.30 40.31 61.17 35.61 57.63C33.52 49.20 36.89 40.40 43.71 35.74C43.83 35.66 43.97 35.60 44.12 35.58C49.44 34.92 54.72 36.63 58.74 40.11L59.70 41.00C60.39 41.60 61.10 42.41 61.81 43.43C62.54 44.46 63.23 45.66 63.80 46.91C62.37 52.78 58.28 57.84 52.42 60.07Z" fill="#F6D965"/>
<path d="M45.12 32C52.37 32 58.25 37.87 58.25 45.12C58.25 52.37 52.37 58.25 45.12 58.25C37.87 58.25 32 52.37 32 45.12C32 37.87 37.87 32 45.12 32ZM30.25 5.75C43.59 5.75 54.45 16.42 54.74 29.70L54.75 30.25H51.25C51.25 18.65 41.84 9.25 30.25 9.25C18.65 9.25 9.25 18.65 9.25 30.25C9.25 41.66 18.36 50.96 29.71 51.24L30.25 51.25V54.75C16.71 54.75 5.75 43.78 5.75 30.25C5.75 16.71 16.71 5.75 30.25 5.75ZM45.12 35.5C39.80 35.5 35.5 39.80 35.5 45.12C35.5 50.44 39.80 54.75 45.12 54.75C50.44 54.75 54.75 50.44 54.75 45.12C54.75 39.80 50.44 35.5 45.12 35.5ZM48.26 39.51L50.73 41.98L47.59 45.12L50.73 48.26L48.26 50.73L45.12 47.59L41.98 50.73L39.51 48.26L42.65 45.12L39.51 41.98L41.98 39.51L45.12 42.65L48.26 39.51ZM32 14.5V30.25C32 30.63 31.87 31.01 31.63 31.31L31.48 31.48L24.11 38.86L21.63 36.38L28.5 29.52V14.5H32Z" fill="#1A1919"/>
</svg>
