<svg width="64" height="64" viewBox="0 0 64 64" fill="none" xmlns="http://www.w3.org/2000/svg">
<path d="M15.7495 55.7423C14.6026 55.9452 13.4891 55.1714 13.2863 54.0245L6.93306 18.5641C6.30654 15.085 6.13463 11.6424 6.35935 8.27907C8.54954 7.45333 10.8487 6.82638 13.2347 6.40085C34.7472 2.55296 55.3214 16.8643 59.1787 38.3802C59.7584 41.5766 59.9305 44.7535 59.7342 47.8613L15.7495 55.7423Z" fill="#E3F5D6"/>
<path d="M16.75 24.9999C16.75 18.7299 20.03 13.2899 25.01 10.1499C33.63 11.1899 40.65 17.4699 42.59 25.4999C42.62 25.6499 42.62 25.7999 42.59 25.9399C41.32 31.1499 37.85 35.4799 33.16 37.9899L31.99 38.5799C31.18 39.0099 30.17 39.3799 28.97 39.6899C27.75 39.9999 26.38 40.2199 25.01 40.3099C20.02 36.8899 16.75 31.2699 16.75 24.9999Z" fill="#F6D965"/>
<path d="M53 14.5H11C10.0717 14.5 9.1815 14.8687 8.52513 15.5251C7.86875 16.1815 7.5 17.0717 7.5 18V46C7.5 46.9283 7.86875 47.8185 8.52513 48.4749C9.1815 49.1313 10.0717 49.5 11 49.5H53C53.9283 49.5 54.8185 49.1313 55.4749 48.4749C56.1313 47.8185 56.5 46.9283 56.5 46V18C56.5 17.0717 56.1313 16.1815 55.4749 15.5251C54.8185 14.8687 53.9283 14.5 53 14.5V14.5ZM49.15 18L32 29.865L14.85 18H49.15ZM11 46V19.5925L31.0025 33.435C31.2954 33.6382 31.6435 33.7471 32 33.7471C32.3565 33.7471 32.7046 33.6382 32.9975 33.435L53 19.5925V46H11Z" fill="#1A1919"/>
</svg>
