<svg width="64" height="64" viewBox="0 0 64 64" xmlns="http://www.w3.org/2000/svg">
<path class="seg-large" d="M44.04 62.12C27.15 67.78 8.83 58.55 3.13 41.51C-2.56 24.47 6.50 6.08 23.39 0.43C23.86 0.27 24.32 0.13 24.78 0C31.76 2.24 38.24 5.93 43.79 10.82L46.39 13.23C48.25 14.89 50.13 17.09 52.03 19.83C54.87 23.94 57.48 29.04 59.15 34.03L62.92 45.29C59.30 52.98 52.70 59.23 44.04 62.12Z" fill="#E4F5D6"/>
<path class="seg-little" d="M51.66 33.72C45.71 35.71 39.43 34.41 34.76 30.79C32.82 22.47 36.40 13.96 43.36 9.62C43.49 9.54 43.63 9.49 43.78 9.48C49.16 9.00 54.45 10.84 58.43 14.39L59.39 15.28C60.07 15.90 60.76 16.71 61.46 17.73C62.17 18.76 62.85 19.96 63.40 21.21C61.84 26.91 57.62 31.73 51.66 33.72Z" fill="#47C9EB"/>
<path d="M21.60 35.29C22.14 35.42 22.69 35.49 23.25 35.5C24.64 35.49 25.99 35.08 27.15 34.31L32.78 39.33C31.88 41.04 31.75 43.06 32.43 44.88C33.40 47.66 36.01 49.54 38.96 49.58C41.91 49.61 44.57 47.79 45.60 45.03C46.63 42.27 45.83 39.16 43.58 37.25L48.03 28.34C49.78 28.73 51.62 28.40 53.12 27.41C55.71 25.83 56.98 22.76 56.28 19.81C55.58 16.87 53.06 14.70 50.04 14.46C47.01 14.21 44.18 15.94 43.01 18.74C41.84 21.54 42.61 24.77 44.91 26.75L40.47 35.65C39.98 35.55 39.49 35.49 39 35.5C37.60 35.50 36.25 35.91 35.09 36.69L29.46 31.66C30.36 29.95 30.49 27.93 29.81 26.12C28.85 23.35 26.27 21.48 23.34 21.41C20.42 21.35 17.76 23.12 16.68 25.84C15.61 28.56 16.34 31.67 18.52 33.62L11 47.75V7.5H7.5V53C7.5 54.93 9.06 56.5 11 56.5H56.5V53H12.17L21.60 35.29ZM49.5 18C51.43 18 53 19.56 53 21.5C53 23.43 51.43 25 49.5 25C47.56 25 46 23.43 46 21.5C46 19.56 47.56 18 49.5 18ZM42.5 42.5C42.5 44.43 40.93 46 39 46C37.06 46 35.5 44.43 35.5 42.5C35.5 40.56 37.06 39 39 39C40.93 39 42.5 40.56 42.5 42.5ZM23.25 25C25.18 25 26.75 26.56 26.75 28.5C26.75 30.43 25.18 32 23.25 32C21.31 32 19.75 30.43 19.75 28.5C19.75 26.56 21.31 25 23.25 25Z" fill="#1A1919"/>
</svg>
