<svg width="64" height="64" viewBox="0 0 64 64" xmlns="http://www.w3.org/2000/svg">
<path class="seg-large" d="M35.04 0.80C43.94 0.80 52.07 4.09 58.27 9.51V26.23C58.27 43.94 45.92 58.79 29.35 62.68C29.07 62.74 28.78 62.74 28.50 62.68C18.34 60.30 9.79 53.82 4.66 45.07L3.45 42.89C2.58 41.37 1.81 39.49 1.15 37.25C0.66 35.59 0.27 33.79 0 31.95C2.00 14.42 16.92 0.80 35.04 0.80Z" fill="#FCF3CF"/>
<path class="seg-little" d="M22.61 37.12C16.74 39.35 10.50 38.22 5.79 34.68C3.70 26.26 7.08 17.46 13.89 12.79C14.01 12.71 14.16 12.66 14.30 12.64C19.62 11.97 24.90 13.68 28.92 17.17L29.89 18.05C30.58 18.66 31.28 19.47 31.99 20.48C32.72 21.51 33.41 22.72 33.98 23.97C32.56 29.84 28.46 34.89 22.61 37.12Z" fill="#34B2A7"/>
<path d="M11 11H53C54.93 11 56.5 12.56 56.5 14.5V49.5C56.5 51.43 54.93 53 53 53H11C9.06 53 7.5 51.43 7.5 49.5V14.5C7.5 12.56 9.06 11 11 11ZM53 49.5V14.5H11V49.5H53Z" fill="#1A1919"/>
<path d="M14.5 21.5H26.75V25H14.5V21.5ZM14.5 28.5H21.5V32H14.5V28.5ZM33.75 35.5H44.25C47.14 35.5 49.5 37.85 49.5 40.75V44.25H46V40.75C46 39.78 45.21 39 44.25 39H33.75C32.78 39 32 39.78 32 40.75V44.25H28.5V40.75C28.5 37.85 30.85 35.5 33.75 35.5Z" fill="#1A1919"/>
<path d="M46 26.75C46 30.61 42.86 33.75 39 33.75C35.13 33.75 32 30.61 32 26.75C32 22.88 35.13 19.75 39 19.75C42.86 19.75 46 22.88 46 26.75ZM42.5 26.75C42.5 24.81 40.93 23.25 39 23.25C37.06 23.25 35.5 24.81 35.5 26.75C35.5 28.68 37.06 30.25 39 30.25C40.93 30.25 42.5 28.68 42.5 26.75Z" fill="#1A1919"/>
</svg>
