<svg width="64" height="64" viewBox="0 0 64 64" fill="none" xmlns="http://www.w3.org/2000/svg">
<path d="M35.04 0.799805C43.94 0.799805 52.07 4.0898 58.27 9.5098V26.2298C58.27 43.9398 45.92 58.7898 29.35 62.6798C29.07 62.7398 28.78 62.7398 28.5 62.6798C18.34 60.2998 9.79 53.8198 4.66 45.0698L3.45 42.8898C2.58 41.3698 1.81 39.4898 1.15 37.2498C0.66 35.5898 0.27 33.7898 0 31.9498C2 14.4198 16.92 0.799805 35.04 0.799805Z" fill="#FCF3CF"/>
<path d="M22.6097 37.1202C16.7397 39.3502 10.4997 38.2203 5.78974 34.6803C3.69974 26.2603 7.07974 17.4602 13.8897 12.7902C14.0097 12.7102 14.1597 12.6602 14.2997 12.6402C19.6197 11.9702 24.8997 13.6802 28.9197 17.1702L29.8897 18.0502C30.5797 18.6602 31.2797 19.4702 31.9897 20.4802C32.7197 21.5102 33.4097 22.7202 33.9797 23.9702C32.5597 29.8402 28.4597 34.8902 22.6097 37.1202Z" fill="#34B1A7"/>
<path d="M11 11H53C54.93 11 56.5 12.56 56.5 14.5V49.5C56.5 51.43 54.93 53 53 53H11C9.06 53 7.5 51.43 7.5 49.5V14.5C7.5 12.56 9.06 11 11 11ZM53 49.5V14.5H11V49.5H53Z" fill="#1A1919"/>
<path d="M14.5 21.5H26.75V25H14.5V21.5ZM14.5 28.5H21.5V32H14.5V28.5ZM33.75 35.5H44.25C47.14 35.5 49.5 37.85 49.5 40.75V44.25H46V40.75C46 39.78 45.21 39 44.25 39H33.75C32.78 39 32 39.78 32 40.75V44.25H28.5V40.75C28.5 37.85 30.85 35.5 33.75 35.5Z" fill="#1A1919"/>
<path d="M46 26.75C46 30.61 42.86 33.75 39 33.75C35.13 33.75 32 30.61 32 26.75C32 22.88 35.13 19.75 39 19.75C42.86 19.75 46 22.88 46 26.75ZM42.5 26.75C42.5 24.81 40.93 23.25 39 23.25C37.06 23.25 35.5 24.81 35.5 26.75C35.5 28.68 37.06 30.25 39 30.25C40.93 30.25 42.5 28.68 42.5 26.75Z" fill="#1A1919"/>
</svg>
