<svg width="64" height="64" viewBox="0 0 64 64" fill="none" xmlns="http://www.w3.org/2000/svg">
<g clip-path="url(#clip0_4102_91544)">
<path d="M59.7004 44.4997C50.8704 59.6197 31.3004 64.7897 16.0004 56.0697C0.690366 47.3397 -4.53963 28.0097 4.29037 12.8897C4.53037 12.4797 4.78037 12.0797 5.03037 11.6797C11.6604 8.77973 18.8604 7.24973 26.1504 7.21973L29.6404 7.27973C32.1004 7.28973 34.9304 7.66973 38.1104 8.42973C42.9004 9.57973 48.1404 11.6097 52.6204 14.1597L62.7304 19.9297C65.0604 27.8997 64.2304 36.7497 59.7004 44.4997Z" fill="#E3F5D6"/>
<path d="M23 37.5C23 30.64 26.41 24.58 31.61 21C40.61 21.87 47.94 28.53 49.97 37.25C50 37.41 50 37.58 49.97 37.73C48.64 43.47 45.02 48.31 40.12 51.21L38.91 51.89C38.06 52.39 37 52.82 35.75 53.2C34.47 53.58 33.04 53.85 31.61 54C26.41 50.41 23 44.36 23 37.5Z" fill="#47C9EB"/>
<path d="M33.0355 9.67957C32.7355 9.43957 32.3655 9.30957 31.9855 9.30957C31.6055 9.30957 31.2355 9.43957 30.9355 9.67957L6.68555 28.9396L8.78555 31.6396L11.7555 29.2796V50.5596C11.7555 51.4696 12.1055 52.3496 12.7455 52.9896C13.3755 53.6296 14.2355 53.9996 15.1255 53.9996H48.8755C49.7655 53.9996 50.6255 53.6296 51.2555 52.9896C51.8955 52.3496 52.2455 51.4696 52.2555 50.5596V29.2996L55.2155 31.6496L57.3155 28.9496L33.0355 9.67957ZM35.3755 50.5596H28.6255V36.8096H35.3755V50.5596ZM38.7555 50.5596V36.8096C38.7455 35.8996 38.3955 35.0296 37.7655 34.3796C37.1255 33.7396 36.2655 33.3696 35.3755 33.3696H28.6255C27.7355 33.3696 26.8755 33.7396 26.2355 34.3796C25.6055 35.0296 25.2555 35.8996 25.2555 36.8096V50.5596H15.1255V26.5996L32.0055 13.2196L48.8755 26.6196V50.5596H38.7555Z" fill="#1A1919"/>
</g>
<defs>
<clipPath id="clip0_4102_91544">
<rect width="64" height="64" fill="white"/>
</clipPath>
</defs>
</svg>
