<svg width="64" height="64" viewBox="0 0 64 64" xmlns="http://www.w3.org/2000/svg">
<path class="seg-large" d="M24.94 55.63C23.93 56.21 22.62 55.86 22.04 54.85L4.03 23.65C2.26 20.59 0.93 17.41 0 14.17C1.78 12.65 3.73 11.28 5.83 10.07C24.76 -0.85 48.97 5.63 59.90 24.56C61.53 27.37 62.77 30.30 63.64 33.29L24.94 55.63Z" fill="#8AC3FF"/>
<path class="seg-little" d="M34.06 47.00C34.06 40.73 37.34 35.29 42.32 32.15C50.94 33.19 57.96 39.47 59.90 47.50C59.93 47.65 59.93 47.80 59.90 47.94C58.63 53.15 55.16 57.48 50.47 59.99L49.30 60.58C48.49 61.01 47.48 61.38 46.28 61.69C45.06 62.00 43.69 62.22 42.32 62.31C37.33 58.89 34.06 53.27 34.06 47.00Z" fill="#F6D965"/>
<path fill-rule="evenodd" clip-rule="evenodd" d="M44.25 30.24C48.62 30.24 51.25 32.87 51.25 37.24C51.25 41.62 48.62 44.24 44.25 44.24H35.5V47.74H44.25C50.37 47.74 54.75 43.37 54.75 37.24C54.75 31.12 50.37 26.74 44.25 26.74H15.9L22.9 19.74L20.45 17.29L9.25 28.49L20.45 39.69L22.9 37.24L15.9 30.24H44.25Z" fill="#1A1919"/>
</svg>
