<svg width="64" height="64" viewBox="0 0 64 64" xmlns="http://www.w3.org/2000/svg">
<path class="seg-large" d="M61.76 16.25C62.89 16.66 63.47 17.92 63.06 19.04L50.41 53.81C49.17 57.22 47.55 60.37 45.61 63.25C43.24 62.84 40.87 62.22 38.53 61.36C17.44 53.69 6.56 30.35 14.24 9.25C15.38 6.12 16.87 3.21 18.64 0.55L61.76 16.25Z" fill="#D1F2FA"/>
<path class="seg-little" d="M24.04 35.24C27.86 37.48 30.54 40.97 31.85 44.90L27.70 52.22C23.29 59.97 14.30 63.35 6.22 60.88C6.08 60.83 5.96 60.76 5.85 60.66C2.08 57.07 0.02 52.07 0 46.96L0.02 45.70C0.02 44.81 0.16 43.80 0.43 42.65C0.63 41.80 0.91 40.91 1.25 40.04C6.47 32.87 16.26 30.67 24.04 35.24Z" fill="#EB6047"/>
<path fill-rule="evenodd" clip-rule="evenodd" d="M53.21 20.54H56.49V8.5C56.49 7.94 56.05 7.5 55.49 7.5H43.37V10.76H53.21V20.54ZM10.78 20.63H7.5V8.59C7.5 8.04 7.94 7.59 8.5 7.59H20.62V10.85H10.78V20.63ZM7.5 55.5C7.5 56.05 7.94 56.5 8.5 56.5H20.62V53.23H10.78V43.45H7.5V55.5ZM55.49 56.40C56.05 56.40 56.49 55.95 56.49 55.40V43.36H53.21V53.14H43.37V56.40H55.49ZM17.12 27.70C16.64 27.70 16.25 27.31 16.25 26.83V17.12C16.25 16.64 16.64 16.25 17.12 16.25H26.83C27.31 16.25 27.70 16.64 27.70 17.12V26.83C27.70 27.31 27.31 27.70 26.83 27.70H17.12ZM24.84 19.11H19.11V24.84H24.84V19.11ZM47.75 17.12C47.75 16.64 47.35 16.25 46.87 16.25H37.16C36.68 16.25 36.29 16.64 36.29 17.12V26.83C36.29 27.31 36.68 27.70 37.16 27.70H46.87C47.35 27.70 47.75 27.31 47.75 26.83V17.12ZM44.88 24.84H39.15V19.11H44.88V24.84ZM26.83 36.29C27.31 36.29 27.70 36.68 27.70 37.16V46.87C27.70 47.35 27.31 47.75 26.83 47.75H17.12C16.64 47.75 16.25 47.35 16.25 46.87V37.16C16.25 36.68 16.64 36.29 17.12 36.29H26.83ZM19.11 44.88H24.84V39.15H19.11V44.88ZM33.43 30.56H47.75V33.43H33.43V47.75H30.56V33.43H16.25V30.56H30.56V16.25H33.43V30.56ZM47.75 36.29H37.16C36.68 36.29 36.29 36.68 36.29 37.16V47.75H39.15V39.15H47.75V36.29ZM44.88 41.42H42.02V47.75H44.88V41.42Z" fill="#1A1919"/>
</svg>
