<svg width="64" height="64" viewBox="0 0 64 64" xmlns="http://www.w3.org/2000/svg">
<path class="seg-large" d="M46.28 7.38C54.41 10.99 60.52 17.29 63.99 24.76L57.22 40.04C50.04 56.24 32.74 64.81 16.01 61.65C15.73 61.60 15.46 61.48 15.23 61.31C6.91 55.02 1.71 45.63 0.57 35.55L0.35 33.07C0.16 31.33 0.22 29.29 0.53 26.98C0.75 25.27 1.12 23.46 1.62 21.67C10.55 6.45 29.71 0.04 46.28 7.38Z" fill="#D1F2FA"/>
<path class="seg-little" d="M39.92 52.18C34.05 54.40 27.81 53.28 23.10 49.73C21.01 41.31 24.39 32.51 31.20 27.85C31.32 27.76 31.47 27.71 31.61 27.69C36.93 27.03 42.21 28.74 46.23 32.22L47.20 33.10C47.89 33.71 48.59 34.52 49.30 35.54C50.03 36.57 50.72 37.77 51.29 39.02C49.87 44.89 45.77 49.95 39.92 52.18Z" fill="#92D65C"/>
<path d="M33.75 39H30.25V46H33.75V39Z" fill="#1A1919"/>
<path d="M42.5 35.5H39V46H42.5V35.5Z" fill="#1A1919"/>
<path d="M25 28.5H21.5V46H25V28.5Z" fill="#1A1919"/>
<path d="M47.75 12.75H42.5V11C42.5 10.07 42.13 9.18 41.47 8.52C40.81 7.86 39.92 7.5 39 7.5H25C24.07 7.5 23.18 7.86 22.52 8.52C21.86 9.18 21.5 10.07 21.5 11V12.75H16.25C15.32 12.75 14.43 13.11 13.77 13.77C13.11 14.43 12.75 15.32 12.75 16.25V53C12.75 53.92 13.11 54.81 13.77 55.47C14.43 56.13 15.32 56.5 16.25 56.5H47.75C48.67 56.5 49.56 56.13 50.22 55.47C50.88 54.81 51.25 53.92 51.25 53V16.25C51.25 15.32 50.88 14.43 50.22 13.77C49.56 13.11 48.67 12.75 47.75 12.75ZM25 11H39V18H25V11ZM47.75 53H16.25V16.25H21.5V21.5H42.5V16.25H47.75V53Z" fill="#1A1919"/>
</svg>
