<svg width="64" height="64" viewBox="0 0 64 64" fill="none" xmlns="http://www.w3.org/2000/svg">
<g clip-path="url(#clip0_4115_93452)">
<path d="M4.29118 23.0265C13.1212 7.90652 32.6912 2.73652 47.9912 11.4565C63.3012 20.1865 68.5312 39.5165 59.7012 54.6365C59.4612 55.0465 59.2112 55.4465 58.9612 55.8465C52.3312 58.7465 45.1312 60.2765 37.8412 60.3065L34.3512 60.2465C31.8912 60.2365 29.0612 59.8565 25.8812 59.0965C21.0912 57.9465 15.8512 55.9165 11.3712 53.3665L1.26118 47.5965C-1.06882 39.6265 -0.238817 30.7765 4.29118 23.0265Z" fill="#E3F5D6"/>
<path d="M32 43.5C32 36.64 35.41 30.58 40.61 27C49.61 27.87 56.94 34.53 58.97 43.25C59 43.41 59 43.58 58.97 43.73C57.64 49.47 54.02 54.31 49.12 57.21L47.91 57.89C47.06 58.39 46 58.82 44.75 59.2C43.47 59.58 42.04 59.85 40.61 60C35.41 56.41 32 50.36 32 43.5Z" fill="#007CFF"/>
<path fill-rule="evenodd" clip-rule="evenodd" d="M16.25 7.5C13.3505 7.5 11 9.8505 11 12.75V51.25C11 54.1495 13.3505 56.5 16.25 56.5H32V53H16.25C15.2835 53 14.5 52.2165 14.5 51.25C14.5 50.2835 15.2835 49.5 16.25 49.5H26.75V46H16.25C15.6364 46 15.0474 46.1053 14.5 46.2987V12.75C14.5 11.7835 15.2835 11 16.25 11H30.9567V25.2935C30.9567 25.9544 31.3289 26.5588 31.919 26.8563C32.5091 27.1537 33.2164 27.0933 33.7476 26.7003L37.598 23.851L41.4483 26.7003C41.9795 27.0933 42.6868 27.1537 43.2769 26.8563C43.867 26.5588 44.2393 25.9544 44.2393 25.2935V11H49.5V28.5H53V7.5H16.25ZM40.7393 11H34.4567V21.8215L36.557 20.2672C37.1755 19.8095 38.0204 19.8095 38.6389 20.2672L40.7393 21.8215V11Z" fill="#1A1919"/>
<path d="M40.7505 30.25C42.678 30.2467 44.5691 30.7748 46.2159 31.7764C47.8627 32.778 49.2015 34.2143 50.0851 35.9274C50.9686 37.6405 51.3628 39.564 51.2241 41.4865C51.0855 43.409 50.4194 45.2561 49.2992 46.8246L58.2505 55.7753L55.7758 58.25L46.8251 49.2993C45.4787 50.2562 43.9254 50.8819 42.2917 51.1253C40.6579 51.3687 38.9897 51.223 37.4228 50.7001C35.856 50.1772 34.4346 49.2919 33.2745 48.1161C32.1143 46.9403 31.2481 45.5072 30.7462 43.9335C30.2444 42.3597 30.1211 40.6897 30.3864 39.0594C30.6517 37.429 31.2981 35.8843 32.273 34.5508C33.2479 33.2174 34.5238 32.1329 35.9969 31.3856C37.47 30.6382 39.0987 30.2492 40.7505 30.25ZM40.7505 47.75C42.135 47.75 43.4883 47.3395 44.6395 46.5703C45.7906 45.8011 46.6878 44.7079 47.2176 43.4288C47.7475 42.1497 47.8861 40.7423 47.616 39.3844C47.3459 38.0265 46.6792 36.7792 45.7002 35.8003C44.7213 34.8213 43.474 34.1546 42.1161 33.8845C40.7583 33.6144 39.3508 33.753 38.0717 34.2829C36.7926 34.8127 35.6994 35.7099 34.9302 36.861C34.161 38.0122 33.7505 39.3655 33.7505 40.75C33.7526 42.6059 34.4907 44.3852 35.803 45.6975C37.1153 47.0098 38.8946 47.7479 40.7505 47.75Z" fill="#1A1919"/>
</g>
<defs>
<clipPath id="clip0_4115_93452">
<rect width="64" height="64" fill="white"/>
</clipPath>
</defs>
</svg>
