<svg width="64" height="64" viewBox="0 0 64 64" xmlns="http://www.w3.org/2000/svg">
<path class="seg-large" d="M62.47 16.00C63.61 16.42 64.21 17.70 63.79 18.85L50.89 54.30C49.62 57.77 47.97 60.99 45.99 63.92C43.58 63.51 41.16 62.87 38.78 62.00C17.27 54.17 6.18 30.38 14.01 8.86C15.17 5.67 16.69 2.70 18.49 0L62.47 16.00Z" fill="#D1F2FA"/>
<path class="seg-little" d="M24.04 31.24C27.86 33.48 30.54 36.96 31.85 40.90L27.70 48.21C23.29 55.97 14.30 59.35 6.22 56.88C6.08 56.83 5.96 56.76 5.85 56.66C2.08 53.06 0.02 48.07 0 42.95L0.02 41.70C0.02 40.81 0.16 39.79 0.43 38.65C0.63 37.80 0.91 36.91 1.25 36.04C6.47 28.87 16.26 26.67 24.04 31.24Z" fill="#F6D965"/>
<path d="M49.50 11C51.43 11 53.00 12.56 53.00 14.5V25H49.50V14.5H42.50V18H39.00V14.5H25.00V18H21.50V14.5H14.50V49.5H21.50V53H14.50C12.56 53 11.00 51.43 11.00 49.5V14.5C11.00 12.56 12.56 11 14.50 11H21.50V7.5H25.00V11H39.00V7.5H42.50V11H49.50ZM26.75 40.75C26.75 48.48 33.01 54.75 40.75 54.75C48.48 54.75 54.75 48.48 54.75 40.75C54.75 33.01 48.48 26.75 40.75 26.75C33.01 26.75 26.75 33.01 26.75 40.75ZM39.12 47.21L48.77 37.67L45.94 34.98L39.12 41.72L36.40 39.03L33.64 41.70L39.12 47.21ZM30.25 40.75C30.25 34.95 34.95 30.25 40.75 30.25C46.54 30.25 51.25 34.95 51.25 40.75C51.25 46.54 46.54 51.25 40.75 51.25C34.95 51.25 30.25 46.54 30.25 40.75Z" fill="#1A1919"/>
</svg>
