<svg width="64" height="64" viewBox="0 0 64 64" xmlns="http://www.w3.org/2000/svg">
<path class="seg-large" d="M57.29 3.77C58.49 3.77 59.48 4.75 59.48 5.95L59.61 42.97C59.63 46.60 59.19 50.12 58.36 53.48C55.99 53.90 53.54 54.12 51.04 54.11C28.48 54.04 10.13 35.76 10.05 13.30C10.04 9.96 10.43 6.72 11.18 3.62L57.29 3.77Z" fill="#FCF3CF"/>
<path class="seg-large" d="M63.26 38.51C63.87 38.86 64.09 39.65 63.75 40.26L53.16 59.12C52.13 60.97 50.89 62.63 49.50 64.10C48.18 63.62 46.87 63.02 45.60 62.28C34.15 55.67 30.08 41.03 36.50 29.59C37.45 27.89 38.58 26.35 39.86 25L63.26 38.51Z" fill="#47C9EB"/>
<path fill-rule="evenodd" clip-rule="evenodd" d="M47.74 12.74H42.49V10.99C42.49 10.07 42.12 9.18 41.47 8.52C40.81 7.86 39.92 7.5 38.99 7.5H24.99C24.07 7.5 23.18 7.86 22.52 8.52C21.86 9.18 21.49 10.07 21.49 10.99V12.74H16.24C15.32 12.74 14.43 13.11 13.77 13.77C13.11 14.43 12.75 15.32 12.75 16.24V52.99C12.75 53.92 13.11 54.81 13.77 55.47C14.43 56.12 15.32 56.49 16.24 56.49H31.12V52.99H16.24V16.24H21.49V21.49H42.49V16.24H47.74V26.74H51.24V16.24C51.24 15.32 50.87 14.43 50.22 13.77C49.56 13.11 48.67 12.74 47.74 12.74ZM56.49 33.74V48.24C56.49 49.97 55.62 51.45 54.63 52.58C53.62 53.73 52.33 54.73 51.12 55.52C50.35 56.02 49.59 56.46 48.91 56.83L48.13 57.23L47.52 57.53L46.36 58.06L46.25 58.11L46.24 58.11L45.54 58.40L44.57 57.95L44.12 57.73L43.46 57.40L43.09 57.20L42.28 56.75C41.70 56.41 41.07 56.03 40.43 55.60C39.33 54.86 38.16 53.94 37.24 52.91C36.35 51.91 35.49 50.57 35.49 48.99V33.74H56.49ZM52.99 37.24H38.99V48.99C38.99 49.29 39.18 49.83 39.85 50.58C40.50 51.31 41.41 52.03 42.39 52.70C43.36 53.35 44.34 53.91 45.09 54.30C45.28 54.40 45.45 54.49 45.61 54.57C45.79 54.48 46.00 54.38 46.24 54.27C47.06 53.86 48.13 53.29 49.20 52.59C50.28 51.88 51.28 51.10 51.99 50.28C52.72 49.45 52.99 48.77 52.99 48.24V37.24ZM30.24 44.24V47.74H21.49V44.24H30.24ZM30.24 35.49V38.99H21.49V35.49H30.24ZM42.49 26.74V30.24H21.49V26.74H42.49ZM38.99 10.99V17.99H24.99V10.99H38.99Z" fill="#1A1919"/>
</svg>
