<svg width="32" height="32" viewBox="0 0 32 32" fill="none" xmlns="http://www.w3.org/2000/svg">
<path fill-rule="evenodd" clip-rule="evenodd" d="M24.9943 4.99429H21.9943V3.99429C21.9943 3.46857 21.7829 2.96 21.4114 2.58286C21.0343 2.20571 20.5257 2 19.9943 2H11.9943C11.4686 2 10.96 2.20571 10.5829 2.58286C10.2057 2.96 9.99429 3.46857 9.99429 3.99429V4.99429H6.99429C6.46857 4.99429 5.96 5.20571 5.58286 5.58286C5.20571 5.96 5 6.46857 5 6.99429V27.9943C5 28.5257 5.20571 29.0343 5.58286 29.4114C5.96 29.7829 6.46857 29.9943 6.99429 29.9943H15.4971V27.9943H6.99429V6.99429H9.99429V9.99429H21.9943V6.99429H24.9943V12.9943H26.9943V6.99429C26.9943 6.46857 26.7829 5.96 26.4114 5.58286C26.0343 5.20571 25.5257 4.99429 24.9943 4.99429ZM29.9943 16.9943V25.28C29.9943 26.2686 29.4971 27.1143 28.9314 27.76C28.3543 28.4171 27.6171 28.9886 26.9257 29.44C26.4857 29.7257 26.0514 29.9771 25.6629 30.1886L25.2171 30.4171L24.8686 30.5886L24.2057 30.8914L24.1429 30.92H24.1371L23.7371 31.0857L23.1829 30.8286L22.9257 30.7029L22.5486 30.5143L22.3371 30.4L21.8743 30.1429C21.5429 29.9486 21.1829 29.7314 20.8171 29.4857C20.1886 29.0629 19.52 28.5371 18.9943 27.9486C18.4857 27.3771 17.9943 26.6114 17.9943 25.7086V16.9943H29.9943ZM27.9943 18.9943H19.9943V25.7086C19.9943 25.88 20.1029 26.1886 20.4857 26.6171C20.8571 27.0343 21.3771 27.4457 21.9371 27.8286C22.4914 28.2 23.0514 28.52 23.48 28.7429C23.5886 28.8 23.6857 28.8514 23.7771 28.8971C23.88 28.8457 24 28.7886 24.1371 28.7257C24.6057 28.4914 25.2171 28.1657 25.8286 27.7657C26.4457 27.36 27.0171 26.9143 27.4229 26.4457C27.84 25.9714 27.9943 25.5829 27.9943 25.28V18.9943ZM14.9943 22.9943V24.9943H9.99429V22.9943H14.9943ZM14.9943 17.9943V19.9943H9.99429V17.9943H14.9943ZM21.9943 12.9943V14.9943H9.99429V12.9943H21.9943ZM19.9943 3.99429V7.99429H11.9943V3.99429H19.9943Z" fill="#1A1919"/>
</svg>
