<svg width="64" height="64" viewBox="0 0 64 64" xmlns="http://www.w3.org/2000/svg">
<path class="seg-large" d="M19.44 10.16C30.98 3.46 44.61 3.48 55.89 9.01C63.49 25.50 59.69 44.74 47.06 56.77C46.83 56.99 46.55 57.15 46.25 57.24C35.25 60.54 23.46 58.97 13.65 53.30L11.27 51.85C9.58 50.86 7.79 49.45 5.90 47.64C3.97 45.80 2.06 43.58 0.38 41.23C1.17 28.7 7.90 16.85 19.44 10.16Z" fill="#B0E8E3"/>
<path class="seg-little" d="M6.37 17.35C11.51 11.51 20.45 10.98 26.33 16.17C32.22 21.35 32.83 30.28 27.69 36.12C27.55 36.28 27.41 36.43 27.26 36.58C24.13 37.27 20.88 37.30 17.71 36.66L16.20 36.33C15.14 36.10 13.94 35.68 12.63 35.07C10.65 34.14 8.55 32.79 6.83 31.27L2.93 27.84C2.61 24.15 3.74 20.34 6.37 17.35Z" fill="#007CFF"/>
<path fill-rule="evenodd" clip-rule="evenodd" d="M56.5 54.05L41.45 39C48.1 30.95 47.05 18.7 39 12.05C30.95 5.40 18.7 6.45 12.05 14.5C5.40 22.55 6.45 34.8 14.5 41.45C21.5 47.40 32 47.40 39 41.45L54.05 56.5L56.5 54.05ZM11 26.75C11 18 18 11 26.75 11C35.5 11 42.5 18 42.5 26.75C42.5 35.5 35.5 42.5 26.75 42.5C18 42.5 11 35.5 11 26.75Z" fill="#1A1919"/>
</svg>
