<svg width="33" height="33" viewBox="0 0 33 33" fill="none" xmlns="http://www.w3.org/2000/svg">
<path d="M26.375 30.5H24.375V27.5C24.3734 26.1744 23.8462 24.9035 22.9088 23.9662C21.9715 23.0288 20.7006 22.5016 19.375 22.5H13.375C12.0494 22.5016 10.7785 23.0288 9.84119 23.9662C8.90385 24.9035 8.37656 26.1744 8.375 27.5V30.5H6.375V27.5C6.37717 25.6442 7.11537 23.8649 8.42765 22.5526C9.73993 21.2404 11.5192 20.5022 13.375 20.5H19.375C21.2308 20.5022 23.0101 21.2404 24.3224 22.5526C25.6346 23.8649 26.3728 25.6442 26.375 27.5V30.5Z" fill="#1A1919"/>
<path d="M5.375 6.5C5.10978 6.5 4.85543 6.60536 4.66789 6.79289C4.48036 6.98043 4.375 7.23478 4.375 7.5V16.5H6.375V7.5C6.375 7.23478 6.26964 6.98043 6.08211 6.79289C5.89457 6.60536 5.64022 6.5 5.375 6.5Z" fill="#1A1919"/>
<path d="M4.375 2.5V4.5H9.375V11.5C9.375 13.3565 10.1125 15.137 11.4253 16.4497C12.738 17.7625 14.5185 18.5 16.375 18.5C18.2315 18.5 20.012 17.7625 21.3247 16.4497C22.6375 15.137 23.375 13.3565 23.375 11.5V4.5H28.375V2.5H4.375ZM11.375 4.5H21.375V7.5H11.375V4.5ZM16.375 16.5C15.0489 16.5 13.7771 15.9732 12.8395 15.0355C11.9018 14.0979 11.375 12.8261 11.375 11.5V9.5H21.375V11.5C21.375 12.8261 20.8482 14.0979 19.9105 15.0355C18.9729 15.9732 17.7011 16.5 16.375 16.5Z" fill="#1A1919"/>
</svg>
