<svg width="64" height="65" viewBox="0 0 64 65" fill="none" xmlns="http://www.w3.org/2000/svg">
<g clip-path="url(#clip0_4126_93609)">
<path d="M23.23 64.425C14.33 64.425 6.2 61.145 0 55.715V39.005C0 21.285 12.35 6.435 28.92 2.545C29.2 2.485 29.49 2.485 29.77 2.545C39.93 4.925 48.48 11.405 53.61 20.155L54.82 22.335C55.69 23.855 56.46 25.735 57.12 27.985C57.61 29.635 58 31.435 58.27 33.285C56.27 50.815 41.35 64.425 23.23 64.425Z" fill="#B0E8E3"/>
<path d="M34.42 31.5699C28.56 33.7999 22.31 32.6699 17.61 29.1299C15.52 20.6999 18.89 11.8999 25.71 7.23994C25.83 7.15994 25.97 7.09994 26.12 7.07994C31.44 6.41994 36.72 8.12994 40.74 11.6099L41.7 12.4999C42.39 13.0999 43.1 13.9099 43.81 14.9299C44.54 15.9599 45.23 17.1599 45.8 18.4099C44.37 24.2799 40.28 29.3399 34.42 31.5699Z" fill="#92D65C"/>
<path d="M49.5 57H46V51.75C45.9973 49.4302 45.0745 47.2062 43.4342 45.5658C41.7938 43.9255 39.5698 43.0027 37.25 43H26.75C24.4302 43.0027 22.2062 43.9255 20.5658 45.5658C18.9255 47.2062 18.0027 49.4302 18 51.75V57H14.5V51.75C14.5038 48.5023 15.7956 45.3886 18.0921 43.0921C20.3886 40.7956 23.5023 39.5038 26.75 39.5H37.25C40.4977 39.5038 43.6114 40.7956 45.9079 43.0921C48.2044 45.3886 49.4962 48.5023 49.5 51.75V57Z" fill="#1A1919"/>
<path d="M12.75 15C12.2859 15 11.8408 15.1844 11.5126 15.5126C11.1844 15.8408 11 16.2859 11 16.75V32.5H14.5V16.75C14.5 16.2859 14.3156 15.8408 13.9874 15.5126C13.6592 15.1844 13.2141 15 12.75 15Z" fill="#1A1919"/>
<path d="M11 8V11.5H19.75V23.75C19.75 26.9989 21.0406 30.1147 23.3379 32.4121C25.6353 34.7094 28.7511 36 32 36C35.2489 36 38.3647 34.7094 40.6621 32.4121C42.9594 30.1147 44.25 26.9989 44.25 23.75V11.5H53V8H11ZM23.25 11.5H40.75V16.75H23.25V11.5ZM32 32.5C29.6794 32.5 27.4538 31.5781 25.8128 29.9372C24.1719 28.2962 23.25 26.0706 23.25 23.75V20.25H40.75V23.75C40.75 26.0706 39.8281 28.2962 38.1872 29.9372C36.5462 31.5781 34.3206 32.5 32 32.5Z" fill="#1A1919"/>
</g>
<defs>
<clipPath id="clip0_4126_93609">
<rect width="64" height="64" fill="white" transform="translate(0 0.5)"/>
</clipPath>
</defs>
</svg>
