<svg width="64" height="64" viewBox="0 0 64 64" fill="none" xmlns="http://www.w3.org/2000/svg">
<g clip-path="url(#clip0_4125_93512)">
<path d="M52.3999 54.2017C38.7371 65.1521 18.6143 62.9642 7.45638 49.3396C-3.70731 35.7022 -1.66141 15.7819 12.0013 4.83144C12.3723 4.5347 12.7491 4.25089 13.1259 3.96707C20.3548 3.63613 27.6248 4.78846 34.4412 7.37339L37.6778 8.68032C39.9708 9.57139 42.4765 10.9405 45.1728 12.7898C49.2324 15.5803 53.3966 19.3535 56.665 23.3399L64.0351 32.3502C63.3536 40.6258 59.4067 48.5903 52.3999 54.2017Z" fill="#B0E8E3"/>
<path d="M36.979 11.7666C42.7906 8.12178 49.7363 7.79088 55.532 10.2941C59.5768 18.3809 57.8291 28.1293 51.5203 34.4821C51.4007 34.5925 51.2567 34.6828 51.1137 34.7371C45.5442 36.6601 39.5205 36.1649 34.4603 33.5545L33.2413 32.8907C32.3661 32.4363 31.4386 31.7668 30.4526 30.9097C29.4506 30.0272 28.462 28.9592 27.5752 27.8274C27.8537 21.5147 31.1674 15.4114 36.979 11.7666Z" fill="#007CFF"/>
<path d="M30.5 38H21.5C20.3065 38 19.1619 38.5057 18.318 39.4059C17.4741 40.3061 17 41.527 17 42.8V46H20V42.8C20 42.3757 20.158 41.9687 20.4393 41.6686C20.7206 41.3686 21.1022 41.2 21.5 41.2H30.5C30.8978 41.2 31.2794 41.3686 31.5607 41.6686C31.842 41.9687 32 42.3757 32 42.8V46H35V42.8C35 41.527 34.5259 40.3061 33.682 39.4059C32.8381 38.5057 31.6935 38 30.5 38V38Z" fill="#1A1919"/>
<path d="M26 37C27.1867 37 28.3467 36.6481 29.3334 35.9888C30.3201 35.3295 31.0891 34.3925 31.5433 33.2961C31.9974 32.1997 32.1162 30.9933 31.8847 29.8295C31.6532 28.6656 31.0818 27.5965 30.2426 26.7574C29.4035 25.9182 28.3344 25.3468 27.1705 25.1153C26.0067 24.8838 24.8003 25.0026 23.7039 25.4567C22.6075 25.9109 21.6705 26.6799 21.0112 27.6666C20.3519 28.6533 20 29.8133 20 31C20 32.5913 20.6321 34.1174 21.7574 35.2426C22.8826 36.3679 24.4087 37 26 37ZM26 28C26.5933 28 27.1734 28.1759 27.6667 28.5056C28.1601 28.8352 28.5446 29.3038 28.7716 29.852C28.9987 30.4001 29.0581 31.0033 28.9424 31.5853C28.8266 32.1672 28.5409 32.7018 28.1213 33.1213C27.7018 33.5409 27.1672 33.8266 26.5853 33.9424C26.0033 34.0581 25.4001 33.9987 24.8519 33.7716C24.3038 33.5446 23.8352 33.1601 23.5056 32.6667C23.1759 32.1734 23 31.5933 23 31C23 30.2044 23.3161 29.4413 23.8787 28.8787C24.4413 28.3161 25.2043 28 26 28V28Z" fill="#1A1919"/>
<path d="M50 36.5V50H14V20H32V17H14C13.2044 17 12.4413 17.3161 11.8787 17.8787C11.3161 18.4413 11 19.2044 11 20V50C11 50.7956 11.3161 51.5587 11.8787 52.1213C12.4413 52.6839 13.2044 53 14 53H50C50.7956 53 51.5587 52.6839 52.1213 52.1213C52.6839 51.5587 53 50.7956 53 50V36.5H50Z" fill="#1A1919"/>
<path d="M47 37H38V40H47V37Z" fill="#1A1919"/>
<path d="M47 43H41V46H47V43Z" fill="#1A1919"/>
<path d="M56 23V20H52.8483C52.6549 19.0611 52.2822 18.1683 51.7505 17.3706L53.9855 15.1357L51.8645 13.0147L49.6295 15.2496C48.8318 14.7179 47.939 14.3451 47 14.1516V11H44V14.1516C43.0611 14.3451 42.1683 14.7178 41.3707 15.2495L39.1356 13.0145L37.0146 15.1355L39.2496 17.3705C38.7179 18.1682 38.3451 19.061 38.1517 20H35V23H38.1517C38.3451 23.9389 38.7178 24.8317 39.2495 25.6294L37.0145 27.8643L39.1355 29.9854L41.3705 27.7503C42.1682 28.2821 43.061 28.6549 44 28.8484V32H47V28.8484C47.9389 28.6549 48.8317 28.2822 49.6293 27.7505L51.8644 29.9855L53.9854 27.8645L51.7504 25.6295C52.2821 24.8318 52.6549 23.939 52.8483 23H56ZM45.5 26C44.61 26 43.74 25.7361 42.9999 25.2416C42.2599 24.7471 41.6831 24.0443 41.3425 23.2221C41.0019 22.3998 40.9128 21.495 41.0865 20.6221C41.2601 19.7492 41.6887 18.9474 42.318 18.318C42.9474 17.6887 43.7492 17.2601 44.6221 17.0865C45.495 16.9128 46.3998 17.0019 47.2221 17.3425C48.0443 17.6831 48.7471 18.2599 49.2416 18.9999C49.7361 19.74 50 20.61 50 21.5C49.9987 22.6931 49.5242 23.8369 48.6805 24.6805C47.8369 25.5242 46.6931 25.9987 45.5 26V26Z" fill="#1A1919"/>
</g>
<defs>
<clipPath id="clip0_4125_93512">
<rect width="64" height="64" fill="white"/>
</clipPath>
</defs>
</svg>
