<svg width="65" height="64" viewBox="0 0 65 64" fill="none" xmlns="http://www.w3.org/2000/svg">
<path d="M60.2902 42.06C51.4602 57.17 31.9102 62.35 16.6202 53.63C1.32016 44.9 -3.89984 25.58 4.91016 10.47C5.15016 10.05 5.40016 9.65004 5.66016 9.25004C12.2902 6.35004 19.4802 4.82004 26.7602 4.79004L30.2502 4.85004C32.7102 4.86004 35.5302 5.24004 38.7102 6.01004C43.4902 7.15004 48.7302 9.18004 53.2102 11.73L63.3202 17.5C65.6402 25.46 64.8102 34.32 60.2902 42.06Z" fill="#FCF3CF"/>
<path d="M26.3098 48.59C25.6998 48.94 24.9098 48.74 24.5498 48.14L13.5098 29.54C12.4298 27.72 11.5998 25.82 11.0298 23.88C12.1098 22.97 13.2798 22.14 14.5498 21.41C25.9998 14.8 40.7098 18.59 47.4198 29.87C48.4098 31.55 49.1698 33.3 49.7098 35.08L26.3098 48.59Z" fill="#B1A1F7"/>
<path d="M26.5132 36.0132C26.1852 36.3413 26.0006 36.7861 26 37.25H22.5C22.5015 35.8581 23.0551 34.5236 24.0394 33.5394C25.0236 32.5551 26.3581 32.0015 27.75 32H38.25C39.6419 32.0015 40.9764 32.5551 41.9606 33.5394C42.9449 34.5236 43.4985 35.8581 43.5 37.25H40C39.9994 36.7861 39.8148 36.3413 39.4868 36.0132C39.1587 35.6852 38.7139 35.5006 38.25 35.5H27.75C27.2861 35.5006 26.8413 35.6852 26.5132 36.0132Z" fill="#1A1919"/>
<path d="M33 30.25C31.6155 30.25 30.2622 29.8395 29.111 29.0703C27.9599 28.3011 27.0627 27.2079 26.5328 25.9288C26.003 24.6497 25.8644 23.2422 26.1345 21.8844C26.4046 20.5265 27.0713 19.2792 28.0503 18.3003C29.0292 17.3213 30.2765 16.6546 31.6344 16.3845C32.9922 16.1144 34.3997 16.253 35.6788 16.7828C36.9579 17.3127 38.0511 18.2099 38.8203 19.361C39.5895 20.5122 40 21.8655 40 23.25C39.9979 25.1059 39.2598 26.8851 37.9474 28.1974C36.6351 29.5098 34.8559 30.2479 33 30.25V30.25ZM33 19.75C32.3078 19.75 31.6311 19.9553 31.0555 20.3399C30.4799 20.7244 30.0313 21.2711 29.7664 21.9106C29.5015 22.5502 29.4322 23.2539 29.5673 23.9328C29.7023 24.6118 30.0356 25.2354 30.5251 25.7249C31.0146 26.2144 31.6383 26.5477 32.3172 26.6828C32.9961 26.8178 33.6999 26.7485 34.3394 26.4836C34.9789 26.2187 35.5256 25.7701 35.9101 25.1945C36.2947 24.6189 36.5 23.9422 36.5 23.25C36.4991 22.322 36.13 21.4323 35.4739 20.7762C34.8177 20.12 33.928 19.7509 33 19.75Z" fill="#1A1919"/>
<path fill-rule="evenodd" clip-rule="evenodd" d="M26 49.5V42.5H15.5C14.5721 42.4989 13.6824 42.1298 13.0263 41.4737C12.3702 40.8175 12.0011 39.9279 12 39V14.5C12.0011 13.5721 12.3702 12.6824 13.0263 12.0263C13.6824 11.3702 14.5721 11.0011 15.5 11H50.5C51.4279 11.0011 52.3176 11.3702 52.9737 12.0263C53.6298 12.6824 53.9989 13.5721 54 14.5V39C53.9989 39.9279 53.6298 40.8175 52.9737 41.4737C52.3176 42.1298 51.4279 42.4989 50.5 42.5H40V49.5H47V53H19V49.5H26ZM29.5 42.5H36.5V49.5H29.5V42.5ZM15.5 39V14.5H50.5V39H15.5Z" fill="#1A1919"/>
</svg>
