<svg width="64" height="64" viewBox="0 0 64 64" xmlns="http://www.w3.org/2000/svg">
<path class="seg-large" d="M56.23 47.81C44.76 61.11 24.58 62.50 11.17 50.93C-2.22 39.36 -3.79 19.20 7.67 5.90C7.98 5.54 8.30 5.19 8.63 4.84C15.68 3.24 23.03 3.09 30.19 4.45L33.61 5.18C36.02 5.66 38.72 6.58 41.71 7.94C46.19 9.99 50.97 13.00 54.89 16.39L63.76 24.04C64.57 32.38 62.11 41.00 56.23 47.81Z" fill="#D1F2FA"/>
<path class="seg-little" d="M19.45 38.24C13.52 40.30 7.23 39.08 2.51 35.51C0.47 27.22 3.94 18.67 10.85 14.24C10.98 14.16 11.12 14.11 11.27 14.09C16.64 13.55 21.95 15.33 25.98 18.83L26.94 19.71C27.64 20.32 28.34 21.12 29.05 22.13C29.78 23.16 30.46 24.35 31.03 25.58C29.54 31.31 25.38 36.17 19.45 38.24Z" fill="#007CFF"/>
<path d="M39 14.5H18V18H39V14.5Z" fill="#1A1919"/>
<path d="M39 21.5H18V25H39V21.5Z" fill="#1A1919"/>
<path d="M26.75 28.5H18V32H26.75V28.5Z" fill="#1A1919"/>
<path d="M25 56.5H14.5C13.57 56.49 12.68 56.13 12.02 55.47C11.37 54.81 11.00 53.92 11 53V11C11.00 10.07 11.37 9.18 12.02 8.52C12.68 7.87 13.57 7.50 14.5 7.5H42.5C43.42 7.50 44.31 7.87 44.97 8.52C45.63 9.18 45.99 10.07 46 11V28.5H42.5V11H14.5V53H25V56.5Z" fill="#1A1919"/>
<path fill-rule="evenodd" clip-rule="evenodd" d="M32 35.5V53H49.5V41.67L42.5 44.73V41.83L35.5 45.33V35.5H32ZM45.97 39.39L49.93 37.66C51.38 37.03 53 38.09 53 39.66V56.5H28.5V34.62C28.5 33.17 29.67 32 31.12 32H36.37C37.82 32 39 33.17 39 34.62V39.66L42.83 37.75C44.19 37.07 45.77 37.95 45.97 39.39Z" fill="#1A1919"/>
<rect x="42.5" y="46" width="3.5" height="3.5" fill="#1A1919"/>
</svg>
