<svg width="64" height="64" viewBox="0 0 64 64" xmlns="http://www.w3.org/2000/svg">
<path class="seg-large" d="M1.08 44.13C-3.46 27.16 6.72 9.69 23.83 5.11C40.95 0.52 58.51 10.56 63.06 27.53C63.18 27.99 63.29 28.45 63.40 28.92C60.76 35.65 56.75 41.81 51.59 46.97L49.07 49.39C47.32 51.12 45.04 52.84 42.23 54.54C38.01 57.10 32.84 59.35 27.83 60.69L16.51 63.73C9.16 59.71 3.41 52.83 1.08 44.13Z" fill="#E4F5D6"/>
<path class="seg-little" d="M23.04 21.58C21.41 15.51 23.10 9.33 27.00 4.89C35.42 3.46 43.69 7.55 47.60 14.77C47.67 14.90 47.71 15.04 47.71 15.19C47.86 20.59 45.70 25.75 41.92 29.51L40.97 30.41C40.31 31.06 39.45 31.70 38.40 32.34C37.32 32.98 36.08 33.58 34.81 34.06C29.21 32.16 24.66 27.64 23.04 21.58Z" fill="#EB6047"/>
<path d="M51.65 45.33L39 27.93V11H42.5V7.5H21.5V11H25V27.93L12.34 45.33C10.78 47.47 10.56 50.30 11.76 52.65C12.96 55.01 15.38 56.50 18.03 56.5H45.96C48.61 56.50 51.03 55.01 52.23 52.65C53.43 50.30 53.20 47.47 51.65 45.33H51.65ZM28.5 29.06V11.00H35.5V29.06L40.17 35.50H23.82L28.5 29.06ZM45.96 52.99H18.03C16.70 52.99 15.49 52.25 14.88 51.06C14.28 49.88 14.39 48.46 15.17 47.38L21.27 38.99H42.72L48.82 47.38C49.60 48.46 49.71 49.88 49.11 51.06C48.51 52.25 47.29 52.99 45.96 52.99Z" fill="#1A1919"/>
</svg>
