<?xml version="1.0" encoding="UTF-8"?>
<svg width="113px" height="112px" viewBox="0 0 113 112" version="1.1" xmlns="http://www.w3.org/2000/svg" xmlns:xlink="http://www.w3.org/1999/xlink">
    <title>dashboard</title>
    <g id="Page-1" stroke="none" stroke-width="1" fill="none" fill-rule="evenodd">
        <g id="Desktop-HD" transform="translate(-623.000000, -618.000000)" fill="#1A1919" fill-rule="nonzero">
            <g id="dashboard" transform="translate(623.500000, 618.000000)">
                <polygon id="Path" points="96 76 88 76 88 96 96 96"></polygon>
                <polygon id="Path" points="80 56 72 56 72 96 80 96"></polygon>
                <path d="M36,96 C30.6976,95.9936 25.61412,93.8848 21.86476,90.1352 C18.1154,86.386 16.00624,81.3024 16,76 L24,76 C24,78.3732 24.7038,80.6936 26.02236,82.6668 C27.34096,84.6404 29.21508,86.1784 31.4078,87.0864 C33.6004,87.9948 36.0132,88.2324 38.3412,87.7696 C40.6688,87.3064 42.8072,86.1636 44.4852,84.4852 C46.1636,82.8072 47.3064,80.6688 47.7696,78.3412 C48.2324,76.0132 47.9948,73.6004 47.0864,71.4076 C46.1784,69.2152 44.6404,67.3408 42.6668,66.0224 C40.6936,64.7036 38.3732,64 36,64 L36,56 C41.3044,56 46.3916,58.1072 50.142,61.858 C53.8928,65.6084 56,70.6956 56,76 C56,81.3044 53.8928,86.3916 50.142,90.142 C46.3916,93.8928 41.3044,96 36,96 Z" id="Path"></path>
                <path d="M104,0 L8,0 C5.87892,0.00212 3.84532,0.84564 2.34548,2.34548 C0.84564,3.84532 0.00212,5.87892 0,8 L0,104 C0.00244,106.1208 0.84608,108.1544 2.34584,109.654 C3.8456,111.154 5.879,111.9976 8,112 L104,112 C106.1208,111.9972 108.154,111.1532 109.6536,109.6536 C111.1532,108.154 111.9972,106.1208 112,104 L112,8 C111.9976,5.879 111.154,3.8456 109.654,2.34584 C108.1544,0.84608 106.1208,0.00244 104,0 L104,0 Z M104,36 L48,36 L48,8 L104,8 L104,36 Z M40,8 L40,36 L8,36 L8,8 L40,8 Z M8,104 L8,44 L104.0028,44 L104.008,104 L8,104 Z" id="Shape"></path>
            </g>
        </g>
    </g>
</svg>