<svg width="32" height="32" viewBox="4 4 56 56" xmlns="http://www.w3.org/2000/svg">
<path d="M42.5 42.5V53H14.5V11H32V7.5H14.5C13.57 7.5 12.68 7.86 12.02 8.52C11.36 9.18 11 10.07 11 11V53C11 53.92 11.36 54.81 12.02 55.47C12.68 56.13 13.57 56.5 14.5 56.5H42.5C43.42 56.5 44.31 56.13 44.97 55.47C45.63 54.81 46 53.92 46 53V42.5H42.5Z" fill="#1A1919"/>
<path d="M55.69 14.08L49.92 8.30C49.39 7.79 48.69 7.50 47.96 7.50C47.22 7.50 46.52 7.79 46 8.30L21.5 32.80V42.50H31.17L55.67 18.00C56.19 17.47 56.47 16.77 56.47 16.04C56.47 15.30 56.19 14.60 55.67 14.08H55.69ZM29.72 39.00H25V34.27L41.52 17.73L46.26 22.48L29.72 39.00ZM48.73 20.01L43.98 15.27L47.96 11.29L52.70 16.04L48.73 20.01Z" fill="#1A1919"/>
</svg>
