<svg width="32" height="32" viewBox="4 4 56 56" xmlns="http://www.w3.org/2000/svg">
<path d="M39 14.5H18V18H39V14.5Z" fill="#1A1919"/>
<path d="M39 21.5H18V25H39V21.5Z" fill="#1A1919"/>
<path d="M28.5 28.5H18V32H28.5V28.5Z" fill="#1A1919"/>
<path d="M25 46H18V49.5H25V46Z" fill="#1A1919"/>
<path d="M28.5 56.5H14.5C13.57 56.49 12.68 56.13 12.02 55.47C11.37 54.81 11.00 53.92 11 53V11C11.00 10.07 11.37 9.18 12.02 8.52C12.68 7.87 13.57 7.50 14.5 7.5H42.5C43.42 7.50 44.31 7.87 44.97 8.52C45.63 9.18 45.99 10.07 46 11V34.62H42.5V11H14.5V53H28.5V56.5Z" fill="#1A1919"/>
<path d="M55.98 41.26L50.73 36.01C50.57 35.85 50.38 35.72 50.16 35.63C49.95 35.54 49.72 35.5 49.5 35.5C49.27 35.5 49.04 35.54 48.83 35.63C48.61 35.72 48.42 35.85 48.26 36.01L32 52.27V60.00H39.72L55.98 43.73C56.14 43.57 56.27 43.38 56.36 43.16C56.45 42.95 56.50 42.72 56.50 42.50C56.50 42.27 56.45 42.04 56.36 41.83C56.27 41.61 56.14 41.42 55.98 41.26ZM38.27 56.50H35.5V53.72L44.25 44.97L47.02 47.75L38.27 56.50ZM49.5 45.27L46.72 42.50L49.5 39.72L52.27 42.50L49.5 45.27Z" fill="#1A1919"/>
</svg>
