<svg width="32" height="32" viewBox="4 4 56 56" xmlns="http://www.w3.org/2000/svg">
<path fill-rule="evenodd" clip-rule="evenodd" d="M12.75 25.84C12.89 15.54 21.51 7.30 32 7.43C42.48 7.30 51.10 15.54 51.25 25.84C51.24 29.84 49.89 33.73 47.4 36.89L32 58.99L16.6 36.89C14.10 33.73 12.75 29.84 12.75 25.84ZM47.75 25.84C47.58 17.44 40.54 10.75 32 10.87C23.45 10.75 16.41 17.44 16.25 25.84C16.24 29.14 17.38 32.35 19.48 34.93L32 52.91L44.61 34.79C46.64 32.24 47.75 29.08 47.75 25.84ZM32 21.18C34.89 21.18 37.25 23.49 37.25 26.34C37.25 29.19 34.89 31.49 32 31.49C29.10 31.49 26.75 29.19 26.75 26.34C26.75 23.49 29.10 21.18 32 21.18ZM23.25 26.34C23.25 21.59 27.16 17.74 32 17.74C36.83 17.74 40.75 21.59 40.75 26.34C40.75 31.08 36.83 34.93 32 34.93C27.16 34.93 23.25 31.08 23.25 26.34Z" fill="#1A1919"/>
</svg>
