<svg width="32" height="32" viewBox="4 4 56 56" xmlns="http://www.w3.org/2000/svg">
<path d="M32 51.25C33.93 51.25 35.5 49.68 35.5 47.75C35.5 45.81 33.93 44.25 32 44.25C30.06 44.25 28.5 45.81 28.5 47.75C28.5 49.68 30.06 51.25 32 51.25Z" fill="#1A1919"/>
<path d="M56.5 9.97L54.02 7.5L7.5 54.02L9.97 56.5L28.66 37.80C30.46 37.19 32.39 37.08 34.24 37.49C36.10 37.89 37.81 38.80 39.18 40.11L41.66 37.64C39.23 35.31 36.04 33.94 32.69 33.78L38.61 27.85C41.61 28.84 44.34 30.50 46.60 32.69L49.08 30.22C46.84 28.04 44.21 26.32 41.33 25.14L46.57 19.89C49.31 21.31 51.81 23.12 54.02 25.27L56.5 22.80V22.79C54.30 20.65 51.84 18.80 49.16 17.30L56.5 9.97Z" fill="#1A1919"/>
<path d="M29.68 26.88L33.26 23.31C32.84 23.29 32.42 23.25 31.99 23.25C25.60 23.24 19.46 25.75 14.90 30.23L17.37 32.71C20.71 29.45 25.05 27.40 29.68 26.88Z" fill="#1A1919"/>
<path d="M32 16.25C34.49 16.25 36.98 16.56 39.40 17.16L42.28 14.29C36.25 12.44 29.84 12.25 23.71 13.74C17.59 15.24 11.99 18.37 7.5 22.79V22.83L9.95 25.29C15.82 19.49 23.74 16.24 32 16.25Z" fill="#1A1919"/>
</svg>
