<svg width="32" height="32" viewBox="4 4 56 56" xmlns="http://www.w3.org/2000/svg">
<path d="M42.73 14.43V21.31H10.93V14.43H42.73ZM42.73 11H10.93C10.02 11 9.15 11.36 8.50 12.00C7.86 12.65 7.5 13.52 7.5 14.43V21.31C7.5 22.22 7.86 23.09 8.50 23.74C9.15 24.38 10.02 24.75 10.93 24.75H42.73C43.64 24.75 44.52 24.38 45.16 23.74C45.80 23.09 46.17 22.22 46.17 21.31V14.43C46.17 13.52 45.80 12.65 45.16 12.00C44.52 11.36 43.64 11 42.73 11Z" fill="#1A1919"/>
<path d="M17.81 31.62V48.81H10.93V31.62H17.81ZM17.81 28.18H10.93C10.02 28.18 9.15 28.54 8.50 29.19C7.86 29.83 7.5 30.71 7.5 31.62V48.81C7.5 49.72 7.86 50.59 8.50 51.24C9.15 51.88 10.02 52.25 10.93 52.25H17.81C18.72 52.25 19.59 51.88 20.24 51.24C20.88 50.59 21.25 49.72 21.25 48.81V31.62C21.25 30.71 20.88 29.83 20.24 29.19C19.59 28.54 18.72 28.18 17.81 28.18Z" fill="#1A1919"/>
<path d="M28.12 31.62V48.81H30.70V52.25H28.12C27.21 52.25 26.33 51.88 25.69 51.24C25.04 50.59 24.68 49.72 24.68 48.81V31.62C24.68 30.71 25.04 29.83 25.69 29.19C26.33 28.54 27.21 28.18 28.12 28.18H42.88C43.79 28.18 44.66 28.54 45.31 29.19C45.95 29.83 46.31 30.71 46.31 31.62V33.34H42.88V31.62H28.12Z" fill="#1A1919"/>
<path d="M56.69 55.63L46.21 36.35C46.11 36.16 45.96 36.01 45.77 35.90C45.59 35.79 45.38 35.73 45.17 35.73C44.95 35.73 44.74 35.79 44.56 35.90C44.37 36.01 44.22 36.16 44.12 36.35L33.65 55.63C33.55 55.81 33.50 56.01 33.50 56.22C33.50 56.43 33.56 56.63 33.67 56.81C33.78 56.99 33.93 57.14 34.11 57.24C34.29 57.35 34.49 57.40 34.70 57.40H55.63C55.84 57.40 56.05 57.35 56.23 57.24C56.41 57.14 56.56 56.99 56.66 56.81C56.77 56.63 56.83 56.43 56.83 56.22C56.84 56.01 56.79 55.81 56.69 55.63ZM43.92 42.40H46.42V49.07H43.92V42.40ZM45.17 54.07C44.84 54.07 44.51 53.97 44.24 53.79C43.97 53.60 43.75 53.34 43.63 53.04C43.50 52.73 43.47 52.40 43.53 52.08C43.60 51.75 43.76 51.46 43.99 51.22C44.22 50.99 44.52 50.83 44.84 50.77C45.17 50.70 45.50 50.73 45.80 50.86C46.11 50.99 46.37 51.20 46.55 51.47C46.74 51.75 46.83 52.07 46.83 52.40C46.83 52.84 46.66 53.27 46.35 53.58C46.03 53.89 45.61 54.07 45.17 54.07Z" fill="#1A1919"/>
</svg>
