<svg width="32" height="32" viewBox="4 4 56 56" xmlns="http://www.w3.org/2000/svg">
<path d="M44.25 30.25C51.98 30.25 58.25 36.51 58.25 44.25C58.25 51.98 51.98 58.25 44.25 58.25C36.51 58.25 30.25 51.98 30.25 44.25C30.25 36.51 36.51 30.25 44.25 30.25ZM33.75 7.5C34.67 7.5 35.56 7.86 36.22 8.52C36.83 9.13 37.19 9.93 37.24 10.78L37.25 11V12.75H42.5C43.42 12.75 44.31 13.11 44.97 13.77C45.58 14.38 45.94 15.18 45.99 16.03L46 16.25V26.75H42.5V16.25H37.25V21.5H16.25V16.25H11V53H28.5V56.5H11C10.07 56.5 9.18 56.13 8.52 55.47C7.91 54.86 7.55 54.06 7.50 53.21L7.5 53V16.25C7.5 15.32 7.86 14.43 8.52 13.77C9.13 13.16 9.93 12.80 10.78 12.75L11 12.75H16.25V11C16.25 10.07 16.61 9.18 17.27 8.52C17.88 7.91 18.68 7.55 19.53 7.50L19.75 7.5H33.75ZM44.25 33.75C38.45 33.75 33.75 38.45 33.75 44.25C33.75 50.04 38.45 54.75 44.25 54.75C50.04 54.75 54.75 50.04 54.75 44.25C54.75 38.45 50.04 33.75 44.25 33.75ZM46 37.25L45.99 42.49L51.25 42.5V46L45.99 45.99L46 51.25H42.5L42.49 45.99L37.25 46V42.5L42.49 42.49L42.5 37.25H46ZM25 44.25V47.75H16.25V44.25H25ZM28.5 35.5V39H16.25V35.5H28.5ZM37.25 26.75V30.25H16.25V26.75H37.25ZM33.75 11H19.75V18H33.75V11Z" fill="#1A1919"/>
</svg>
