<svg width="32" height="32" viewBox="4 4 56 56" xmlns="http://www.w3.org/2000/svg">
<path d="M43.37 14.5V21.5H11V14.5H43.37ZM43.37 11H11C10.07 11 9.18 11.36 8.52 12.02C7.86 12.68 7.5 13.57 7.5 14.5V21.5C7.5 22.42 7.86 23.31 8.52 23.97C9.18 24.63 10.07 25 11 25H43.37C44.30 25 45.19 24.63 45.84 23.97C46.50 23.31 46.87 22.42 46.87 21.5V14.5C46.87 13.57 46.50 12.68 45.84 12.02C45.19 11.36 44.30 11 43.37 11Z" fill="#1A1919"/>
<path d="M18 32V49.5H11V32H18ZM18 28.5H11C10.07 28.5 9.18 28.86 8.52 29.52C7.86 30.18 7.5 31.07 7.5 32V49.5C7.5 50.42 7.86 51.31 8.52 51.97C9.18 52.63 10.07 53 11 53H18C18.92 53 19.81 52.63 20.47 51.97C21.13 51.31 21.5 50.42 21.5 49.5V32C21.5 31.07 21.13 30.18 20.47 29.52C19.81 28.86 18.92 28.5 18 28.5Z" fill="#1A1919"/>
<path d="M28.5 32V49.5H31.12V53H28.5C27.57 53 26.68 52.63 26.02 51.97C25.36 51.31 25 50.42 25 49.5V32C25 31.07 25.36 30.18 26.02 29.52C26.68 28.86 27.57 28.5 28.5 28.5H43.52C44.45 28.5 45.34 28.86 46 29.52C46.65 30.18 47.02 31.07 47.02 32V33.75H43.52V32H28.5Z" fill="#1A1919"/>
<path d="M57.73 39.51L52.48 34.26C52.32 34.10 52.13 33.97 51.91 33.88C51.70 33.79 51.47 33.75 51.25 33.75C51.02 33.75 50.79 33.79 50.58 33.88C50.36 33.97 50.17 34.10 50.01 34.26L33.75 50.52V58.25H41.47L57.73 41.98C57.89 41.82 58.02 41.63 58.11 41.41C58.20 41.20 58.25 40.97 58.25 40.75C58.25 40.52 58.20 40.29 58.11 40.08C58.02 39.86 57.89 39.67 57.73 39.51V39.51ZM40.02 54.75H37.25V51.97L46 43.22L48.77 46.00L40.02 54.75ZM51.25 43.52L48.47 40.75L51.25 37.97L54.02 40.75L51.25 43.52Z" fill="#1A1919"/>
</svg>
