<svg width="32" height="32" viewBox="4 4 56 56" xmlns="http://www.w3.org/2000/svg">
<path d="M39 14.5H18V18H39V14.5Z" fill="#1A1919"/>
<path d="M39 21.5H18V25H39V21.5Z" fill="#1A1919"/>
<path d="M26.75 28.5H18V32H26.75V28.5Z" fill="#1A1919"/>
<path d="M25 56.5H14.5C13.57 56.49 12.68 56.13 12.02 55.47C11.37 54.81 11.00 53.92 11 53V11C11.00 10.07 11.37 9.18 12.02 8.52C12.68 7.87 13.57 7.50 14.5 7.5H42.5C43.42 7.50 44.31 7.87 44.97 8.52C45.63 9.18 45.99 10.07 46 11V28.5H42.5V11H14.5V53H25V56.5Z" fill="#1A1919"/>
<path fill-rule="evenodd" clip-rule="evenodd" d="M32 35.5V53H49.5V41.67L42.5 44.73V41.83L35.5 45.33V35.5H32ZM45.97 39.39L49.93 37.66C51.38 37.03 53 38.09 53 39.66V56.5H28.5V34.62C28.5 33.17 29.67 32 31.12 32H36.37C37.82 32 39 33.17 39 34.62V39.66L42.83 37.75C44.19 37.07 45.77 37.95 45.97 39.39Z" fill="#1A1919"/>
<rect x="42.5" y="46" width="3.5" height="3.5" fill="#1A1919"/>
</svg>
