<svg width="32" height="32" viewBox="4 4 56 56" xmlns="http://www.w3.org/2000/svg">
<path d="M51.65 45.33L39 27.93V11H42.5V7.5H21.5V11H25V27.93L12.34 45.33C10.78 47.47 10.56 50.30 11.76 52.65C12.96 55.01 15.38 56.50 18.03 56.5H45.96C48.61 56.50 51.03 55.01 52.23 52.65C53.43 50.30 53.20 47.47 51.65 45.33H51.65ZM28.5 29.06V11.00H35.5V29.06L40.17 35.50H23.82L28.5 29.06ZM45.96 52.99H18.03C16.70 52.99 15.49 52.25 14.88 51.06C14.28 49.88 14.39 48.46 15.17 47.38L21.27 38.99H42.72L48.82 47.38C49.60 48.46 49.71 49.88 49.11 51.06C48.51 52.25 47.29 52.99 45.96 52.99Z" fill="#1A1919"/>
</svg>
